<?xml version="1.0" encoding="utf-8"?>
<!-- Generator: Adobe Illustrator 16.0.4, SVG Export Plug-In . SVG Version: 6.00 Build 0)  -->
<!DOCTYPE svg PUBLIC "-//W3C//DTD SVG 1.1//EN" "http://www.w3.org/Graphics/SVG/1.1/DTD/svg11.dtd">
<svg version="1.1" id="Layer_1" xmlns="http://www.w3.org/2000/svg" xmlns:xlink="http://www.w3.org/1999/xlink" x="0px" y="0px"
	 width="378px" height="208px" viewBox="0 0 378 208" enable-background="new 0 0 378 208" xml:space="preserve">
<path fill="#FFFFFF" d="M206.335,84.874c0.304-0.218,0.63-0.381,1.072-0.389c7.867-3.647,13.91-12.039,14.909-20.967
	c1.032-9.227-0.057-10.2,0-15.014c0.059-4.812,2.864-8.652,5.616-10.543c0.082-0.057,0.165-0.112,0.247-0.166
	c0.026-0.016,0.052-0.033,0.079-0.05c0.056-0.034,0.109-0.071,0.164-0.104c0.03-0.02,0.062-0.037,0.096-0.056
	c0.049-0.029,0.097-0.058,0.145-0.087c0.034-0.02,0.064-0.037,0.099-0.055c0.046-0.027,0.091-0.053,0.138-0.077
	c0.034-0.019,0.064-0.034,0.099-0.053c0.044-0.023,0.09-0.047,0.135-0.069c0.033-0.018,0.065-0.033,0.097-0.049
	c0.045-0.021,0.089-0.043,0.131-0.062c0.033-0.016,0.067-0.031,0.099-0.045c0.042-0.02,0.086-0.039,0.129-0.058
	c0.029-0.015,0.063-0.026,0.097-0.042c0.04-0.018,0.082-0.033,0.124-0.051c0.032-0.013,0.064-0.025,0.097-0.037
	c0.042-0.016,0.08-0.031,0.123-0.047c0.031-0.012,0.063-0.023,0.092-0.033c0.042-0.015,0.085-0.029,0.124-0.042
	c0.031-0.01,0.062-0.02,0.093-0.03c0.039-0.014,0.081-0.025,0.123-0.038c0.028-0.008,0.056-0.017,0.086-0.024
	c0.044-0.014,0.088-0.025,0.13-0.036c0.025-0.007,0.053-0.014,0.075-0.021c0.05-0.012,0.099-0.023,0.146-0.034
	c0.021-0.005,0.04-0.009,0.059-0.013c0.02-0.005,0.038-0.01,0.059-0.013c0.687-0.147,1.324-0.176,1.927-0.155
	c0.031,0.002,0.065,0.004,0.095,0.004c0.024,0.002,0.05,0.002,0.074,0.004c0.036,0.002,0.071,0.004,0.107,0.006
	c0.021,0.002,0.044,0.003,0.067,0.004c0.037,0.002,0.077,0.006,0.117,0.008c0.019,0.002,0.035,0.004,0.055,0.005
	c0.054,0.005,0.107,0.009,0.162,0.013c0.003,0,0.003,0,0.005,0c0.168,0.016,0.33,0.032,0.492,0.049
	c0.124,0.014,0.244,0.025,0.366,0.039c-0.333-0.276-0.756-0.559-1.219-0.869c-0.476-0.316-0.991-0.661-1.503-1.056
	c-0.027-0.017-0.055-0.032-0.083-0.05c-0.806-0.509-1.627-0.896-2.484-1.144c-6.263-1.802-13.982-0.343-13.982-0.343
	c-4.699-7.45-8.226-11.078-17.42-17.764c-5.387-3.918-11.461-5.65-14.74-5.787c-0.02-0.002-0.04-0.003-0.062-0.004
	c-0.5,0.033-1.036,0.074-1.6,0.121c-0.012,0.004-0.021,0.008-0.033,0.011c-0.937,0.257-1.022,0.867,0.162,1.763
	c9.855,7.448,13.52,18.409,13.52,18.409c-4.009-0.417-16.871-8.324-21.885-14.055c-5.016-5.731-6.2-2.352-5.272,5.386
	c1.375,11.461,15.93,31.172,19.941,34.609c4.463,3.827,2.062,6.992,0.229,14.555c-1.823,7.525-8.822,11.038-10.658,12.033
	c-1.967,1.066-3.965,1.803-5.524,2.528c-2.694,1.254-4.075,2.479-1.724,5.329c0.658,0.795,1.603,1.717,2.894,2.801
	c2.465,1.914,8.843,3.979,8.843,3.979s6.396,1.062,11.897,2.782l0,0c0.944-0.986,1.211-2.029,2.027-3.131l0.002-0.002l1.16-1.506
	c2.057-2.939,3.923-5.797,6.184-8.066c0.863-0.791,1.83-1.471,2.909-1.992c0.051-0.041,0.102-0.082,0.154-0.123
	c0.032-0.024,0.064-0.047,0.097-0.071C206.319,84.886,206.328,84.88,206.335,84.874z"/>
<g>
	<path fill="#EA3E3B" d="M207.861,84.782c0.42-0.082,0.863-0.035,1.325,0.113h151.927c0.068-3.975-0.119-7.615-0.748-10.329
		c-2.269-9.791-12.337-20.386-29.373-20.736c-14.697-0.303-42.944,12.62-50.586,12.739c-7.641,0.12-22.231-1.959-31.399-12.045
		c-6.609-7.269-10.751-14.104-14.903-18.016c-1.703-0.178-3.62-0.309-6.186,1.455c-2.75,1.891-5.558,5.73-5.615,10.544
		s1.031,5.788,0,15.015c-0.999,8.929-7.043,17.32-14.912,20.969c-0.574,0.01-0.957,0.09-1.347,0.404"/>
</g>
<path fill="#EA3E3B" d="M173.021,93.026c-1.292-1.084-2.236-2.006-2.894-2.801H34.854c0.943,12.598,3.043,31.545,4.59,42.291
	c1.159,8.053,1.248,9.539,1.097,11.475c-0.063,0.824-1.728,3.367-1.728,3.939c0,0.574-3.094,4.586-3.094,4.586
	s-8.825,11.574-10.658,14.67c-1.834,3.094-8.023,8.367-9.398,8.939S4.773,176.813,4.889,182.2s4.012,10.199,5.271,13.18
	c1.262,2.98,8.252,8.824,11.69,7.68c3.438-1.146,6.143-3.994,6.601-7.777c0.459-3.781,6.121-12.166,6.121-12.166
	s9.723-12.924,12.021-14.166c3.282-1.773,3.106-5.127,3.693-7.039l-1.732,9.172c0,0,0.854,4.498,0.854,7.707
	s-0.635,8.736-0.176,10.227c0.459,1.488-1.303,4.758-1.761,6.936s-2.865,5.617-0.229,6.533c2.637,0.918,8.762,1.555,12.086,0.721
	c1.473-0.371,10.514,0.408,15.701-0.146c3.209-0.344,4.24-2.293,4.584-4.242c0.344-1.947-2.406-3.209-5.271-8.137
	s-2.521-11.805-2.865-20.859s2.521-19.254,5.73-24.297s7.564-8.48,12.607-8.48s25.1-1.834,29.11-2.178s6.763-1.375,7.679,4.24
	c0.917,5.617-2.865,12.035-2.865,12.035s-7.449,27.965-7.793,29.34s-1.092,4.514-2.293,5.615c-2.75,2.521-9.054,7.564-10.085,10.773
	c-1.032,3.209-0.779,6.572,5.271,6.725s8.022-0.535,11.69-0.65c3.667-0.115,12.034,0.688,14.098-0.115
	c2.062-0.803,1.146-4.699,0-7.449c-1.146-2.75-2.293-2.865,0.229-10.314s5.73-14.441,8.252-21.891s5.043-13.982,5.845-18.223
	s8.023-15.586,8.138-16.732c0,0,5.271,17.42,6.304,20.057c1.031,2.635,2.629,2.75,4.18,9.971c1.55,7.219,4.997,24.297,6.14,26.818
	c1.141,2.521,2.287,8.367,1.715,9.168c-0.574,0.803-5.02,6.305-3.668,7.908c1.352,1.605,1.628,2.1,7.908,1.852
	c6.279-0.246,9.307-0.246,12.263-0.246c2.957,0,10.888,1.031,11.117-2.178s-0.802-4.469-2.521-5.615
	c-1.719-1.146-4.699-7.68-5.73-12.264c-1.032-4.584-3.896-36.789-3.896-36.789s-0.114-17.881-1.146-26.361
	c-1.032-8.48-3.439-15.357-2.521-16.045c0.916-0.688,3.667-0.572,4.812-2.062c0.453-0.588,1.1-1.615,1.717-2.645
	c-5.502-1.719-11.898-2.783-11.898-2.783S175.485,94.94,173.021,93.026z"/>
<path fill="#EA3E3B" d="M211.443,92.374c0.945,2.75,1.72,3.869,1.72,5.244s-0.774,6.189-0.517,7.479
	c0.257,1.289,1.29,2.148,1.203,2.578c-0.085,0.43-1.375,2.234-1.289,3.352s1.204-0.172,0.688,2.064
	c-0.515,2.234-1.375,5.242-1.288,7.994c0.084,2.75-0.517,8.939-0.775,13.408c-0.257,4.471-0.687,18.652-1.288,20.629
	c-0.602,1.979-1.376,7.996-3.267,9.543c-1.892,1.547-2.923,1.633-3.955,0.172c-1.031-1.463-1.891-1.117-2.664-0.172
	s-2.063-1.463-4.298-0.258c-2.234,1.203-0.43,5.242,0.43,7.133c0.859,1.893,3.954,4.213,11.604,2.752s10.486-7.65,11.776-14.184
	c1.289-6.533,3.352-21.059,4.47-26.303c1.117-5.244,5.587-21.832,7.049-26.217c0.873-2.621,3.59-10.65,5.635-17.363h-25.79
	C211.045,90.976,211.216,91.714,211.443,92.374z"/>
<path fill="#37ADD6" d="M215.196,33.086c0,0,7.72-1.458,13.982,0.344c0.881,0.253,1.726,0.655,2.552,1.185
	c-1.354-1.452-10.667-12.301-12.465-14.271c-1.805-1.977-7.69-6.908-11.089-8.682c-3.83-1.999-18.653-2.541-25.099-2.131
	c-0.017,0.002-0.033,0.002-0.05,0.004c3.276,0.135,9.356,1.865,14.748,5.787C206.97,22.007,210.498,25.636,215.196,33.086z"/>
<path fill="#FFFFFF" d="M182.973,9.53c-0.5,0.033-1.036,0.074-1.6,0.122c-0.012,0.003-0.022,0.007-0.033,0.01
	c0.596-0.052,1.162-0.095,1.688-0.128C183.01,9.533,182.99,9.531,182.973,9.53z"/>
<g>
	<path fill="#37ADD6" d="M187.805,55.778c-4.011-3.438-18.566-23.15-19.941-34.612c-0.929-7.738,0.257-11.118,5.271-5.386
		c5.016,5.73,17.879,13.639,21.887,14.056c0,0-3.663-10.962-13.52-18.411c-1.186-0.896-1.1-1.506-0.162-1.763
		c-6.725,0.573-15.778,1.597-22.846,4.491c-8.853,3.626-20.63,10.658-39.885,8.424c-19.254-2.234-26.559-5.701-43.494-2.929
		c-13.336,2.183-19.426,5.68-26.99,13.329c-7.564,7.65-10.916,14.957-12.55,17.02c-1.634,2.063-5.759,8.682-7.306,12.809
		c-1.548,4.125-5.76,16.16-7.135,19.941c-1.376,3.783-2.492,5.588-2.923,6.189c-0.43,0.602-1.375,1.375-2.063,1.719
		c-0.688,0.344-1.547,1.031-2.922,2.32s-1.978,3.182-1.978,4.041s-0.859,3.439,0.431,2.922c1.289-0.516,2.062-1.461,2.836-2.492
		s1.375-1.461,2.664-2.234c1.29-0.773,2.494-1.461,2.751-2.494c0.259-1.031,2.149-4.039,2.837-4.383s9.111-19.427,10.314-21.232
		l1.986-4.494c0,0-1.298,10.082-0.61,21.771c0.01,0.17,0.021,0.342,0.03,0.516H171.85c1.56-0.725,3.559-1.461,5.525-2.527
		c1.836-0.996,8.835-4.51,10.658-12.035C189.867,62.77,192.27,59.604,187.805,55.778z M84.146,67.888l-9.484-6.891l-9.484,6.891
		L68.8,56.739l-9.484-6.892h11.724l3.623-11.149l3.622,11.149h11.724l-9.484,6.892L84.146,67.888z M119.072,67.888l-9.483-6.891
		l-9.484,6.891l3.622-11.148l-9.484-6.892h11.724l3.623-11.149l3.622,11.149h11.725l-9.485,6.892L119.072,67.888z M154,67.888
		l-9.484-6.891l-9.484,6.891l3.623-11.148l-9.484-6.892h11.723l3.623-11.149l3.623,11.149h11.724l-9.485,6.892L154,67.888z"/>
</g>
<g>
	<path fill="#37ADD6" d="M369.559,132.593c-3.104-3.223-11.582-13.969-10.984-20.178c0.359-3.738,1.758-13.152,2.318-22.189H215.06
		c2.514,3.246,4.697,6.889,5.49,7.742c1.552,1.672,7.641,12.775,7.641,12.775s4.418,23.76,5.851,27.342
		c1.434,3.582,2.149,21.492,2.269,24.238s-2.029,7.762-2.745,8.598c-0.717,0.836,0,7.641-0.239,9.67
		c-0.239,2.031-9.672,16.119-10.627,17.193c-0.955,1.076-0.357,2.508,1.075,3.463c1.433,0.957,17.073,0.836,17.073,0.836
		l3.941-0.596l1.192-8.479c0,0,3.821,4.896,5.016,4.656c1.194-0.238,13.253-13.014,14.208-14.566
		c0.956-1.551-5.97-5.373-7.164-6.447c-1.193-1.074-5.014-2.984-5.014-15.402s7.999-24.955,9.431-26.506
		c1.435-1.553,11.941-1.074,13.971-1.074c2.03,0,15.164-2.389,18.985-2.508c3.82-0.119,11.819,15.76,12.297,17.074
		c0.479,1.312,0.956,8.596,0,9.074c-0.955,0.477-1.791,7.402-1.791,7.402l-12.895,17.551l-0.836,2.627
		c-2.866,0.479-5.851,5.254-4.895,9.434c0.954,4.178,10.387,2.746,14.327,2.387c3.939-0.357,6.567-5.252,7.164-7.998
		c0.597-2.748,8.716-10.627,10.269-11.582c1.552-0.955,0.357-12.18,0.478-13.135c0.119-0.955,8.716-9.193,12.059-12.059
		s2.03-8.357,0.598-11.582c-1.434-3.223-2.628-6.09-0.478-6.807c2.148-0.715,8.715,15.045,9.192,16.955
		c0.479,1.912,1.194,21.135,0.12,22.686c-1.074,1.553-3.104,13.135-3.224,14.807c-0.119,1.67-7.761,7.76-10.029,10.268
		s2.507,5.73,9.192,5.73c6.688,0,10.509-1.551,11.344-2.148c0.836-0.598,4.418-7.641,6.089-9.553
		c1.672-1.91,2.747-13.014,2.509-14.566c-0.239-1.551-0.359-9.193,1.91-13.969c2.269-4.777-1.792-19.104-2.628-23.641
		c-0.835-4.537-2.029-11.701-0.238-13.852c1.791-2.148,6.328,4.896,6.328,4.896s2.627,2.746,2.865,5.373
		c0.239,2.627,3.463,7.762,3.94,9.553c0.478,1.789,0.478,4.656,2.985,3.104C374.573,147.638,372.663,135.817,369.559,132.593z
		 M265.405,113.583l3.623,11.15l-9.484-6.891l-9.485,6.891l3.623-11.15l-9.484-6.891h11.724l3.623-11.148l3.622,11.148h11.724
		L265.405,113.583z M300.332,113.583l3.623,11.15l-9.484-6.891l-9.484,6.891l3.622-11.15l-9.484-6.891h11.724l3.623-11.148
		l3.623,11.148h11.723L300.332,113.583z M335.259,113.583l3.623,11.15l-9.484-6.891l-9.484,6.891l3.623-11.15l-9.484-6.891h11.723
		l3.623-11.148l3.623,11.148h11.723L335.259,113.583z"/>
</g>
<path fill="none" d="M206.379,84.827h2.511c-0.086-0.055-0.175-0.104-0.27-0.143C207.497,84.226,206.905,84.446,206.379,84.827z"/>
<g>
	<path fill="#C93944" d="M238.422,84.827c0.556-2.076,0.906-3.67,0.906-4.402c0-3.193-0.26-17.348-2.589-25.633
		c-2.331-8.285-5.524-14.24-5.007-15.449c0.307-0.715,0.772-1.84,0.834-2.93c-1.326,0.002-2.822,0.296-4.648,1.551
		c-2.75,1.891-5.558,5.73-5.615,10.544s1.031,5.788,0,15.015c-0.992,8.88-6.979,17.227-14.784,20.906
		c0.305,0.004,0.661,0.076,1.102,0.256c0.08,0.033,0.155,0.076,0.229,0.121c0.025,0.006,0.053,0.014,0.077,0.021H238.422z"/>
</g>
<path fill="#408FA5" d="M215.06,90.226c2.514,3.246,4.697,6.889,5.49,7.742c1.552,1.672,7.641,12.775,7.641,12.775
	s0.323,1.74,0.824,4.348c0.908-3.258,1.718-6.033,2.2-7.48c0.875-2.625,3.592-10.654,5.644-17.385H215.06z"/>
<g>
	<g>
		<path fill="#EA3E3B" d="M244.416,16.151l3.617-1.771c0.724-0.773,1.361-1.593,1.9-2.431c4.602-2.421,8.953-3.786,11.536-4.108
			l2.085-0.211c0,0,1.309-0.269-2.474,3.553C254.513,17.821,251,14.351,251,14.351c-1.151,0.445-2.224,0.939-3.232,1.47
			c-1.137,0.081-2.215,0.288-3.348,0.331H244.416z"/>
		<path fill="#EA3E3B" d="M234.278,27.741c0.002-0.404-0.013-0.85-0.046-1.318c0.752-1.395,1.625-2.713,2.596-3.95
			c0.345,0.478,0.604,0.772,0.686,0.799c0.334,0.11,0.387-0.888,0.387-0.888c0.354-0.775,0.727-1.576,1.09-2.393
			c0.841-0.872,1.727-1.695,2.641-2.475l1.778-0.871c-0.689,0.422-1.607,1.152-2.354,2.35c-0.296,0.476-0.065,0.902,0.496,1.269
			c-0.5,0.476-0.97,0.959-1.412,1.449c-0.633-0.03-1.15-0.042-1.466-0.089l-0.807,1.069c0,0,0.209,0.45,0.604,1.056
			c-0.921,1.242-1.692,2.496-2.334,3.714c-0.305-0.042-0.587-0.054-0.832-0.028l-1.675,3.379c0.036,0.439,0.269,0.773,0.632,1.026
			c-0.34,1.003-0.681,3-0.868,3.794c-0.618-0.008-1.218-1.074-1.817-1.02c0.185-1.451,0.5-2.842,0.934-4.174
			c0.255,0.081,0.523,0.152,0.804,0.214L234.278,27.741z"/>
		<path fill="#EA3E3B" d="M241.599,18.042c-0.703-7.867,6.651-13.971,7.041-13.231c1.479,2.804,1.644,5.937-3.512,10.752
			C242.339,17.029,244.233,15.798,241.599,18.042L241.599,18.042z"/>
		<path fill="#EA3E3B" d="M244.416,16.151c-0.015,0.006-0.431,0.142-1.007,0.494l-1.778,0.871c2.635-2.244,5.515-4.102,8.303-5.567
			c-0.539,0.838-1.177,1.657-1.9,2.431L244.416,16.151z"/>
		<path fill="#EA3E3B" d="M233.4,16.61c-0.004-3.609,2.955-8.162,2.955-8.162c4.422,3.746,4.246,7.688,2.163,12.365
			c-0.76,0.789-1.484,1.615-2.163,2.48C235.275,21.8,233.405,19.345,233.4,16.61z"/>
		<path fill="#EA3E3B" d="M237.514,23.271c-0.081-0.026-0.341-0.321-0.686-0.799c0.678-0.866,1.402-1.692,2.162-2.481
			c-0.363,0.816-0.736,1.617-1.09,2.393C237.9,22.384,237.848,23.382,237.514,23.271z"/>
		<path fill="#EA3E3B" d="M230.946,18.005c2.017,0.953,3.064,5.254,3.286,8.418c-0.686,1.273-1.269,2.613-1.723,4.018
			c-8.014-2.53-4.547-14.305-4.547-14.305S228.63,16.911,230.946,18.005z"/>
		<path fill="#EA3E3B" d="M234.278,27.741l-0.965,2.913c-0.28-0.062-0.549-0.133-0.804-0.214c0.454-1.404,1.037-2.744,1.723-4.018
			C234.266,26.892,234.28,27.337,234.278,27.741z"/>
		<path fill="#EA3E3B" d="M254.979,18.926c0,0-1.735,1.386-4.24,2.359c-2.749,1.068-7.126,0.321-9.188-1.021
			c1.71-1.63,2.689-2.819,5.143-4.112C249.042,15.82,252.424,17.228,254.979,18.926z"/>
		<path fill="#EA3E3B" d="M241.056,18.995c0.746-1.197,1.664-1.928,2.354-2.35l1.007-0.494h0.004
			c1.133-0.043,2.211-0.25,3.348-0.331c-2.454,1.293-4.506,2.813-6.216,4.443C240.99,19.897,240.76,19.471,241.056,18.995z"/>
		<path fill="#EA3E3B" d="M243.409,16.646c0.576-0.353,0.992-0.488,1.007-0.494L243.409,16.646z"/>
		<path fill="#EA3E3B" d="M246.878,26.01c0,0-0.819,1.228-4.205,1.235c-2.738,0.007-4.336-1.693-5.181-2.992
			c0.51-0.684,0.758-1.137,1.364-1.808C242.086,22.445,245.154,23.612,246.878,26.01z"/>
		<path fill="#EA3E3B" d="M238.674,21.624c0.315,0.047,0.833,0.059,1.466,0.089c-0.606,0.671-1.159,1.352-1.669,2.036
			c-0.395-0.605-0.604-1.056-0.604-1.056L238.674,21.624z"/>
		<path fill="#EA3E3B" d="M242.558,32.081c0,0-6.256,1.177-8.296-0.241c0.454-1.339,1.062-2.829,1.875-4.377
			C238.205,27.753,241.401,29.547,242.558,32.081z"/>
		<path fill="#EA3E3B" d="M233.63,30.813l1.675-3.379c0.245-0.025,0.527-0.014,0.832,0.028c-0.813,1.548-1.421,3.038-1.875,4.377
			C233.898,31.587,233.666,31.253,233.63,30.813z"/>
	</g>
	<path fill="#EA3E3B" d="M231.576,36.444c0.103,2.215-2.022,3.477-2.022,3.477c0.494,0,1.171,1.155,1.171,1.155
		c1.941-0.715,2.669-4.632,2.669-4.632S232.623,36.347,231.576,36.444z"/>
</g>
<polygon fill="#FFFFFF" points="84.146,67.888 74.662,60.997 65.178,67.888 68.8,56.738 59.315,49.848 71.039,49.848 74.662,38.697 
	78.284,49.848 90.008,49.848 80.523,56.738 "/>
<polygon fill="#FFFFFF" points="119.072,67.888 109.589,60.997 100.104,67.888 103.727,56.738 94.242,49.848 105.966,49.848 
	109.589,38.697 113.211,49.848 124.936,49.848 115.45,56.738 "/>
<polygon fill="#FFFFFF" points="154,67.888 144.516,60.997 135.031,67.888 138.654,56.738 129.17,49.848 140.893,49.848 
	144.516,38.697 148.139,49.848 159.862,49.848 150.377,56.738 "/>
<polygon fill="#FFFFFF" points="265.405,113.583 269.028,124.732 259.544,117.842 250.059,124.732 253.682,113.583 244.197,106.692 
	255.921,106.692 259.544,95.543 263.166,106.692 274.89,106.692 "/>
<polygon fill="#FFFFFF" points="300.332,113.583 303.955,124.732 294.471,117.842 284.986,124.732 288.608,113.583 279.124,106.692 
	290.848,106.692 294.471,95.543 298.094,106.692 309.816,106.692 "/>
<polygon fill="#FFFFFF" points="335.259,113.583 338.882,124.732 329.397,117.842 319.913,124.732 323.536,113.583 314.052,106.692 
	325.774,106.692 329.397,95.543 333.021,106.692 344.743,106.692 "/>
</svg>
