<?xml version="1.0" encoding="utf-8"?>
<!-- Generator: Adobe Illustrator 16.0.4, SVG Export Plug-In . SVG Version: 6.00 Build 0)  -->
<!DOCTYPE svg PUBLIC "-//W3C//DTD SVG 1.1//EN" "http://www.w3.org/Graphics/SVG/1.1/DTD/svg11.dtd">
<svg version="1.1" id="Layer_1" xmlns="http://www.w3.org/2000/svg" xmlns:xlink="http://www.w3.org/1999/xlink" x="0px" y="0px"
	 width="413px" height="439px" viewBox="0 0 413 439" enable-background="new 0 0 413 439" xml:space="preserve">
<circle fill="#E93E3A" cx="206.255" cy="232.508" r="198.677"/>
<path fill-rule="evenodd" clip-rule="evenodd" fill="#C93944" d="M280.544,47.661l-40.415,22.991l-33.874,277.49l112.264,47.752
	c52.181-35.803,86.413-95.863,86.413-163.926C404.932,148.51,353.466,77.083,280.544,47.661z"/>
<path fill-rule="evenodd" clip-rule="evenodd" fill="#787878" d="M104.866,73.843c34.845-1.811,66.249-12.481,94.808-31.268
	c5.104-3.356,8.176-3.302,13.258,0.038c28.561,18.772,59.961,29.443,94.746,31.226c0,1.528,0,2.988,0,4.448
	c0,43.133-0.258,86.269,0.098,129.4c0.211,25.718-8.844,47.528-25.902,66.22c-20.334,22.28-45.756,36.854-73.664,47.456
	c-1.156,0.439-2.779,0.417-3.938-0.028c-29.943-11.494-57.09-27.244-77.807-52.376c-14.272-17.313-21.744-37.146-21.65-59.829
	c0.178-43.511,0.052-87.024,0.052-130.536C104.866,77.104,104.866,75.615,104.866,73.843z"/>
<path opacity="0.3" fill-rule="evenodd" clip-rule="evenodd" fill="#787878" d="M307.678,78.74c0-1.46,0-2.92,0-4.448
	c-31.824-1.631-60.807-10.723-87.382-26.63v269.217c23.151-10.11,44.222-23.502,61.577-42.519
	c17.059-18.691,26.113-40.502,25.902-66.22C307.42,165.009,307.678,121.873,307.678,78.74z"/>
<polygon fill-rule="evenodd" clip-rule="evenodd" fill="#5B5B5B" points="256.818,112.526 312,140 307.779,258 206.296,223.78 "/>
<polygon opacity="0.3" fill-rule="evenodd" clip-rule="evenodd" fill="#787878" points="189.693,111.61 259.148,144.333 
	234.014,185.263 206.296,223.78 "/>
<path fill-rule="evenodd" clip-rule="evenodd" fill="#494949" d="M81.984,51.81c46.89,0.48,87.606-15.166,124.262-42.845
	c36.504,27.577,77.307,43.348,124.314,42.839c0,1.423,0,2.746,0,4.068c0,51.831-0.143,103.662,0.049,155.492
	c0.131,35.327-14.705,63.752-39.648,87.546c-23.527,22.444-51.393,37.871-81.656,49.208c-1.51,0.565-3.547,0.829-4.992,0.295
	c-35.454-13.113-67.588-31.478-92.892-60.188c-19.59-22.227-29.693-48.059-29.519-78c0.297-51.072,0.082-102.147,0.082-153.221
	C81.984,55.388,81.984,53.771,81.984,51.81z M104.866,73.843c0,1.771,0,3.261,0,4.75c0,43.512,0.126,87.025-0.052,130.536
	c-0.093,22.683,7.378,42.516,21.65,59.829c20.717,25.132,47.864,40.882,77.807,52.376c1.158,0.445,2.781,0.468,3.938,0.028
	c27.908-10.602,53.33-25.176,73.664-47.456c17.059-18.691,26.113-40.502,25.902-66.22c-0.355-43.131-0.098-86.267-0.098-129.4
	c0-1.46,0-2.92,0-4.448c-34.785-1.783-66.186-12.454-94.746-31.226c-5.082-3.34-8.154-3.394-13.258-0.038
	C171.115,61.362,139.711,72.033,104.866,73.843z"/>
<path fill-rule="evenodd" clip-rule="evenodd" fill="#2B2B2B" d="M330.52,55.856c0-1.323,0-2.645,0-4.068
	c-46.986,0.509-87.773-15.248-124.265-42.802v31.082c2.046,0.008,4.089,0.855,6.636,2.529
	c28.561,18.772,59.961,29.443,94.746,31.226c0,1.528,0,2.988,0,4.448c0,43.133-0.258,86.269,0.098,129.4
	c0.211,25.718-8.844,47.528-25.902,66.22c-20.334,22.28-45.756,36.854-73.664,47.456c-0.562,0.214-1.236,0.314-1.913,0.313v27.021
	c1.033-0.02,2.113-0.244,3.009-0.579c30.264-11.337,58.129-26.764,81.656-49.208c24.943-23.794,39.779-52.219,39.648-87.546
	C330.377,159.519,330.52,107.687,330.52,55.856z"/>
<path fill-rule="evenodd" clip-rule="evenodd" fill="#E5E5E5" d="M206.32,127.748c2.312-4.663,5.307-8.438,9.155-11.514
	c14.146-11.298,36.045-11.852,49.864,3.097c6.142,6.643,8.828,14.688,8.61,23.675c-0.25,10.344-4.138,19.485-9.648,28.031
	c-5.341,8.285-12.017,15.446-19.514,21.743c-12.579,10.565-25.425,20.811-38.2,31.226c-3.221-2.489-6.154-4.736-9.067-7.011
	c-11.02-8.602-22.145-17.077-32.403-26.604c-8.045-7.472-15.303-15.583-20.379-25.437c-3.789-7.356-6.255-15.07-6.101-23.438
	c0.291-15.859,10.708-28.776,26.19-32.57c15.346-3.761,32.145,3.037,40.018,16.197C205.303,125.909,205.726,126.696,206.32,127.748z
	"/>
<path fill-rule="evenodd" clip-rule="evenodd" fill="#BCBCBC" d="M215.476,116.234c-3.849,3.075-6.843,6.851-9.155,11.514
	c-0.009-0.015-0.016-0.028-0.024-0.043v96.076c0.099,0.077,0.192,0.148,0.292,0.226c12.775-10.414,25.621-20.66,38.2-31.225
	c7.497-6.297,14.173-13.458,19.514-21.743c5.511-8.546,9.398-17.687,9.648-28.031c0.218-8.987-2.469-17.032-8.61-23.675
	C251.521,104.382,229.621,104.936,215.476,116.234z"/>
</svg>
