<?xml version="1.0" encoding="utf-8"?>
<!-- Generator: Adobe Illustrator 16.0.4, SVG Export Plug-In . SVG Version: 6.00 Build 0)  -->
<!DOCTYPE svg PUBLIC "-//W3C//DTD SVG 1.1//EN" "http://www.w3.org/Graphics/SVG/1.1/DTD/svg11.dtd">
<svg version="1.1" id="Layer_1" xmlns="http://www.w3.org/2000/svg" xmlns:xlink="http://www.w3.org/1999/xlink" x="0px" y="0px"
	 width="265px" height="284px" viewBox="0 0 265 284" enable-background="new 0 0 265 284" xml:space="preserve">
<path fill-rule="evenodd" clip-rule="evenodd" fill="#FFFFFF" d="M149.994,170.057c8.41,3.04,12.85,9.083,17.518,14.924
	c6.776,8.476,6.828,8.434,17.121,9.649c0,4.822,0,9.69,0,15.231C169.211,199.906,158.059,186.884,149.994,170.057z"/>
<path fill-rule="evenodd" clip-rule="evenodd" fill="#FFFFFF" d="M184.369,49.899c1.299,8.112,1.445,14.111-5.139,18.008
	c-0.979,0.579-1.76,1.497-2.613,2.279c-6.564,6.011-6.563,6.012-16.283,1.998C168.364,64.739,175.947,57.707,184.369,49.899z"/>
<circle fill="#E93E3A" cx="131.721" cy="154.988" r="124.037"/>
<path fill-rule="evenodd" clip-rule="evenodd" fill="#C93944" d="M132.471,30.464c-0.08,0-0.16,0.003-0.24,0.003l-5.233,184.192
	l86.328,33.901c26.438-22.747,43.183-56.446,43.183-94.06C256.508,85.997,200.975,30.464,132.471,30.464z"/>
<path fill-rule="evenodd" clip-rule="evenodd" fill="#787878" d="M132.73,197.238c-5.018-9.58-10.572-17.842-7.016-29.323
	c1.626-5.237,0.218-11.784-1.066-17.454c-1.448-6.396-4.293-12.477-6.547-18.688c-4.896-13.491-13.621-19.564-28.104-19.572
	c-6.622-0.004-13.283-0.437-19.855,0.128c-5.949,0.513-10.348-1.444-13.668-6.06c-9.472-13.17-15.559-27.785-0.805-42.414
	c5.25-5.207,10.397-10.713,14.522-16.807c5.076-7.504,11.492-10.081,20.169-9.068c4.407,0.516,8.928,0.09,13.217,0.09
	c0.622,1.366,1.169,2.045,1.222,2.76c1.101,15.245,1.092,15.246,16.896,15.248c11.657,0.001,23.316,0.206,34.962-0.103
	c4.396-0.117,6.618,1.318,8.322,5.377c3.985,9.502,9.036,18.582,12.654,28.208c3.174,8.447,8.055,12.645,17.237,11.136
	c1.457-0.24,3.027,0.201,5.545,0.41c-3.205,5.922-5.527,11.597-9.03,16.409c-8.347,11.456-10.624,23.971-7.551,37.483
	c1.275,5.613-0.681,8.653-5.24,11.611C163.328,176.513,148.305,186.793,132.73,197.238z"/>
<path fill-rule="evenodd" clip-rule="evenodd" fill="#2B2B2B" d="M178.596,166.56c-15.267,9.906-30.29,20.186-45.863,30.63
	c-0.539-1.029-1.623,17.553-1.623,17.553c1.879-0.553,4.073-1.745,6.754-3.535c16.961-11.324,33.549-23.25,50.899-33.937
	c8.817-5.429,11.925-11.655,9.708-21.588c-2.562-11.484-1.035-22.222,6.053-32.337c5.44-7.761,9.511-16.503,13.93-24.945
	c3.777-7.213,1.051-11.835-7.012-12.195c-4.235-0.189-8.512-0.358-12.715,0.032c-5.011,0.465-7.568-1.502-9.5-6.137
	c-4.473-10.744-9.624-21.203-14.346-31.845c-2.186-4.917-5.293-7.032-11.058-6.842c-10.861,0.357-21.74,0.269-32.714,0.201V56.06
	c8.519,0.043,17.038,0.092,25.55-0.133c4.395-0.118,6.618,1.318,8.321,5.376c3.984,9.502,9.036,18.582,12.654,28.208
	c3.174,8.447,8.056,12.644,17.238,11.136c1.456-0.239,3.027,0.201,5.544,0.41c-3.205,5.922-5.527,11.597-9.03,16.409
	c-8.347,11.456-10.624,23.972-7.551,37.483C185.11,160.562,183.156,163.602,178.596,166.56z"/>
<path opacity="0.3" fill-rule="evenodd" clip-rule="evenodd" fill="#787878" d="M207.494,97.232
	c-10.342,1.699-15.839-3.028-19.413-12.542c-4.075-10.841-9.764-21.067-14.252-31.769c-1.919-4.571-4.422-6.188-9.372-6.055
	c-6.828,0.181-13.661,0.204-20.496,0.186v154.574c15.259-10.271,30.125-20.378,45.202-30.161c5.136-3.331,7.338-6.755,5.902-13.077
	c-3.462-15.217-0.896-29.312,8.504-42.214c3.945-5.419,6.561-11.811,10.17-18.48C210.904,97.459,209.136,96.963,207.494,97.232z"/>
<polygon fill-rule="evenodd" clip-rule="evenodd" fill="#5B5B5B" points="138.466,123.444 192.844,140.653 208.382,95.147 
	192.178,90.692 178.485,77.217 167.5,51.163 "/>
<path fill-rule="evenodd" clip-rule="evenodd" fill="#494949" d="M120.039,41.619c14.749,0,29.282,0.319,43.783-0.159
	c5.764-0.189,8.871,1.925,11.058,6.842c4.722,10.642,9.873,21.101,14.346,31.844c1.931,4.635,4.488,6.603,9.5,6.138
	c4.202-0.39,8.479-0.222,12.714-0.032c8.063,0.36,10.79,4.981,7.013,12.195c-4.42,8.442-8.489,17.185-13.93,24.946
	c-7.088,10.115-8.616,20.853-6.052,32.337c2.216,9.933-0.893,16.159-9.709,21.588c-17.352,10.687-33.939,22.613-50.898,33.937
	c-9.404,6.276-12.829,5.228-17.604-5.108c-1.999-4.326-3.513-8.927-5.931-12.994c-5.049-8.49-5.943-16.991-2.987-26.518
	c1.2-3.864,0.326-8.75-0.771-12.86c-1.703-6.368-3.497-13.052-6.987-18.487c-2.466-3.838-7.486-7.352-11.937-8.287
	c-6.604-1.386-13.784-1.007-20.586-0.214c-10.491,1.224-18.321-2.382-24.899-10.351c-12.027-14.569-17.482-30.498-11.098-49.1
	c0.743-2.163,2.294-4.151,3.814-5.927c9.301-10.87,18.431-21.911,28.247-32.302c2.72-2.88,7.471-4.959,11.465-5.293
	c9.213-0.771,18.533-0.265,27.812-0.243c11.442,0.027,12.614,1.198,13.047,12.672C119.504,37.778,119.777,39.304,120.039,41.619z
	 M132.73,197.238c15.574-10.444,30.598-20.725,45.864-30.63c4.56-2.958,6.516-5.998,5.24-11.611
	c-3.073-13.512-0.796-26.027,7.551-37.483c3.503-4.812,5.825-10.487,9.03-16.409c-2.518-0.209-4.088-0.649-5.545-0.41
	c-9.183,1.508-14.063-2.689-17.237-11.136c-3.618-9.626-8.669-18.706-12.654-28.208c-1.704-4.059-3.927-5.494-8.322-5.377
	c-11.646,0.309-23.305,0.104-34.962,0.103C105.892,56.075,105.9,56.075,104.8,40.83c-0.053-0.714-0.6-1.394-1.222-2.76
	c-4.289,0-8.81,0.425-13.217-0.09c-8.677-1.013-15.093,1.564-20.169,9.068c-4.125,6.094-9.272,11.6-14.522,16.807
	c-14.754,14.629-8.667,29.244,0.805,42.414c3.32,4.615,7.719,6.572,13.668,6.06c6.572-0.565,13.233-0.132,19.855-0.128
	c14.482,0.008,23.208,6.081,28.104,19.572c2.254,6.212,5.099,12.293,6.547,18.688c1.284,5.67,2.692,12.217,1.066,17.454
	C122.158,179.396,127.713,187.658,132.73,197.238z"/>
<path fill-rule="evenodd" clip-rule="evenodd" fill="#2B2B2B" d="M211.439,86.19c-4.234-0.189-8.512-0.358-12.714,0.032
	c-5.012,0.465-7.569-1.502-9.5-6.138c-4.473-10.744-9.624-21.202-14.346-31.844c-2.187-4.917-5.294-7.032-11.058-6.842
	c-9.997,0.33-20.011,0.28-30.099,0.217v14.441c7.647,0.038,15.294,0.058,22.934-0.145c4.396-0.117,6.618,1.318,8.322,5.377
	c3.985,9.502,9.036,18.582,12.654,28.208c3.174,8.447,8.055,12.645,17.237,11.136c1.457-0.239,3.027,0.201,5.545,0.41
	c-3.205,5.922-5.527,11.597-9.03,16.409c-8.347,11.456-10.624,23.972-7.551,37.483c1.275,5.613-0.681,8.653-5.24,11.611
	c-14.94,9.694-30.645,20.477-45.864,30.692v16.954c1.243-0.625,3.604-1.979,5.133-2.999c16.959-11.324,33.547-23.25,50.898-33.937
	c8.816-5.429,11.925-11.655,9.709-21.588c-2.564-11.484-1.036-22.222,6.052-32.337c5.44-7.761,9.51-16.503,13.93-24.945
	C222.229,91.172,219.503,86.55,211.439,86.19z"/>
<path fill-rule="evenodd" clip-rule="evenodd" fill="#787878" d="M119.139,46.393c-0.024-10.607,8.731-19.326,19.375-19.292
	c10.634,0.034,19.183,8.566,19.278,19.241c0.095,10.58-8.644,19.35-19.291,19.36C127.854,65.712,119.164,57.045,119.139,46.393z"/>
<path fill-rule="evenodd" clip-rule="evenodd" fill="#E5E5E5" d="M138.452,123.456c-1.325-1.741-2.564-3.329-3.762-4.947
	c-10.146-13.705-19.577-27.86-27.084-43.216c-3.298-6.748-6.189-13.668-7.781-21.036c-4.449-20.591,8.995-41.577,29.565-46.271
	c21.942-5.006,43.194,8.597,47.769,30.64c1.421,6.847,0.875,13.606-1.228,20.281c-3.836,12.178-9.791,23.332-16.395,34.171
	c-6.131,10.06-12.848,19.72-20.028,29.059C139.221,122.51,138.919,122.874,138.452,123.456z M119.139,46.393
	c0.025,10.653,8.716,19.32,19.362,19.31c10.647-0.011,19.386-8.78,19.291-19.36c-0.096-10.675-8.645-19.208-19.278-19.241
	C127.87,27.067,119.114,35.786,119.139,46.393z"/>
<path fill-rule="evenodd" clip-rule="evenodd" fill="#BCBCBC" d="M138.466,6.961v20.14c0.018,0,0.034-0.001,0.053-0.001
	c10.633,0.034,19.182,8.566,19.277,19.241c0.096,10.58-8.644,19.35-19.291,19.36c-0.013,0-0.026-0.001-0.039-0.001v57.744
	c0.46-0.576,0.761-0.938,1.046-1.309c7.182-9.339,13.898-18.999,20.029-29.059c6.604-10.839,12.559-21.993,16.395-34.171
	c2.103-6.674,2.648-13.434,1.229-20.28C173.226,19.648,156.924,6.939,138.466,6.961z"/>
</svg>
