<?xml version="1.0" encoding="utf-8"?>
<!-- Generator: Adobe Illustrator 16.0.4, SVG Export Plug-In . SVG Version: 6.00 Build 0)  -->
<!DOCTYPE svg PUBLIC "-//W3C//DTD SVG 1.1//EN" "http://www.w3.org/Graphics/SVG/1.1/DTD/svg11.dtd">
<svg version="1.1" id="Layer_1" xmlns="http://www.w3.org/2000/svg" xmlns:xlink="http://www.w3.org/1999/xlink" x="0px" y="0px"
	 width="412px" height="426px" viewBox="0 0 412 426" enable-background="new 0 0 412 426" xml:space="preserve">
<circle fill="#E93E3A" cx="207.255" cy="220.508" r="198.677"/>
<path fill-rule="evenodd" clip-rule="evenodd" fill="#C93944" d="M281.544,35.661l-40.415,22.991L188,292l-30.527,20.094
	l162.046,71.801c52.181-35.803,86.413-95.863,86.413-163.926C405.932,136.51,354.466,65.083,281.544,35.661z"/>
<path fill-rule="evenodd" clip-rule="evenodd" fill="#494949" d="M246.66,253.512c0.663,7.645,1.26,14.783,1.909,21.917
	c0.617,6.787,1.15,13.586,2.027,20.341c0.235,1.807,1.253,3.791,2.515,5.122c2.041,2.156,4.61,3.808,6.906,5.731
	c2.778,2.327,2.61,4.11-0.784,5.438c-1.956,0.766-4.184,1.124-6.296,1.157c-20.378,0.317-40.757,0.686-61.135,0.701
	c-10.409,0.008-20.819-0.654-31.227-1.069c-1.047-0.041-2.146-0.325-3.104-0.757c-3.365-1.516-3.578-3.112-0.806-5.447
	c0.916-0.772,1.838-1.549,2.83-2.215c4.322-2.901,6.973-6.333,7.265-12.102c0.65-12.851,2.175-25.658,3.375-38.818
	c-1.794,0-3.209,0-4.623,0c-41.512,0-83.024-0.093-124.536,0.07c-9.542,0.038-16.839-6.058-16.801-16.514
	c0.263-71.265,0.254-142.532-0.011-213.797c-0.032-8.756,5.519-16.446,16.455-16.397c47.87,0.215,95.741,0.092,143.611,0.092
	c63.107,0,126.216-0.004,189.322,0.004c8.809,0.001,14.106,3.331,16.107,10.27c0.486,1.685,0.534,3.538,0.534,5.314
	c0.025,71.626-0.084,143.252,0.148,214.878c0.03,9.521-6.688,16.161-16.434,16.133c-40.791-0.121-81.584-0.052-122.376-0.052
	C250.113,253.512,248.69,253.512,246.66,253.512z M36.812,198.521c113.804,0,227.316,0,340.865,0c0-58.956,0-117.673,0-176.481
	c-113.71,0-227.218,0-340.865,0C36.812,80.928,36.812,139.555,36.812,198.521z"/>
<path fill-rule="evenodd" clip-rule="evenodd" fill="#E5E5E5" d="M36.812,198.521c0-58.965,0-117.592,0-176.481
	c113.647,0,227.155,0,340.865,0c0,58.809,0,117.525,0,176.481C264.129,198.521,150.617,198.521,36.812,198.521z"/>
<path fill-rule="evenodd" clip-rule="evenodd" fill="#C0C0C0" d="M146.762,198.521c67.001,0,163.956,0,230.916,0
	c0-58.956,0-117.673,0-176.481c-39.722,0-109.416,0-149.104,0L146.762,198.521z"/>
<path fill-rule="evenodd" clip-rule="evenodd" fill="#2B2B2B" d="M390.196,22.507c0-1.776-0.048-3.629-0.534-5.314
	c-2.001-6.939-7.299-10.269-16.107-10.27c-49.794-0.006-99.588-0.004-149.383-0.003l-6.988,15.073c53.479,0,106.963,0,160.494,0
	c0,58.809,0,117.525,0,176.481c-80.746,0-161.479,0-242.306,0l-25.482,54.968c18.541,0.007,37.082,0.023,55.623,0.023
	c1.414,0,2.829,0,4.623,0c-1.199,13.16-2.724,25.968-3.375,38.818c-0.292,5.769-2.943,9.2-7.265,12.102
	c-0.992,0.666-1.914,1.442-2.83,2.215c-2.772,2.335-2.56,3.932,0.806,5.447c0.957,0.432,2.057,0.716,3.104,0.757
	c10.407,0.415,20.817,1.077,31.227,1.069c20.378-0.016,40.757-0.384,61.135-0.701c2.112-0.033,4.34-0.392,6.296-1.157
	c3.395-1.328,3.562-3.111,0.784-5.438c-2.296-1.924-4.865-3.575-6.906-5.731c-1.262-1.331-2.279-3.315-2.515-5.122
	c-0.877-6.755-1.41-13.554-2.027-20.341c-0.649-7.134-1.246-14.272-1.909-21.917c2.03,0,3.453,0,4.875,0
	c40.792,0,81.585-0.069,122.376,0.052c9.745,0.028,16.464-6.611,16.434-16.133C390.112,165.759,390.222,94.133,390.196,22.507z"/>
<g>
	<polygon fill="#494949" points="184.003,110.271 230.505,110.271 237.955,97.358 176.557,97.358 	"/>
	<polygon fill="#494949" points="207.278,150.54 218.807,130.563 195.745,130.563 	"/>
	<path fill="#494949" d="M244.943,79.457l-6.719,11.484h-61.885l-6.757-11.484H244.943z M249.571,76.803h-84.632l9.881,16.792
		h64.927L249.571,76.803z"/>
	<polygon fill="#494949" points="193.628,126.891 220.932,126.891 228.403,113.943 186.152,113.943 	"/>
</g>
</svg>
