<?xml version="1.0" encoding="utf-8"?>
<!-- Generator: Adobe Illustrator 16.0.4, SVG Export Plug-In . SVG Version: 6.00 Build 0)  -->
<!DOCTYPE svg PUBLIC "-//W3C//DTD SVG 1.1//EN" "http://www.w3.org/Graphics/SVG/1.1/DTD/svg11.dtd">
<svg version="1.1" id="Layer_1" xmlns="http://www.w3.org/2000/svg" xmlns:xlink="http://www.w3.org/1999/xlink" x="0px" y="0px"
	 width="415px" height="410px" viewBox="0 0 415 410" enable-background="new 0 0 415 410" xml:space="preserve">
<circle fill="#E93E3A" cx="208.255" cy="203.508" r="198.677"/>
<path fill-rule="evenodd" clip-rule="evenodd" fill="#C93944" d="M406.932,203.508c0-33.88-8.489-65.773-23.443-93.685
	C357.087,67.51,343,51.984,296.333,25c-1.733-1.002-34.795,38.104-36.668,37.386c-51.463-19.731-90.26-34.621-119.14-45.704
	c-8.732,3.166-17.175,6.933-25.288,11.24l22.791,26.927l14.294,29.046L99.295,119l29.459,266.625
	c24.346,10.643,51.229,16.561,79.499,16.561C317.98,402.186,406.932,313.234,406.932,203.508z"/>
<path fill-rule="evenodd" clip-rule="evenodd" fill="#494949" d="M333.862,115.805c-5.185-0.245-9.583-2.747-12.176-7.923
	c-2.586-5.159-2.2-10.311,1.219-14.927c7.11-9.604,14.406-19.072,21.631-28.592c2.709-3.57,5.381-7.169,8.162-10.683
	c5.231-6.607,13.882-7.755,20.354-2.77c6.156,4.742,7.423,13.558,2.576,20.037c-9.79,13.088-19.723,26.069-29.64,39.062
	C343.102,113.792,339.247,115.808,333.862,115.805z"/>
<path fill-rule="evenodd" clip-rule="evenodd" fill="#494949" d="M326.802,80.524c-0.644-12.664-10.378-16.577-19.792-20.993
	c2.786-3.729,5.343-7.169,7.921-10.594c5.388-7.158,10.749-14.337,16.194-21.451c3.713-4.849,8.729-6.82,14.659-5.511
	c5.928,1.31,9.66,5.205,10.954,11.174c0.879,4.052,0.102,7.919-2.388,11.252c-8.776,11.753-17.628,23.449-26.461,35.16
	C327.694,79.822,327.396,80.004,326.802,80.524z"/>
<path fill-rule="evenodd" clip-rule="evenodd" fill="#2B2B2B" d="M365.064,129.446c-4.861-0.229-9.174-2.53-11.877-7.407
	c-2.75-4.963-2.778-10.133,0.458-14.729c5.766-8.186,11.769-16.219,17.983-24.069c4.771-6.026,13.244-6.798,19.42-2.262
	c5.927,4.354,7.836,12.909,3.587,19.048c-5.798,8.375-12.029,16.457-18.268,24.515C373.767,127.902,369.999,129.398,365.064,129.446
	z"/>
<path fill-rule="evenodd" clip-rule="evenodd" fill="#494949" d="M277.146,44.34c7.539-9.884,14.755-19.737,22.408-29.237
	c4.867-6.042,13.313-6.615,19.431-1.983c5.774,4.373,7.618,12.824,3.41,18.877c-5.812,8.359-12.153,16.351-18.364,24.426
	c-0.348,0.452-1.74,0.579-2.357,0.273C293.584,52.698,285.547,48.595,277.146,44.34z"/>
<path fill-rule="evenodd" clip-rule="evenodd" fill="#494949" d="M173.405,81.385c-3.75-9.828-7.938-19.508-12.373-29.051
	c-3.738-8.046-12.221-10.96-20.208-7.052c-13.565,6.638-27.039,13.47-40.447,20.419c-7.706,3.994-10.382,13.061-6.432,20.55
	c3.886,7.365,12.697,10.104,20.408,6.247c8.635-4.318,17.226-8.727,25.997-13.179c0.729,1.72,1.41,3.326,2.184,5.154
	c-3.327,1.463-6.58,2.942-9.87,4.332c-12.373,5.227-23.506,12.263-32.57,22.306c-3.614,4.006-6.732,8.325-8.021,14.09
	c-7.805-4.422-15.762-8.039-24.396-10.295c-1.651,8.508-6.206,14.196-14.513,15.901c-8.146,1.672-14.602-1.542-19.34-8.363
	c-0.273,0.081-0.548,0.161-0.822,0.242c0.756,4.57,1.057,9.274,2.353,13.686c3.95,13.448,11.47,24.962,20.196,35.775
	c0.886,1.097,1.523,2.775,1.498,4.17c-0.232,12.939-0.507,88.765-0.793,155.119c27.086,32.149,64.177,55.589,106.482,65.505
	c-4.724-40.224-24.445-208.703-27.128-229.103c-0.598-4.551,0.705-7.652,3.243-11.188c10.498-14.625,20.761-29.422,30.886-44.309
	c3.573-5.253,6.482-11.086,6.17-17.639C175.694,90.218,174.994,85.548,173.405,81.385z"/>
<path fill-rule="evenodd" clip-rule="evenodd" fill="#494949" d="M81.312,113.79c5.185-0.245,9.583-2.747,12.176-7.923
	c2.586-5.159,2.2-10.311-1.219-14.927c-7.11-9.604-14.406-19.072-21.631-28.592c-2.709-3.57-5.381-7.169-8.162-10.683
	c-5.231-6.607-13.882-7.755-20.354-2.77c-6.156,4.742-7.423,13.558-2.576,20.037C49.336,82.02,59.269,95,69.186,107.994
	C72.072,111.777,75.927,113.792,81.312,113.79z"/>
<path fill-rule="evenodd" clip-rule="evenodd" fill="#494949" d="M88.372,78.509c0.644-12.664,10.378-16.577,19.792-20.993
	c-2.786-3.729-5.343-7.169-7.921-10.594c-5.388-7.158-10.749-14.337-16.194-21.451c-3.713-4.849-8.729-6.82-14.659-5.511
	c-5.928,1.31-9.66,5.205-10.954,11.174c-0.879,4.052-0.102,7.919,2.388,11.252C69.6,54.14,78.451,65.836,87.284,77.547
	C87.479,77.807,87.777,77.989,88.372,78.509z"/>
<path fill-rule="evenodd" clip-rule="evenodd" fill="#494949" d="M50.109,127.431c4.861-0.229,9.174-2.53,11.877-7.407
	c2.75-4.963,2.778-10.133-0.458-14.729c-5.766-8.186-11.769-16.219-17.983-24.069c-4.771-6.026-13.244-6.798-19.42-2.262
	c-5.927,4.354-7.836,12.909-3.587,19.048c5.798,8.375,12.029,16.457,18.268,24.515C41.407,125.887,45.175,127.383,50.109,127.431z"
	/>
<path fill-rule="evenodd" clip-rule="evenodd" fill="#494949" d="M138.028,42.325c-7.539-9.884-14.755-19.737-22.408-29.237
	c-4.867-6.042-13.313-6.615-19.431-1.983c-5.774,4.373-7.618,12.824-3.41,18.877c5.812,8.359,12.153,16.351,18.364,24.426
	c0.348,0.452,1.74,0.579,2.357,0.273C121.59,50.683,129.627,46.58,138.028,42.325z"/>
<path fill-rule="evenodd" clip-rule="evenodd" fill="#494949" d="M252.445,397.437c42.078-9.604,79.066-32.565,106.273-64.188
	c-0.285-66.25-0.559-141.773-0.791-154.685c-0.025-1.395,0.612-3.073,1.498-4.17c8.727-10.812,16.246-22.327,20.196-35.775
	c1.296-4.412,1.597-9.116,2.353-13.686c-0.274-0.081-0.549-0.161-0.822-0.242c-4.738,6.821-11.193,10.035-19.34,8.363
	c-8.307-1.705-12.861-7.393-14.513-15.901c-8.634,2.256-16.591,5.874-24.396,10.295c-1.289-5.765-4.407-10.084-8.021-14.09
	c-9.064-10.043-20.197-17.08-32.57-22.306c-3.29-1.39-6.543-2.869-9.87-4.332c0.773-1.828,1.454-3.434,2.184-5.154
	c8.771,4.452,17.362,8.861,25.997,13.179c7.711,3.857,16.522,1.119,20.408-6.247c3.95-7.49,1.274-16.556-6.432-20.55
	C301.191,61,287.718,54.168,274.152,47.53c-7.987-3.908-16.47-0.994-20.208,7.052c-4.435,9.543-8.623,19.223-12.373,29.051
	c-1.589,4.164-2.289,8.833-2.503,13.315c-0.312,6.553,2.597,12.386,6.17,17.639c10.125,14.887,20.388,29.684,30.886,44.309
	c2.538,3.536,3.841,6.638,3.243,11.188C276.721,190.201,257.509,354.301,252.445,397.437z"/>
<path fill-rule="evenodd" clip-rule="evenodd" fill="#2B2B2B" d="M150.212,290.352l0.01,0.005l-1.591-13.49l-0.895-7.581
	l-1.016-8.645c-0.001-0.014-0.003-0.027-0.005-0.041h-0.004l-2.608-22.105L61.5,244.5l44.965,23.24l1.699,107.426
	c13.454,6.684,39.601,18.264,54.574,21.773L150.212,290.352z"/>
<path fill-rule="evenodd" clip-rule="evenodd" fill="#2B2B2B" d="M358.719,333.249c-0.125-28.983-0.247-59.74-0.365-86.255
	l-82.378-3l42.17,27.993l0.904,96.542C333.8,358.574,347.146,346.699,358.719,333.249z"/>
<path fill-rule="evenodd" clip-rule="evenodd" fill="#2B2B2B" d="M361.812,133.055c-8.307-1.705-12.861-7.393-14.513-15.901
	c-8.634,2.256-16.591,5.874-24.396,10.295c-0.173-0.772-0.384-1.515-0.619-2.239l-2.281,118.783h38.336
	c-0.146-32.672-0.285-58.382-0.412-65.43c-0.025-1.395,0.612-3.073,1.498-4.17c8.727-10.812,16.246-22.327,20.196-35.775
	c1.296-4.412,1.597-9.116,2.353-13.686c-0.274-0.081-0.549-0.161-0.822-0.242C376.414,131.513,369.959,134.727,361.812,133.055z"/>
<path fill-rule="evenodd" clip-rule="evenodd" fill="#2B2B2B" d="M135.609,167.837c-0.598-4.551,0.705-7.652,3.243-11.188
	c10.498-14.625,20.761-29.422,30.886-44.309c3.573-5.253,6.482-11.086,6.17-17.639c-0.214-4.482-0.914-9.152-2.503-13.315
	c-2.441-6.397-5.082-12.725-7.841-18.999l-65.546,30.061c4.218,2.292,9.493,2.474,14.335,0.052
	c8.635-4.318,17.226-8.727,25.997-13.179c0.729,1.72,1.41,3.326,2.184,5.154c-3.327,1.463-6.58,2.942-9.87,4.332
	c-12.373,5.227-23.506,12.263-32.57,22.306c-3.458,3.833-6.443,7.966-7.825,13.364V201h47.381
	C137.684,184.546,136.214,172.43,135.609,167.837z"/>
<g>
	<path fill="#636363" d="M171.367,278.83l-13.117-11.006c-7.018-5.889-7.937-16.389-2.048-23.405
		c5.888-7.018,16.388-7.938,23.404-2.049l13.119,11.006c7.017,5.889,7.936,16.388,2.047,23.405
		C188.886,283.8,178.386,284.718,171.367,278.83z M173.998,249.055c-3.331-2.794-8.315-2.357-11.11,0.973
		c-2.795,3.331-2.358,8.315,0.972,11.111l13.117,11.005c3.332,2.796,8.316,2.36,11.11-0.972c2.796-3.331,2.359-8.314-0.972-11.11
		L173.998,249.055z"/>
	<path fill="#636363" d="M222.76,276.197c-5.8-6.91-4.895-17.248,2.015-23.046l12.918-10.838c6.909-5.798,17.249-4.893,23.046,2.018
		c5.799,6.909,4.894,17.249-2.018,23.047l-12.916,10.837C238.895,284.012,228.557,283.108,222.76,276.197z M230.299,259.734
		c-3.279,2.752-3.71,7.66-0.957,10.939c2.751,3.281,7.659,3.71,10.939,0.957l12.916-10.836c3.28-2.754,3.709-7.661,0.959-10.941
		c-2.753-3.279-7.661-3.709-10.941-0.957L230.299,259.734z"/>
	<path fill-rule="evenodd" clip-rule="evenodd" fill="#787878" d="M162.589,240.5c0,3.866-3.134,7-7,7H43.002c-3.866,0-7-3.134-7-7
		v-47c0-3.866,3.134-7,7-7h112.587c3.866,0,7,3.134,7,7V240.5z"/>
	<path fill-rule="evenodd" clip-rule="evenodd" fill="#787878" d="M381.297,240.5c0,3.866-3.134,7-7,7H261.71c-3.866,0-7-3.134-7-7
		v-47c0-3.866,3.134-7,7-7h112.587c3.866,0,7,3.134,7,7V240.5z"/>
	<path fill="#515151" d="M232.96,268.312c0,3.118-2.432,5.646-5.433,5.646h-40.095c-3.001,0-5.433-2.527-5.433-5.646l0,0
		c0-3.118,2.432-5.646,5.433-5.646h40.095C230.528,262.667,232.96,265.194,232.96,268.312L232.96,268.312z"/>
	<path fill-rule="evenodd" clip-rule="evenodd" fill="#656565" d="M374.815,186.5h-54.293v61h54.293c3.866,0,7-3.134,7-7v-47
		C381.815,189.634,378.682,186.5,374.815,186.5z"/>
	<path fill-rule="evenodd" clip-rule="evenodd" fill="#656565" d="M155.589,186.5h-54.293v61h54.293c3.866,0,7-3.134,7-7v-47
		C162.589,189.634,159.455,186.5,155.589,186.5z"/>
</g>
<path fill-rule="evenodd" clip-rule="evenodd" fill="#2B2B2B" d="M345.988,110.009c9.917-12.993,19.85-25.974,29.64-39.062
	c4.503-6.019,3.722-14.05-1.347-18.962l-54.27,49.004c-0.043,2.265,0.514,4.579,1.675,6.894c2.593,5.176,6.991,7.678,12.176,7.923
	C339.247,115.808,343.102,113.792,345.988,110.009z"/>
</svg>
