<?xml version="1.0" encoding="utf-8"?>
<!-- Generator: Adobe Illustrator 16.0.4, SVG Export Plug-In . SVG Version: 6.00 Build 0)  -->
<!DOCTYPE svg PUBLIC "-//W3C//DTD SVG 1.1//EN" "http://www.w3.org/Graphics/SVG/1.1/DTD/svg11.dtd">
<svg version="1.1" id="Layer_1" xmlns="http://www.w3.org/2000/svg" xmlns:xlink="http://www.w3.org/1999/xlink" x="0px" y="0px"
	 width="51px" height="42px" viewBox="0 0 51 42" enable-background="new 0 0 51 42" xml:space="preserve">
<g id="VYlHpx_1_">
	<g>
		<path fill="none" d="M25.32,4.899c-0.486-0.405-1.093-0.948-1.738-1.44c-2.58-1.967-5.442-3.328-8.791-3.412
			C9.909-0.075,6.095,2.125,3.086,5.579c-3.188,3.656-3.648,7.998-2.549,12.507c0.99,4.07,3.466,7.354,6.375,10.346
			c5.029,5.172,11.145,9.038,17.105,13.082c1.004,0.682,2.119,0.635,3.117-0.062c3.781-2.646,7.607-5.231,11.288-8.001
			c3.88-2.914,7.363-6.228,9.911-10.351c2.03-3.276,2.972-6.805,2.572-10.611c-0.448-4.228-2.674-7.439-6.252-9.839
			c-4.284-2.876-8.857-3.563-13.616-1.303C29.046,2.293,27.272,3.668,25.32,4.899z"/>
		<path fill="#F60F0F" d="M25.32,4.899c1.952-1.231,3.726-2.606,5.72-3.552c4.757-2.26,9.33-1.574,13.618,1.301
			c3.576,2.399,5.803,5.609,6.251,9.838c0.4,3.809-0.536,7.335-2.57,10.613c-2.548,4.121-6.033,7.433-9.911,10.351
			c-3.683,2.768-7.508,5.354-11.288,8c-1,0.697-2.115,0.745-3.117,0.063c-5.963-4.048-12.078-7.91-17.106-13.082
			c-2.911-2.992-5.384-6.278-6.375-10.347C-0.559,13.576-0.097,9.232,3.09,5.577c3.008-3.453,6.823-5.652,11.703-5.53
			c3.35,0.084,6.211,1.446,8.791,3.412C24.228,3.951,24.834,4.494,25.32,4.899z M25.46,36.148c0.121-0.052,0.211-0.07,0.276-0.116
			c3.647-2.634,7.365-5.179,10.911-7.936c3.066-2.388,5.787-5.146,7.575-8.604c2.567-4.979,1.957-10.434-4.091-13.42
			c-2.013-0.992-4.081-1.103-6.188-0.312c-2.495,0.938-4.388,2.617-6.026,4.589c-1.471,1.771-3.297,1.751-4.786,0.021
			c-0.884-1.028-1.86-2.02-2.938-2.857C15.121,3.557,8.192,5.253,5.99,10.97c-0.935,2.419-0.747,4.854,0.227,7.228
			c1.403,3.424,3.872,6.1,6.613,8.577C16.73,30.297,21.127,33.197,25.46,36.148z"/>
		<path fill="none" d="M25.46,36.148c-4.333-2.951-8.729-5.852-12.63-9.373c-2.74-2.478-5.21-5.153-6.613-8.577
			C5.241,15.824,5.055,13.39,5.99,10.97c2.203-5.717,9.131-7.413,14.204-3.46c1.077,0.838,2.052,1.831,2.938,2.858
			c1.491,1.732,3.315,1.751,4.786-0.021c1.639-1.972,3.531-3.652,6.026-4.589c2.107-0.792,4.176-0.683,6.188,0.311
			c6.048,2.987,6.658,8.441,4.091,13.42c-1.788,3.456-4.509,6.217-7.575,8.604c-3.546,2.755-7.264,5.3-10.911,7.938
			C25.671,36.078,25.581,36.097,25.46,36.148z"/>
	</g>
</g>
</svg>
