<?xml version="1.0" encoding="utf-8"?>
<!-- Generator: Adobe Illustrator 16.0.4, SVG Export Plug-In . SVG Version: 6.00 Build 0)  -->
<!DOCTYPE svg PUBLIC "-//W3C//DTD SVG 1.1//EN" "http://www.w3.org/Graphics/SVG/1.1/DTD/svg11.dtd">
<svg version="1.1" id="Layer_1" xmlns="http://www.w3.org/2000/svg" xmlns:xlink="http://www.w3.org/1999/xlink" x="0px" y="0px"
	 width="233px" height="233px" viewBox="0 0 233 233" enable-background="new 0 0 233 233" xml:space="preserve">
<circle fill-rule="evenodd" clip-rule="evenodd" fill="#F4F4F4" cx="116.5" cy="116.5" r="116.5"/>
<path fill-rule="evenodd" clip-rule="evenodd" fill="#D7D7D7" d="M85.257,117.191c3.472,3.26,6.537,6.586,10.044,9.352
	c14.287,11.265,30.439,10.737,44.092-1.329c2.52-2.228,4.721-4.813,7.163-7.136c0.448-0.426,1.504-0.725,2.018-0.496
	c14.964,6.666,27.555,16.235,36.437,30.228c2.459,3.873,4.254,8.034,5.055,12.615c0.968,5.537-0.485,10.444-3.618,14.93
	c-3.791,5.428-8.992,9.227-14.711,12.373c-10.146,5.583-21.116,8.633-32.469,10.479c-11.79,1.918-23.653,2.303-35.526,1.215
	c-16.503-1.513-32.474-5.024-46.599-14.277c-3.023-1.98-5.828-4.433-8.318-7.062c-6.844-7.223-7.843-15.521-3.824-24.52
	c4.875-10.916,12.922-19.141,22.332-26.175C72.971,123.174,79.051,119.717,85.257,117.191z"/>
<path fill-rule="evenodd" clip-rule="evenodd" fill="#D7D7D7" d="M119.473,32.979c15.479-0.001,32.02,12.671,36.33,31.151
	c2.48,10.637,0.608,20.78-3.326,30.682c-3.817,9.608-9.229,18.172-17.388,24.708c-12.801,10.254-26.783,9.775-38.847-1.396
	c-10.741-9.947-16.929-22.399-19.468-36.73c-2.022-11.418,0.162-21.982,7.003-31.361C91.398,39.583,101.552,32.979,119.473,32.979z"
	/>
</svg>
