<?xml version="1.0" encoding="utf-8"?>
<!-- Generator: Adobe Illustrator 16.0.4, SVG Export Plug-In . SVG Version: 6.00 Build 0)  -->
<!DOCTYPE svg PUBLIC "-//W3C//DTD SVG 1.1//EN" "http://www.w3.org/Graphics/SVG/1.1/DTD/svg11.dtd">
<svg version="1.1" id="Layer_1" xmlns="http://www.w3.org/2000/svg" xmlns:xlink="http://www.w3.org/1999/xlink" x="0px" y="0px"
	 width="792px" height="612px" viewBox="0 0 792 612" enable-background="new 0 0 792 612" xml:space="preserve">
<path fill-rule="evenodd" clip-rule="evenodd" fill="none" stroke="#3FBC9D" stroke-width="14" stroke-miterlimit="10" d="
	M471.593,479.696c-33.943-0.783-64.661-11.674-93.559-28.5c-34.173-19.897-62.998-46.181-89.297-75.415
	c-20.227-22.483-38.179-46.604-51.963-73.628c-14.637-28.696-24.025-58.786-22.717-91.41c1.143-28.512,9.716-54.225,30.09-75.077
	c12.534-12.828,27.517-16.274,43.832-9.009c27.079,12.058,44.876,33.284,55.687,60.42c3.52,8.834,1.612,18.137-3.538,25.849
	c-6.905,10.339-14.937,19.925-22.427,29.877c-3.897,5.178-8.033,10.227-11.412,15.73c-4.724,7.695-5.39,16.135,0.235,23.463
	c11.736,15.291,23.342,30.798,36.38,44.943c17.48,18.965,35.992,37.015,54.668,54.819c5.365,5.114,12.421,9.148,19.422,11.694
	c11.314,4.115,20.887-1.372,28.877-9.031c7.922-7.594,15.222-15.836,22.771-23.816c10.337-10.928,22.429-18.314,37.996-15.381
	c6.837,1.287,13.63,4.439,19.663,8.049c15.74,9.416,28.709,22.068,39.852,36.627c6.211,8.115,7.318,17.092,4.096,26.451
	c-9.348,27.159-27.521,45.854-54.668,55.49c-5.926,2.104-12.06,3.885-18.246,4.921C488.828,478.188,480.18,478.76,471.593,479.696z"
	/>
</svg>
