<?xml version="1.0" encoding="utf-8"?>
<!-- Generator: Adobe Illustrator 16.0.4, SVG Export Plug-In . SVG Version: 6.00 Build 0)  -->
<!DOCTYPE svg PUBLIC "-//W3C//DTD SVG 1.1//EN" "http://www.w3.org/Graphics/SVG/1.1/DTD/svg11.dtd">
<svg version="1.1" id="Layer_1" xmlns="http://www.w3.org/2000/svg" xmlns:xlink="http://www.w3.org/1999/xlink" x="0px" y="0px"
	 width="792px" height="612px" viewBox="0 0 792 612" enable-background="new 0 0 792 612" xml:space="preserve">
<path fill-rule="evenodd" clip-rule="evenodd" fill="none" stroke="#000000" stroke-width="9" stroke-miterlimit="10" d="
	M418.044,316.516c16.771,12.84,28.882,29.087,33.241,50.153c4.87,23.531-1.703,44.297-16.444,62.753
	c-3.04,3.808-6.424,7.414-10.056,10.656c-3.535,3.157-5.184,6.914-5.227,11.44c-0.074,8.018,0.109,16.038,0.011,24.056
	c-0.038,3.101-0.277,6.252-0.903,9.281c-1.3,6.283-4.889,8.522-10.982,6.643c-3.859-1.191-7.595-2.913-11.202-4.757
	c-7.97-4.07-15.785-8.439-23.737-12.546c-5.047-2.607-10.24-3.376-16.1-2.497c-41.492,6.218-80.406-0.057-114.742-25.62
	c-17.282-12.867-29.51-29.519-33.784-51.125c-4.606-23.282,1.798-43.863,16.467-61.943c18.432-22.717,43.185-35.041,71.23-41.029
	C339.038,282.114,392.03,296.599,418.044,316.516z"/>
</svg>
