<?xml version="1.0" encoding="utf-8"?>
<!-- Generator: Adobe Illustrator 16.0.4, SVG Export Plug-In . SVG Version: 6.00 Build 0)  -->
<!DOCTYPE svg PUBLIC "-//W3C//DTD SVG 1.1//EN" "http://www.w3.org/Graphics/SVG/1.1/DTD/svg11.dtd">
<svg version="1.1" id="Layer_1" xmlns="http://www.w3.org/2000/svg" xmlns:xlink="http://www.w3.org/1999/xlink" x="0px" y="0px"
	 width="397.604px" height="468.43px" viewBox="0 0 397.604 468.43" enable-background="new 0 0 397.604 468.43"
	 xml:space="preserve">
<g>
	<circle fill="#3FBC9D" cx="198.677" cy="269.752" r="198.677"/>
	<path fill-rule="evenodd" clip-rule="evenodd" fill="#29A585" d="M134.443,335.618l138.161,118.594
		C338.469,427,397.604,360.033,397.604,269.593c0-71.046-47.803-176.386-172.469-198.518L134.443,335.618z"/>
	<path fill-rule="evenodd" clip-rule="evenodd" fill="#FFFFFF" d="M273.774,167.718c0-8.272-0.285-15.037,0.064-21.769
		c0.59-11.348-4.812-18.811-14.755-23.101c-10.39-4.482-20.471-3.308-28.657,4.687c-3.832,3.742-6.135,9.051-8.798,13.14
		c0.769-7.115,1.601-15.268,2.534-23.409c2.846-24.792,5.752-49.578,8.592-74.371c2.14-18.678-0.77,0.639,1.31-18.045
		c1.425-12.802-7.396-23.456-20.431-24.748c-11.988-1.189-22.389,8.011-24.076,20.294c-3.053,22.231-1.607,6.394-5.01,28.576
		c-4.26,27.771-15.527,88.223-16.101,90.203c-1.75-3.416-4.231-7.344-5.415-9.846c-3.582-7.571-7.016-15.375-9.129-23.45
		c-9.343-35.672-12.167-42.479-21.258-78.218c-2.84-11.163-15.121-18.431-26.47-15.893c-11.972,2.678-19.483,13.834-17.218,26.463
		c6.629,36.964,7.496,44.887,14.258,81.828c4.486,24.508,8.952,49.02,13.371,73.221c-4.885,3.717-9.707,6.981-14.062,10.782
		c-10.985,9.589-16.186,21.551-12.789,36.135c4.437,19.049,7.399,38.551,16.017,56.413c17.553,36.385,45.666,59.096,86.281,63.58
		c62.674,6.918,111.581-30.777,125.527-87.73c2.154-8.798,3.043-18.076,3.215-27.157c0.393-20.821,0.345-41.669-0.311-62.48
		c-0.213-6.771-1.874-13.909-4.645-20.083c-3.613-8.05-10.988-11.68-20.02-11.38c-8.903,0.295-15.564,4.227-19.882,12.047
		C275.396,164.358,274.949,165.35,273.774,167.718z"/>
	<path fill="#D1D1D1" d="M320.466,182.883c-0.144-4.591-0.964-9.346-2.336-13.858c-0.505,0.983-0.969,1.982-1.411,2.989
		c0.938,1.237,1.274,2.915,0.518,4.91c-5.229,13.784-12.525,26.712-17.306,40.662c-1.775,12.429-7.195,25.235-21.795,25.396
		c-0.931,0.01-1.757-0.181-2.479-0.513c-8.126,2.451-16.484-3.84-18.285-12.909c-0.282-1.42-0.423-2.842-0.448-4.262
		c-0.894,0.644-2.042,1.036-3.455,1.018c-2.134-0.028-4.255-0.178-6.371-0.383c-0.296,0.679-0.749,1.343-1.399,1.964
		c-2.923,2.793-6.477,5.255-10.264,6.701c-3.893,1.486-6.505-0.028-9.443-1.648c-0.924,0.061-14.041-1.991-15.022-2.033
		c-2.005-0.084-9.288-13.506-10.25-14.75c-1.062-0.11-21.553,15.055-22.584,14.708c-1.066-0.358,16.182,13.177,15.542,12.5l9.114,9
		l87.84,72.103c15.504-14.811,25.021-44.159,26.931-51.958c2.154-8.798,3.043-18.076,3.215-27.156
		C321.169,224.542,321.121,203.694,320.466,182.883z"/>
	<path fill="#29A585" d="M277.303,248.818c-14.254,0-25.851-11.597-25.851-25.851c0-4.091,0.983-8.163,2.847-11.792l17.746-48.135
		c3.452-10.725,13.33-17.924,24.608-17.924c14.254,0,25.851,11.597,25.851,25.851c0,3.545-0.71,6.986-2.109,10.231l-17.8,47.126
		C300.086,240.218,289.498,248.818,277.303,248.818z M296.653,152.117c-8.244,0-15.463,5.275-17.963,13.125l-0.051,0.149
		l-17.928,48.627l-0.106,0.202c-1.429,2.72-2.153,5.663-2.153,8.748c0,10.394,8.456,18.851,18.851,18.851
		c8.966,0,16.74-6.372,18.486-15.152l0.158-0.554l17.994-47.626c1.037-2.382,1.562-4.911,1.562-7.519
		C315.504,160.573,307.048,152.117,296.653,152.117z"/>
	<path fill="#29A585" d="M229.273,239.236c-16.532,0-29.982-13.45-29.982-29.982c0-3.194,0.508-6.353,1.509-9.391l18.454-60.359
		c2.424-14.502,14.818-25.001,29.566-25.001c16.532,0,29.982,13.45,29.982,29.983c0,3.822-0.716,7.553-2.127,11.093l-18.736,62.482
		C254.037,230.736,242.521,239.236,229.273,239.236z M248.82,121.502c-11.369,0-20.913,8.137-22.693,19.347l-0.11,0.475
		l-18.546,60.658c-0.79,2.402-1.18,4.824-1.18,7.272c0,12.672,10.31,22.982,22.982,22.982c10.155,0,18.983-6.515,21.969-16.211
		l18.821-62.766l0.062-0.152c1.113-2.748,1.678-5.648,1.678-8.622C271.803,131.812,261.493,121.502,248.82,121.502z"/>
	<path fill="#FFFFFF" d="M144.04,460.819c17.359,4.955,35.688,7.61,54.637,7.61c27.161,0,53.045-5.457,76.626-15.323V334H144.04
		V460.819z"/>
	<path fill="#D1D1D1" d="M192.034,360.691c-9.32-1.029-17.975-3.029-26.001-5.923l109.27,70.731v-86.374
		C253.185,355.91,224.452,364.27,192.034,360.691z"/>
	<path fill="#29A585" d="M202.791,252.375c-14.614-14.75-46.137-20.371-47.927-20.25c0,0,39.204-9.104,39.688-19.25
		c0.366-6.747-0.836-11.554-5.342-15.421c-7.942-6.817-23.654-7.598-45.589-8.045c-20.069-0.409-26.889,3.838-27.034,3.873
		c0,0,9.014-9.61,26.539-10.855c24.099-1.712,41.139,1.558,50.644,9.715c6.416,5.506,9.282,13.067,8.521,22.474l-0.055,0.676
		l-0.303,0.606c-0.239,0.478-8.723,9.294-23.798,14.977C193.447,236.236,202.791,252.375,202.791,252.375z"/>
</g>
</svg>
