<?xml version="1.0" encoding="utf-8"?>
<!-- Generator: Adobe Illustrator 16.0.4, SVG Export Plug-In . SVG Version: 6.00 Build 0)  -->
<!DOCTYPE svg PUBLIC "-//W3C//DTD SVG 1.1//EN" "http://www.w3.org/Graphics/SVG/1.1/DTD/svg11.dtd">
<svg version="1.1" id="Layer_1" xmlns="http://www.w3.org/2000/svg" xmlns:xlink="http://www.w3.org/1999/xlink" x="0px" y="0px"
	 width="161px" height="179px" viewBox="0 0 161 179" enable-background="new 0 0 161 179" xml:space="preserve">
<ellipse fill="#3EBC9C" cx="80.449" cy="98.702" rx="80.449" ry="80.298"/>
<path fill-rule="evenodd" clip-rule="evenodd" fill="#29A484" d="M35.152,117.956l67.896,57.793
	C136.529,166.034,161,135.19,161,98.638c0-28.715-15.104-53.904-37.811-68.099L35.152,117.956z"/>
<path fill-rule="evenodd" clip-rule="evenodd" fill="#29A484" d="M25.609,99.054l27.495,23.947l4.454-93.277H39.165
	c-4.878,2.917-9.42,6.336-13.556,10.185V99.054z"/>
<g>
	<path fill="#FFFFFF" d="M126.514,116.8c0,0.805-0.654,1.456-1.459,1.456h-89.21c-0.805,0-1.458-0.651-1.458-1.456V1.455
		C34.387,0.651,35.04,0,35.844,0h89.21c0.805,0,1.459,0.651,1.459,1.455V116.8z"/>
	<path fill="#3EBC9C" d="M115.469,11.975c0,0.708-0.574,1.283-1.285,1.283H46.267c-0.709,0-1.285-0.575-1.285-1.283l0,0
		c0-0.708,0.576-1.283,1.285-1.283h67.917C114.895,10.692,115.469,11.267,115.469,11.975L115.469,11.975z"/>
	<path fill="#3EBC9C" d="M115.469,20.956c0,0.709-0.574,1.283-1.285,1.283H46.267c-0.709,0-1.285-0.574-1.285-1.283l0,0
		c0-0.708,0.576-1.283,1.285-1.283h67.917C114.895,19.673,115.469,20.248,115.469,20.956L115.469,20.956z"/>
	<path fill="#3EBC9C" d="M115.469,31.007c0,0.709-0.574,1.283-1.285,1.283H46.267c-0.709,0-1.285-0.574-1.285-1.283l0,0
		c0-0.708,0.576-1.283,1.285-1.283h67.917C114.895,29.724,115.469,30.298,115.469,31.007L115.469,31.007z"/>
	<path fill="#3EBC9C" d="M115.469,39.988c0,0.709-0.574,1.283-1.285,1.283H46.267c-0.709,0-1.285-0.574-1.285-1.283l0,0
		c0-0.708,0.576-1.283,1.285-1.283h67.917C114.895,38.706,115.469,39.28,115.469,39.988L115.469,39.988z"/>
	<path fill="#3EBC9C" d="M115.469,50.039c0,0.708-0.574,1.283-1.285,1.283H46.267c-0.709,0-1.285-0.575-1.285-1.283l0,0
		c0-0.708,0.576-1.283,1.285-1.283h67.917C114.895,48.756,115.469,49.331,115.469,50.039L115.469,50.039z"/>
	<path fill="#3EBC9C" d="M115.469,59.02c0,0.709-0.574,1.283-1.285,1.283H46.267c-0.709,0-1.285-0.574-1.285-1.283l0,0
		c0-0.708,0.576-1.283,1.285-1.283h67.917C114.895,57.737,115.469,58.312,115.469,59.02L115.469,59.02z"/>
	<polygon fill="#797979" points="112.375,131.043 102.303,118.918 92.23,131.043 93.85,98.702 110.756,98.702 	"/>
	<g>
		<path fill-rule="evenodd" clip-rule="evenodd" fill="#3EBC9C" d="M84.006,97.251c0.299-0.688,1.066-1.071,1.771-1.198
			c0.125-0.022,0.262-0.042,0.398-0.062c-0.082-0.096-0.17-0.18-0.26-0.251c-0.988,0.009-1.977,0.021-2.965,0.034
			c-1.65,0.023-3.233-0.248-4.795-0.783c-0.62-0.213-1.33-0.293-1.985-0.246c-0.753,0.055-1.285-0.106-1.747-0.727
			c-0.513-0.688-1.041-0.801-1.851-0.48c-0.428,0.17-0.868,0.374-1.218,0.665c-1.125,0.937-2.22,1.911-3.307,2.892
			c-0.714,0.645-1.395,1.328-2.153,2.054c0.038-0.491,0.001-0.944,0.116-1.355c0.437-1.563,0.847-3.14,1.407-4.66
			c1.003-2.72,2.132-5.393,3.154-8.106c0.283-0.75,0.452-1.564,0.527-2.363c0.091-0.974-0.445-1.261-1.311-0.764
			c-0.87,0.5-1.532,1.211-1.943,2.13c-0.797,1.78-1.492,3.611-2.389,5.339c-0.938,1.808-1.965,3.587-3.129,5.257
			c-1.617,2.321-3.567,4.375-5.793,6.291c0.246-0.041,0.382-0.064,0.635-0.107c-0.411,0.35-0.722,0.615-1.034,0.881
			c3.64-1.595,6.035-4.581,8.549-7.485c-0.224,0.701-0.467,1.396-0.667,2.104c-0.382,1.355-1.009,2.651-0.907,4.123
			c0.064,0.928,0.342,1.142,1.237,0.801c1.626-0.617,2.934-1.691,4.149-2.895c0.974-0.965,1.937-1.94,2.925-2.931
			c0.157,0.136,0.306,0.22,0.392,0.347c0.489,0.718,1.172,0.877,2.005,0.859c0.684-0.016,1.394,0.083,2.053,0.27
			c1.445,0.41,2.894,0.631,4.404,0.594c1.225-0.031,2.447-0.053,3.672-0.072C83.967,97.353,83.984,97.302,84.006,97.251z"/>
		<path fill-rule="evenodd" clip-rule="evenodd" fill="#3EBC9C" d="M85.191,102.608c-0.09-0.14-0.146-0.277-0.176-0.411
			c-8.695,0.034-17.391,0.044-26.087,0.06c-3.965,0.008-7.93,0.001-11.896,0.001h-0.838v1.193c0.328,0,0.625,0.001,0.922,0
			c12.848-0.034,25.696-0.065,38.545-0.108C85.506,103.097,85.35,102.852,85.191,102.608z"/>
		<path fill-rule="evenodd" clip-rule="evenodd" fill="#3EBC9C" d="M49.916,98.356c0.718,0.756,1.389,1.461,2.109,2.217
			c-0.243,0.176-0.538,0.391-0.892,0.648c-0.604-0.563-1.345-1.256-2.109-1.969c-0.897,0.781-1.792,1.561-2.751,2.396
			c-0.088-0.542-0.146-0.894-0.212-1.304c0.64-0.605,1.33-1.257,2.067-1.955c-0.741-0.697-1.444-1.36-2.116-1.992
			c0.07-0.385,0.133-0.726,0.214-1.169c1.101,0.514,1.79,1.577,2.818,2.306c0.729-0.695,1.462-1.396,2.272-2.17
			c0.221,0.328,0.423,0.629,0.638,0.949C51.36,96.909,50.658,97.612,49.916,98.356z"/>
	</g>
	<polygon opacity="0.3" fill-rule="evenodd" clip-rule="evenodd" fill="#797979" points="111.766,118.857 110.713,98.247 
		100.85,98.247 94.219,104.831 111.816,119.878 	"/>
	<ellipse fill="#3EBC9C" cx="102.293" cy="94.411" rx="13.176" ry="13.152"/>
	<ellipse fill="#FFFFFF" cx="102.293" cy="94.411" rx="9.475" ry="9.457"/>
	<g>
		<g>
			<polygon fill-rule="evenodd" clip-rule="evenodd" fill="#AEAEAE" points="27.647,97.089 25.609,99.124 23.571,97.089 
				25.609,95.055 			"/>
			<polygon fill-rule="evenodd" clip-rule="evenodd" fill="#AEAEAE" points="27.647,97.089 23.571,97.089 24.588,92.982 
				26.629,92.982 			"/>
			<polygon fill-rule="evenodd" clip-rule="evenodd" fill="#9C9C9D" points="24.798,97.089 27.647,97.089 26.629,92.982 
				25.381,92.982 			"/>
			<polygon fill-rule="evenodd" clip-rule="evenodd" fill="#9C9C9D" points="25.628,99.103 27.646,97.089 24.799,97.089 			"/>
		</g>
		<g>
			<path fill-rule="evenodd" clip-rule="evenodd" fill="#616262" d="M27.517,92.531c0,0.71-0.577,1.285-1.288,1.285h-1.24
				c-0.711,0-1.288-0.575-1.288-1.285V44.628c0-0.71,0.577-1.286,1.288-1.286h1.24c0.711,0,1.288,0.575,1.288,1.286V92.531z"/>
			<path fill-rule="evenodd" clip-rule="evenodd" fill="#4F5051" d="M26.229,43.343h-0.62v50.474h0.62
				c0.711,0,1.288-0.575,1.288-1.285V44.628C27.517,43.918,26.94,43.343,26.229,43.343z"/>
			<circle fill-rule="evenodd" clip-rule="evenodd" fill="#9B9C9D" cx="25.609" cy="28.122" r="1.655"/>
			<path fill-rule="evenodd" clip-rule="evenodd" fill="#7E7E7E" d="M27.264,28.122c0-0.912-0.741-1.652-1.655-1.652v3.304
				C26.523,29.774,27.264,29.035,27.264,28.122z"/>
			<path fill-rule="evenodd" clip-rule="evenodd" fill="#797979" d="M28.322,61.199c0,1.01-0.82,1.828-1.832,1.828h-1.764
				c-1.011,0-1.831-0.818-1.831-1.828V29.176c0-1.01,0.82-1.828,1.831-1.828h1.764c1.011,0,1.832,0.818,1.832,1.828V61.199z"/>
			<path fill-rule="evenodd" clip-rule="evenodd" fill="#616262" d="M26.491,27.348h-0.882v35.679h0.882
				c1.011,0,1.832-0.818,1.832-1.828V29.176C28.322,28.167,27.502,27.348,26.491,27.348z"/>
			<rect x="22.896" y="31.04" fill-rule="evenodd" clip-rule="evenodd" fill="#9B9C9D" width="5.426" height="1.777"/>
			<rect x="24.719" y="31.04" fill-rule="evenodd" clip-rule="evenodd" fill="#7E7E7E" width="3.604" height="1.777"/>
		</g>
	</g>
</g>
</svg>
