<?xml version="1.0" encoding="utf-8"?>
<!-- Generator: Adobe Illustrator 16.0.4, SVG Export Plug-In . SVG Version: 6.00 Build 0)  -->
<!DOCTYPE svg PUBLIC "-//W3C//DTD SVG 1.1//EN" "http://www.w3.org/Graphics/SVG/1.1/DTD/svg11.dtd">
<svg version="1.1" id="Layer_1" xmlns="http://www.w3.org/2000/svg" xmlns:xlink="http://www.w3.org/1999/xlink" x="0px" y="0px"
	 width="161px" height="179px" viewBox="0 0 161 179" enable-background="new 0 0 161 179" xml:space="preserve">
<ellipse fill="#3FBC9D" cx="80.449" cy="98.467" rx="80.449" ry="80.34"/>
<path fill-rule="evenodd" clip-rule="evenodd" fill="#29A585" d="M72.481,124.522l30.565,51.031
	c33.481-9.72,57.953-40.58,57.953-77.151c0-28.729-19.402-72.353-71.097-79.726L72.481,124.522z"/>
<polygon fill-rule="evenodd" clip-rule="evenodd" fill="#787878" points="110.621,88.3 51.265,88.3 59.363,77.792 81.162,75.367 
	102.521,77.388 "/>
<polygon opacity="0.3" fill-rule="evenodd" clip-rule="evenodd" fill="#787878" points="110.621,88.3 102.521,77.388 81.162,75.367 
	81.162,88.3 "/>
<path fill-rule="evenodd" clip-rule="evenodd" fill="#787878" d="M151.049,137.421l-12.512-43.998l0,0
	c-1.441-5.149-3.871-8.57-6.638-8.713l-51.183-7.259L29.804,84.71c-2.752,0.143-5.171,3.529-6.614,8.635l-0.005-0.004
	l-12.718,44.722c13.799,24.427,40.025,40.924,70.112,40.924C110.928,178.986,137.349,162.2,151.049,137.421z"/>
<path opacity="0.3" fill-rule="evenodd" clip-rule="evenodd" fill="#787878" d="M80.758,179
	c30.312-0.032,56.696-16.809,70.384-41.565l-12.513-43.997l0,0c-1.441-5.149-3.87-8.57-6.637-8.713l-49.584-7.033L80.758,179z"/>
<polygon fill-rule="evenodd" clip-rule="evenodd" fill="#FFFFFF" points="80.45,171.354 57.423,94.116 61.827,81.634 80.549,75.367 
	99.891,80.936 103.736,94.8 "/>
<g>
	<polygon fill-rule="evenodd" clip-rule="evenodd" fill="#D1D1D1" points="93.609,83.201 80.758,90.479 67.29,83.201 67.29,65.611 
		93.609,65.611 	"/>
	<polygon fill-rule="evenodd" clip-rule="evenodd" fill="#C1C1C1" points="93.658,69.183 80.709,76.101 93.609,83.028 
		93.658,77.984 	"/>
	<path fill-rule="evenodd" clip-rule="evenodd" fill="#FFFFFF" d="M97.625,22.847c1.052,4.511,2.07,8.887,3.092,13.262
		c0.216,0.929,0.408,1.866,0.666,2.785c0.596,2.134,0.833,4.276,0.556,6.499c-0.319,2.566-0.414,5.162-0.755,7.724
		c-0.32,2.403-1.415,4.551-2.641,6.615c-2.582,4.348-5.877,8.033-10.166,10.778c-5.258,3.366-10.599,3.597-15.979,0.325
		c-5.088-3.094-8.976-7.297-11.524-12.698c-0.717-1.519-1.061-3.126-1.13-4.807c-0.111-2.671-0.346-5.339-0.379-8.009
		c-0.014-1.125,0.333-2.26,0.551-3.383c0.498-2.562,1.017-5.121,1.526-7.673c1.957,0.129,3.857,0.307,5.762,0.37
		c6.723,0.224,13.347-0.251,19.604-3.04c4.227-1.884,7.788-4.61,10.514-8.378C97.383,23.128,97.457,23.049,97.625,22.847z"/>
	<path fill-rule="evenodd" clip-rule="evenodd" fill="#787878" d="M106.053,29.866c-0.234,3.707-0.451,8.035-0.799,12.351
		c-0.301,3.751-0.73,7.493-1.144,11.234c-0.303,2.744-1.533,5.158-2.899,7.489c-2.9,4.952-6.598,9.187-11.527,12.23
		c-5.914,3.65-11.954,3.991-18.059,0.479c-6.105-3.512-10.762-8.368-13.662-14.836c-1.015-2.265-1.134-4.674-1.25-7.092
		c-0.121-2.502-0.176-5.009-0.407-7.501c-0.17-1.842-0.655-3.652-0.86-5.492c-0.519-4.676-0.754-9.371-0.493-14.074
		c0.146-2.638,0.263-5.291,0.651-7.899c0.698-4.692,3.345-8.212,7.145-10.917c4.075-2.901,8.697-4.447,13.579-5.245
		c6.027-0.984,12.024-0.807,17.893,0.995c1.789,0.549,3.487,1.402,5.214,2.147c2.509,1.083,3.768,3.155,4.505,5.67
		c0.963,3.286,1.408,6.657,1.648,10.05C105.818,22.711,105.887,25.978,106.053,29.866z M97.625,22.847
		c-0.168,0.202-0.242,0.281-0.305,0.368c-2.726,3.769-6.287,6.494-10.514,8.378c-6.256,2.789-12.88,3.263-19.604,3.04
		c-1.905-0.063-3.805-0.241-5.762-0.37c-0.509,2.553-1.028,5.111-1.526,7.673c-0.218,1.124-0.565,2.258-0.551,3.383
		c0.033,2.67,0.268,5.338,0.379,8.009c0.07,1.681,0.414,3.289,1.13,4.807c2.548,5.401,6.437,9.604,11.524,12.698
		c5.38,3.271,10.722,3.041,15.979-0.325c4.289-2.745,7.584-6.431,10.166-10.778c1.226-2.064,2.32-4.211,2.641-6.615
		c0.341-2.562,0.436-5.157,0.755-7.724c0.277-2.222,0.04-4.365-0.556-6.499c-0.258-0.918-0.45-1.855-0.666-2.785
		C99.695,31.734,98.677,27.358,97.625,22.847z"/>
	<path opacity="0.3" fill-rule="evenodd" clip-rule="evenodd" fill="#787878" d="M103.939,9.41c-0.737-2.515-1.996-4.586-4.505-5.67
		c-1.727-0.746-3.425-1.598-5.214-2.147c-4.445-1.365-8.963-1.796-13.512-1.498v33.517c2.064-0.472,4.1-1.124,6.098-2.014
		c4.227-1.884,7.788-4.61,10.514-8.378c0.062-0.087,0.137-0.167,0.305-0.368c1.052,4.511,2.07,8.886,3.092,13.262
		c0.216,0.929,0.408,1.866,0.666,2.785c0.596,2.134,0.833,4.276,0.556,6.499c-0.319,2.566-0.414,5.161-0.755,7.724
		c-0.32,2.403-1.415,4.551-2.641,6.615c-2.582,4.348-5.877,8.033-10.166,10.778c-2.537,1.625-5.096,2.512-7.668,2.634v2.955
		c3.018-0.1,6.012-1.097,8.975-2.925c4.93-3.043,8.627-7.278,11.527-12.231c1.366-2.332,2.597-4.745,2.899-7.489
		c0.413-3.741,0.843-7.483,1.144-11.234c0.348-4.316,0.564-8.644,0.799-12.352c-0.166-3.888-0.234-7.155-0.465-10.409
		C105.348,16.067,104.902,12.696,103.939,9.41z"/>
	<path fill-rule="evenodd" clip-rule="evenodd" fill="#D1D1D1" d="M100.717,36.105c-1.021-4.375-2.04-8.75-3.092-13.261
		c-0.168,0.202-0.242,0.281-0.305,0.368c-2.726,3.77-6.287,6.494-10.514,8.378c-1.469,0.655-2.958,1.177-4.463,1.598v39.774
		c2.021-0.353,4.033-1.177,6.033-2.457c4.289-2.745,7.584-6.43,10.166-10.778c1.226-2.064,2.32-4.211,2.641-6.615
		c0.341-2.562,0.436-5.158,0.755-7.724c0.277-2.223,0.04-4.365-0.556-6.499C101.125,37.971,100.933,37.035,100.717,36.105z"/>
</g>
<g>
	<path fill-rule="evenodd" clip-rule="evenodd" fill="#787878" d="M80.695,156.44c-1.779-2.021-3.515-3.988-5.244-5.96
		c-1.75-1.996-3.478-4.011-5.254-5.981c-0.393-0.437-0.504-0.85-0.424-1.398c1.033-7.077,2.167-14.142,3.051-21.236
		c0.905-7.262,1.566-14.553,2.326-21.832c0.045-0.434,0.078-0.881,0.025-1.311c-0.127-1.045,0.454-1.58,1.317-1.91
		c1.858-0.711,3.795-0.811,5.739-0.576c0.964,0.115,1.919,0.394,2.845,0.703c0.762,0.254,1.071,0.844,1.135,1.701
		c0.321,4.412,0.633,8.828,1.11,13.225c0.525,4.831,1.188,9.646,1.862,14.46c0.691,4.946,1.468,9.88,2.208,14.819
		c0.032,0.216,0.017,0.45,0.095,0.646c0.744,1.852-0.098,3.117-1.363,4.428c-3.057,3.169-5.986,6.459-8.969,9.7
		C81.009,156.075,80.869,156.241,80.695,156.44z"/>
	<path fill-rule="evenodd" clip-rule="evenodd" fill="#787878" d="M74.845,94.402c-0.345-0.788-0.747-1.392-0.873-2.048
		c-0.462-2.406-0.829-4.83-1.24-7.246c-0.153-0.902,0.293-1.466,1.092-1.652c1.508-0.35,3.031-0.704,4.568-0.854
		c2.567-0.251,5.138-0.105,7.668,0.436c0.503,0.106,0.995,0.298,1.467,0.507c0.594,0.264,0.964,0.68,0.847,1.411
		c-0.401,2.499-0.774,5-1.18,7.498c-0.056,0.344-0.201,0.68-0.347,1.001c-0.363,0.8-0.548,0.842-1.244,0.323
		c-1.506-1.121-3.278-1.372-5.058-1.357C78.565,92.437,76.608,92.737,74.845,94.402z"/>
	<path opacity="0.3" fill-rule="evenodd" clip-rule="evenodd" fill="#787878" d="M91.392,141.177
		c-0.74-4.939-1.517-9.873-2.208-14.819c-0.674-4.813-1.337-9.629-1.862-14.46c-0.478-4.396-0.789-8.812-1.11-13.225
		c-0.063-0.857-0.373-1.447-1.135-1.701c-0.926-0.31-1.881-0.587-2.845-0.703c-0.492-0.059-0.983-0.097-1.474-0.108v60.241
		c0.144-0.165,0.27-0.312,0.396-0.45c2.982-3.241,5.912-6.531,8.969-9.7c1.266-1.311,2.107-2.576,1.363-4.428
		C91.408,141.628,91.424,141.393,91.392,141.177z"/>
	<path opacity="0.3" fill-rule="evenodd" clip-rule="evenodd" fill="#787878" d="M87.527,83.541
		c-0.472-0.209-0.964-0.401-1.467-0.507c-1.753-0.375-3.526-0.556-5.303-0.55v9.936c1.707,0.007,3.399,0.279,4.846,1.354
		c0.696,0.519,0.881,0.478,1.244-0.323c0.146-0.32,0.291-0.656,0.347-1c0.405-2.498,0.778-5,1.18-7.499
		C88.491,84.22,88.121,83.804,87.527,83.541z"/>
</g>
</svg>
