<?xml version="1.0" encoding="utf-8"?>
<!-- Generator: Adobe Illustrator 16.0.4, SVG Export Plug-In . SVG Version: 6.00 Build 0)  -->
<!DOCTYPE svg PUBLIC "-//W3C//DTD SVG 1.1//EN" "http://www.w3.org/Graphics/SVG/1.1/DTD/svg11.dtd">
<svg version="1.1" id="Layer_1" xmlns="http://www.w3.org/2000/svg" xmlns:xlink="http://www.w3.org/1999/xlink" x="0px" y="0px"
	 width="161px" height="201px" viewBox="0 0 161 201" enable-background="new 0 0 161 201" xml:space="preserve">
<ellipse fill="#3EBC9C" cx="80.449" cy="120.518" rx="80.449" ry="80.482"/>
<path fill-rule="evenodd" clip-rule="evenodd" fill="#29A484" d="M15.742,148.311l87.305,49.432
	C136.528,188.004,161,157.09,161,120.453c0-28.781-19.402-72.483-71.096-79.869L15.742,148.311z"/>
<g>
	<g>
		<path fill-rule="evenodd" clip-rule="evenodd" fill="#B7B7B7" d="M89.834,117.785c1.406,0.078,2.18-0.793,2.193-2.451
			c0.019-2.314,0.004-4.629,0.004-6.941c0-2.314,0.016-4.629-0.004-6.941c-0.015-1.558-0.76-2.412-2.064-2.443
			c-1.372-0.034-2.174,0.851-2.178,2.48c-0.014,4.627,0.012,9.256-0.016,13.883C87.761,116.824,88.335,117.703,89.834,117.785z"/>
		<path fill-rule="evenodd" clip-rule="evenodd" fill="#B7B7B7" d="M76.872,114.225c0.015,1.479,0.889,2.471,2.152,2.344
			c1.29-0.131,2.109-0.799,2.101-2.256c-0.022-4.512-0.016-9.025-0.004-13.539c0.004-1.424-0.748-2.15-2.091-2.237
			c-1.328-0.085-2.141,0.811-2.157,2.315c-0.024,2.201-0.007,4.402-0.007,6.603C76.866,109.711,76.849,111.969,76.872,114.225z"/>
		<path fill-rule="evenodd" clip-rule="evenodd" fill="#B7B7B7" d="M109.608,114.523c0,2.148,0.042,4.299-0.015,6.447
			c-0.039,1.469,0.707,2.146,2.048,2.252c1.367,0.107,2.201-0.74,2.21-2.256c0.024-4.299,0.023-8.6,0-12.898
			c-0.008-1.477-0.884-2.371-2.214-2.252c-1.328,0.117-2.085,0.787-2.044,2.258C109.653,110.223,109.608,112.373,109.608,114.523z"
			/>
		<path fill-rule="evenodd" clip-rule="evenodd" fill="#B7B7B7" d="M55.042,117.805c0.014,1.506,0.814,2.414,2.083,2.443
			c1.273,0.029,2.149-0.879,2.155-2.359c0.021-4.727,0.022-9.453,0-14.178c-0.008-1.584-0.745-2.322-2.153-2.297
			c-1.366,0.023-2.071,0.799-2.085,2.379c-0.02,2.361-0.005,4.725-0.005,7.088C55.038,113.189,55.022,115.498,55.042,117.805z"/>
		<path fill-rule="evenodd" clip-rule="evenodd" fill="#B7B7B7" d="M100.857,120.248c1.307-0.025,2.076-0.967,2.086-2.605
			c0.014-2.254,0.003-4.508,0.003-6.76c0-2.309,0.011-4.617-0.003-6.926c-0.011-1.756-0.65-2.518-2.086-2.543
			c-1.435-0.023-2.154,0.771-2.159,2.463c-0.012,4.615-0.012,9.232,0,13.848C98.702,119.328,99.536,120.273,100.857,120.248z"/>
		<path fill-rule="evenodd" clip-rule="evenodd" fill="#B7B7B7" d="M65.955,115.482c0.009,1.715,0.695,2.529,2.095,2.537
			c1.452,0.008,2.143-0.762,2.148-2.484c0.014-4.617,0.015-9.232,0-13.848c-0.006-1.628-0.83-2.542-2.174-2.502
			c-1.276,0.038-2.054,0.929-2.067,2.447c-0.021,2.309-0.005,4.617-0.005,6.926S65.942,113.176,65.955,115.482z"/>
		<path fill-rule="evenodd" clip-rule="evenodd" fill="#B7B7B7" d="M81.371,18.562c-0.049-0.197-0.099-0.394-0.156-0.589
			c-0.127-0.428-0.229-0.902-0.396-1.319c0.023,0.084-0.123-0.132-0.254-0.339c0,0.027,0.001,0.054,0.002,0.081h-3.855
			c0-0.043,0.001-0.086,0.001-0.129c-0.003,0.004-0.006,0.009-0.01,0.013c-0.642,0.755-0.877,1.608-0.943,2.52
			C77.691,17.944,79.557,17.963,81.371,18.562z"/>
		<path fill-rule="evenodd" clip-rule="evenodd" fill="#B7B7B7" d="M85.447,35.553c0-0.011-0.002-0.023-0.002-0.034
			c-0.034-0.856-0.365-1.691-0.628-2.509c-0.091-0.279-0.36-0.71-0.63-1.177v0.079h-10.48c-0.217,0.426-0.451,0.81-0.624,1.363
			c-0.182,0.581-0.339,1.165-0.469,1.755c2.196-0.646,4.55-0.917,7.087-0.74C81.751,34.433,83.66,34.873,85.447,35.553z"/>
		<path fill-rule="evenodd" clip-rule="evenodd" fill="#B7B7B7" d="M135.801,135.084c-0.054-0.094-0.106-0.189-0.16-0.285
			c-0.441-0.02-0.883-0.041-1.325-0.057c-1.351-0.049-2.77-0.037-4.094-0.338c-0.11-0.025-0.222-0.053-0.331-0.08
			c-1.161-0.014-2.321-0.002-3.473,0.092c-4.687,0.383-8.943-0.77-13.225-2.619c-10.893-4.705-21.893-9.164-32.878-13.652
			c-0.751-0.309-1.848-0.297-2.604,0.01c-12.674,5.15-25.313,10.385-37.981,15.549c-1.036,0.422-2.225,0.629-3.347,0.648
			c-4.109,0.074-8.222,0.029-12.717,0.029c-0.553,0.928-1.106,1.867-1.531,2.861c-0.03,0.068-0.061,0.133-0.091,0.199
			c0.225-0.133,0.517-0.223,0.761-0.287c0.361-0.094,0.766-0.023,1.152-0.023c37.148,0,74.296,0.01,111.445-0.031
			c0.781-0.002,1.396,0.115,1.924,0.418c-0.213-0.41-0.422-0.824-0.703-1.225C136.342,135.895,136.043,135.512,135.801,135.084z
			 M46.197,134.215c-0.011-0.08-0.021-0.158-0.032-0.238c9.994-4.117,20.018-8.166,29.96-12.408
			c2.072-0.885,3.734-0.783,5.736,0.064c9.905,4.189,19.866,8.252,29.784,12.582H46.197z"/>
		<path fill-rule="evenodd" clip-rule="evenodd" fill="#B7B7B7" d="M116.188,92.785c-0.104-0.327-0.221-0.649-0.338-0.972
			c-0.038-0.109-0.078-0.218-0.119-0.327c-0.009-0.019-0.018-0.036-0.027-0.059c-0.03-0.053-0.05-0.092-0.064-0.123
			c-0.371-0.343-0.65-0.753-0.826-1.197c-0.021-0.011-0.043-0.02-0.064-0.031c0.001,0.042,0.002,0.084,0.002,0.128
			c-2.9-0.849-5.656-1.656-8.627-2.525c0-2.065-0.031-4.198,0.011-6.33c0.025-1.275-0.221-2.164-1.783-2.111
			c-1.457,0.048-1.683,0.893-1.649,2.097c0.049,1.808,0.013,3.618,0.013,5.59c-1.622-0.269-3.087-0.431-4.495-0.804
			c-0.361-0.095-0.756-0.847-0.774-1.312c-0.083-2.092-0.083-4.191-0.019-6.284c0.035-1.147-0.348-1.851-1.53-1.858
			c-1.149-0.007-1.835,0.486-1.798,1.809c0.063,2.302,0.018,4.608,0.018,7.041c-1.858-0.235-3.521-0.445-5.307-0.671
			c0-2.641-0.042-5.17,0.019-7.697c0.028-1.209-0.187-2.119-1.604-2.128c-1.498-0.01-1.757,0.938-1.725,2.216
			c0.061,2.366,0.018,4.735,0.018,7.22h-5.306c0-2.659-0.023-5.231,0.01-7.804c0.016-1.251-0.006-2.394-1.717-2.352
			c-1.567,0.039-1.662,1.086-1.647,2.293c0.032,2.58,0.01,5.16,0.01,7.927H71.61c0-2.482-0.04-5.05,0.015-7.615
			c0.032-1.481-0.792-1.779-2.001-1.682c-1.154,0.093-1.38,0.845-1.368,1.854c0.032,2.635,0.011,5.27,0.011,8
			c-1.804,0.223-3.463,0.429-5.289,0.655c0-2.506-0.052-4.868,0.021-7.226c0.04-1.301-0.552-1.85-1.743-1.827
			c-1.131,0.022-1.635,0.616-1.606,1.805c0.059,2.533,0.018,5.068,0.018,7.794c-1.705,0.351-3.396,0.699-5.29,1.088
			c0-2.248-0.048-4.331,0.019-6.41c0.039-1.225-0.495-1.713-1.651-1.714c-1.125-0.001-1.728,0.414-1.695,1.669
			c0.062,2.366,0.018,4.734,0.018,7.218c-2.68,0.839-5.235,1.639-7.98,2.498v-0.044c-0.489,1.064-0.691,2.214-0.89,3.369
			c3.388-1.485,6.955-2.523,10.573-3.418c10.425-2.576,21.008-3.911,31.744-3.267c10.953,0.657,21.721,2.409,31.939,6.62
			c-0.038-0.162-0.068-0.327-0.086-0.496C116.432,93.969,116.227,92.903,116.188,92.785z"/>
		<path fill-rule="evenodd" clip-rule="evenodd" fill="#B7B7B7" d="M116.535,78.374c-0.006,0.024-0.01,0.048-0.016,0.072
			c-1.924-1.332-3.742-2.806-5.752-3.942c-6.156-3.481-12.92-5.216-19.822-6.376c-13.594-2.285-26.844-0.814-39.72,4.04
			c-3.824,1.441-7.362,3.414-10.306,6.42c-0.006-0.017-0.011-0.035-0.016-0.052c-0.002,0.002-0.004,0.005-0.006,0.007
			c0.051,0.24,0.192,0.537,0.542,0.919c0.225,0.246,0.45,0.491,0.69,0.723c0.03,0.026,0.057,0.05,0.081,0.071
			c0.125,0.034,0.344,0.109,0.456,0.147c-0.058-0.026,0.058-0.019,0.355,0.02c0.069,0.001,0.138-0.001,0.207-0.001
			c0.204-0.556,0.829-1.137,1.334-1.537c3.959-3.131,8.597-4.862,13.384-6.193c8.873-2.468,17.905-3.607,27.104-2.635
			c8.404,0.889,16.617,2.586,24.189,6.584c0.243,0.128,0.482,0.266,0.728,0.389c1.968,0.99,3.515,2.201,4.334,3.851
			c0.253-0.003,0.507-0.003,0.762,0.006c0.112,0.004,0.188,0.014,0.245,0.026c0.041-0.031,0.088-0.065,0.152-0.106
			c0.238-0.148,0.472-0.303,0.701-0.465C116.762,79.883,116.607,79.015,116.535,78.374z"/>
		<path fill-rule="evenodd" clip-rule="evenodd" fill="#B7B7B7" d="M105.445,64.061c-0.045-0.091-0.096-0.178-0.146-0.265
			c-17.889-6.572-35.616-6.515-53.61,0.071c-0.086,0.1-0.179,0.195-0.287,0.279c-0.021,0.019-0.039,0.033-0.056,0.047
			c-0.026,0.05-0.054,0.099-0.079,0.15c-0.036,0.118-0.201,0.555-0.225,0.622c-0.178,0.505-0.104,1.304-0.114,2.005
			c1.734-0.722,3.518-1.335,5.328-1.886c9.173-2.791,18.533-4.325,28.146-3.314c7.646,0.804,15.115,2.29,22.111,5.379
			c-0.293-0.738-0.424-1.486-0.695-2.237C105.773,64.821,105.503,64.173,105.445,64.061z"/>
		<path fill-rule="evenodd" clip-rule="evenodd" fill="#B7B7B7" d="M123.83,102.824c-6.234-4.844-13.49-6.745-20.852-8.299
			c-11.33-2.393-22.782-3.182-34.312-1.953c-9.75,1.04-19.399,2.647-28.354,6.959c-1.675,0.806-3.213,1.898-4.808,2.871
			c-0.051,0.066-0.103,0.133-0.154,0.197c0.074,0.238,0.15,0.424,0.256,0.609c-0.019-0.033,0.34,0.482,0.343,0.535
			c0.183,0.152,0.204,0.199,0.059,0.141c0.417,0.254,1.13,0.377,1.824,0.516c0.264-0.441,0.658-0.805,1.203-1.141
			c4.225-2.593,8.861-4.114,13.629-5.27c19.686-4.774,39.261-4.42,58.664,1.495c2.66,0.81,5.148,2.174,7.724,3.264
			c1.042,0.441,1.33,1.193,1.343,2.283c1.115-0.051,2.123-0.346,2.923-1.158c-0.006,0.006,0.286-0.375,0.421-0.516
			c0.029-0.078,0.061-0.162,0.084-0.229C123.816,103.088,123.822,102.957,123.83,102.824z"/>
		<path fill-rule="evenodd" clip-rule="evenodd" fill="#B7B7B7" d="M46.343,123.232c1.345-0.107,2.073-0.822,2.043-2.268
			c-0.045-2.203-0.012-4.408-0.012-6.611c0-2.094-0.035-4.188,0.012-6.281c0.032-1.447-0.687-2.158-2.042-2.258
			c-1.367-0.1-2.206,0.752-2.213,2.256c-0.023,4.297-0.023,8.596,0,12.893C44.139,122.447,45.008,123.34,46.343,123.232z"/>
	</g>
	<g>
		<path fill-rule="evenodd" clip-rule="evenodd" fill="#FFFFFF" d="M23.617,134.387c0.901-1.605,1.543-2.947,2.387-4.145
			c0.293-0.416,1.075-0.637,1.653-0.676c3.178-0.223,6.362-0.363,9.713-0.539c0.034-0.682,0.086-1.262,0.086-1.842
			c0.006-7.002,0.047-14.006-0.033-21.008c-0.016-1.404,0.479-2.217,1.611-2.912c4.225-2.594,8.861-4.115,13.629-5.271
			c19.685-4.774,39.261-4.42,58.664,1.495c2.659,0.81,5.148,2.175,7.724,3.265c1.065,0.451,1.345,1.227,1.345,2.357
			c0.004,7.662,0.076,15.324,0.128,22.986c0.002,0.322,0.03,0.643,0.056,1.148c2.846,0.119,5.638,0.395,8.416,0.299
			c2.219-0.076,3.812,0.516,4.812,2.559c0.33,0.678,0.848,1.268,1.418,2.098c-0.582,0.078-0.977,0.176-1.371,0.178
			c-2.48,0.014-4.975-0.158-7.438,0.043c-4.687,0.383-8.942-0.77-13.224-2.619c-10.893-4.707-21.893-9.166-32.878-13.652
			c-0.751-0.309-1.848-0.299-2.604,0.01c-12.674,5.148-25.313,10.385-37.981,15.549c-1.036,0.42-2.225,0.627-3.347,0.648
			C32.258,134.432,28.132,134.387,23.617,134.387z M65.951,108.562c0,2.309-0.01,4.617,0.003,6.926
			c0.009,1.715,0.695,2.527,2.096,2.535c1.452,0.01,2.143-0.762,2.148-2.482c0.014-4.617,0.015-9.232,0-13.85
			c-0.006-1.627-0.83-2.541-2.173-2.501c-1.277,0.038-2.055,0.929-2.068,2.448C65.937,103.947,65.951,106.256,65.951,108.562z
			 M55.037,110.887c0,2.307-0.015,4.615,0.005,6.924c0.014,1.504,0.814,2.412,2.083,2.441c1.272,0.029,2.148-0.879,2.155-2.359
			c0.021-4.725,0.022-9.451,0-14.178c-0.007-1.584-0.745-2.322-2.153-2.297c-1.366,0.023-2.071,0.801-2.085,2.379
			C55.022,106.16,55.037,108.523,55.037,110.887z M102.945,110.887c0-2.309,0.011-4.615-0.002-6.924
			c-0.011-1.756-0.65-2.52-2.086-2.543c-1.435-0.023-2.154,0.771-2.159,2.461c-0.013,4.617-0.013,9.232,0,13.85
			c0.003,1.602,0.837,2.549,2.159,2.523c1.307-0.025,2.075-0.969,2.086-2.607C102.956,115.395,102.945,113.141,102.945,110.887z
			 M92.031,108.396c0-2.312,0.016-4.627-0.005-6.939c-0.015-1.559-0.759-2.412-2.063-2.444c-1.373-0.034-2.174,0.851-2.178,2.481
			c-0.014,4.627,0.012,9.256-0.016,13.883c-0.009,1.453,0.565,2.332,2.064,2.414c1.406,0.078,2.18-0.793,2.193-2.453
			C92.046,113.025,92.031,110.711,92.031,108.396z M76.866,107.461c0,2.256-0.017,4.512,0.005,6.77
			c0.015,1.479,0.889,2.471,2.153,2.344c1.29-0.131,2.109-0.799,2.101-2.258c-0.023-4.512-0.016-9.025-0.004-13.537
			c0.004-1.425-0.749-2.151-2.091-2.238c-1.328-0.085-2.142,0.811-2.158,2.315C76.848,103.059,76.866,105.26,76.866,107.461z
			 M109.607,114.527c0,2.15,0.043,4.301-0.014,6.449c-0.039,1.469,0.707,2.146,2.047,2.252c1.367,0.107,2.201-0.74,2.211-2.258
			c0.023-4.299,0.023-8.598,0-12.896c-0.008-1.479-0.885-2.371-2.215-2.254c-1.328,0.119-2.085,0.789-2.044,2.26
			C109.652,110.229,109.607,112.379,109.607,114.527z M48.375,114.359c0-2.094-0.035-4.188,0.012-6.281
			c0.032-1.447-0.687-2.16-2.042-2.258c-1.366-0.102-2.206,0.752-2.213,2.256c-0.023,4.297-0.023,8.594,0,12.891
			c0.007,1.484,0.876,2.379,2.211,2.271c1.345-0.107,2.073-0.822,2.043-2.27C48.341,118.766,48.375,116.562,48.375,114.359z"/>
		<path fill-rule="evenodd" clip-rule="evenodd" fill="#FFFFFF" d="M15.742,148.311c2.046-3.629,3.998-7.123,6.002-10.588
			c0.173-0.299,0.677-0.463,1.061-0.562c0.361-0.096,0.767-0.023,1.152-0.023c37.148,0,74.297,0.008,111.445-0.031
			c1.424-0.002,2.294,0.381,3.096,1.588c2.125,3.201,4.407,6.297,6.758,9.617C102.034,148.311,59.032,148.311,15.742,148.311z"/>
		<path fill-rule="evenodd" clip-rule="evenodd" fill="#FFFFFF" d="M105.324,63.81c-17.926-6.592-35.688-6.528-53.72,0.092
			c0.186-0.94,0.284-1.616,0.454-2.272c1.918-7.388,4.853-14.27,10.193-19.889c4.733-4.979,10.384-7.937,17.45-7.444
			c5.985,0.417,10.793,3.315,14.775,7.576c5.621,6.015,8.8,13.346,10.844,21.224C105.358,63.243,105.324,63.41,105.324,63.81z"/>
		<path fill-rule="evenodd" clip-rule="evenodd" fill="#FFFFFF" d="M51.068,88.138c-2.68,0.839-5.234,1.638-7.979,2.498
			c0-3.416-0.077-6.662,0.066-9.897c0.028-0.642,0.805-1.373,1.405-1.849c3.959-3.131,8.597-4.862,13.385-6.193
			c8.873-2.468,17.905-3.607,27.104-2.635c8.404,0.889,16.617,2.586,24.189,6.584c0.243,0.128,0.482,0.266,0.728,0.389
			c3.424,1.723,5.587,4.109,4.827,8.331c-0.269,1.493-0.043,3.074-0.043,4.843c-2.9-0.849-5.656-1.656-8.628-2.525
			c0-2.065-0.03-4.198,0.012-6.33c0.024-1.275-0.222-2.164-1.784-2.111c-1.456,0.048-1.682,0.893-1.649,2.097
			c0.05,1.808,0.013,3.618,0.013,5.59c-1.621-0.27-3.086-0.432-4.494-0.804c-0.361-0.095-0.756-0.848-0.774-1.312
			c-0.083-2.092-0.083-4.191-0.019-6.284c0.035-1.147-0.348-1.851-1.53-1.858c-1.15-0.007-1.835,0.486-1.799,1.809
			c0.064,2.303,0.019,4.608,0.019,7.041c-1.859-0.235-3.522-0.446-5.307-0.671c0-2.641-0.042-5.17,0.018-7.697
			c0.029-1.208-0.186-2.119-1.604-2.128c-1.497-0.01-1.756,0.938-1.724,2.216c0.06,2.367,0.018,4.735,0.018,7.22
			c-1.752,0-3.418,0-5.307,0c0-2.659-0.023-5.231,0.01-7.804c0.017-1.251-0.006-2.394-1.717-2.352
			c-1.567,0.039-1.662,1.086-1.647,2.293c0.032,2.58,0.009,5.161,0.009,7.927c-1.757,0-3.379,0-5.255,0
			c0-2.482-0.04-5.05,0.015-7.615c0.032-1.481-0.792-1.779-2.001-1.682c-1.154,0.093-1.38,0.846-1.368,1.854
			c0.033,2.635,0.011,5.27,0.011,8c-1.804,0.223-3.463,0.429-5.289,0.655c0-2.506-0.053-4.868,0.021-7.226
			c0.04-1.301-0.551-1.85-1.743-1.827c-1.13,0.022-1.634,0.616-1.606,1.805c0.06,2.533,0.018,5.068,0.018,7.794
			c-1.704,0.351-3.395,0.699-5.289,1.088c0-2.248-0.048-4.332,0.018-6.411c0.039-1.225-0.495-1.713-1.651-1.714
			c-1.126-0.001-1.728,0.414-1.695,1.669C51.112,83.285,51.068,85.654,51.068,88.138z"/>
		<path fill-rule="evenodd" clip-rule="evenodd" fill="#FFFFFF" d="M46.164,133.982c9.994-4.119,20.018-8.168,29.96-12.41
			c2.072-0.883,3.734-0.781,5.735,0.064c9.906,4.191,19.867,8.252,29.785,12.584c-21.815,0-43.632,0-65.448,0
			C46.185,134.141,46.175,134.061,46.164,133.982z"/>
		<path fill-rule="evenodd" clip-rule="evenodd" fill="#FFFFFF" d="M124.036,102.984c-6.28-4.962-13.616-6.882-21.058-8.455
			c-11.33-2.393-22.783-3.182-34.312-1.953c-9.751,1.04-19.4,2.647-28.354,6.959c-1.722,0.829-3.298,1.961-4.94,2.952
			c-1.241-2.115-0.835-4.117,1.251-5.509c4.924-3.284,10.475-5.036,16.148-6.438c10.425-2.576,21.008-3.912,31.744-3.268
			c11.188,0.671,22.184,2.478,32.598,6.888c1.612,0.682,3.121,1.608,4.679,2.423C124.521,98.012,124.879,100.273,124.036,102.984z"
			/>
		<path fill-rule="evenodd" clip-rule="evenodd" fill="#FFFFFF" d="M40.918,78.592c-0.832-2.363-0.071-5.271,1.69-6.73
			c4.015-3.329,8.74-5.28,13.647-6.773c9.172-2.791,18.533-4.324,28.146-3.313c9.466,0.995,18.661,3.032,27.021,7.866
			c0.902,0.521,1.726,1.179,2.599,1.753c2.615,1.721,3.213,4.146,2.497,7.056c-1.924-1.332-3.741-2.806-5.751-3.942
			c-6.156-3.481-12.92-5.216-19.822-6.376c-13.594-2.285-26.844-0.814-39.721,4.04C47.401,73.613,43.862,75.586,40.918,78.592z"/>
		<path fill-rule="evenodd" clip-rule="evenodd" fill="#FFFFFF" d="M84.188,31.917c-3.623,0-6.996,0-10.626,0
			c0-1.992,0-3.995,0-5.998c0-1.32,0.139-2.658-0.036-3.955c-0.22-1.639,0.638-2.39,1.905-3.013c2.846-1.4,5.544-0.884,8.149,0.62
			c0.3,0.173,0.578,0.677,0.582,1.031C84.203,24.443,84.188,28.284,84.188,31.917z"/>
		<path fill-rule="evenodd" clip-rule="evenodd" fill="#FFFFFF" d="M80.566,16.401c-1.4,0-2.539,0-3.855,0
			C76.775,10.832,76.84,5.338,78.633,0C80.226,5.31,80.452,10.755,80.566,16.401z"/>
	</g>
	<g>
		<path fill-rule="evenodd" clip-rule="evenodd" fill="#D1D1D1" d="M135.405,137.094c-18.904,0.021-37.809,0.029-56.712,0.031
			v11.176c22.176,0,44.342,0,66.565,0c-2.35-3.32-4.633-6.416-6.756-9.617C137.699,137.475,136.828,137.092,135.405,137.094z"/>
		<path fill-rule="evenodd" clip-rule="evenodd" fill="#D1D1D1" d="M114.024,71.384c-0.873-0.574-1.696-1.232-2.599-1.753
			c-8.361-4.834-17.556-6.871-27.021-7.867c-1.914-0.201-3.817-0.297-5.711-0.307v5.613c4.053,0.013,8.139,0.358,12.256,1.05
			c6.902,1.16,13.665,2.895,19.821,6.376c2.009,1.136,3.828,2.61,5.751,3.942C117.236,75.531,116.641,73.105,114.024,71.384z"/>
		<path fill-rule="evenodd" clip-rule="evenodd" fill="#D1D1D1" d="M109.969,77.025c-0.246-0.124-0.484-0.261-0.728-0.389
			c-7.573-3.998-15.785-5.695-24.189-6.584c-2.129-0.225-4.248-0.332-6.359-0.341v4.588c1.521,0.046,1.545,1.145,1.529,2.348
			c-0.033,2.572-0.01,5.145-0.01,7.804c1.887,0,3.555,0,5.305,0c0-2.485,0.043-4.854-0.017-7.22
			c-0.032-1.279,0.227-2.227,1.724-2.216c1.42,0.01,1.634,0.919,1.605,2.128c-0.061,2.527-0.019,5.056-0.019,7.697
			c1.784,0.226,3.448,0.436,5.306,0.671c0-2.433,0.047-4.738-0.018-7.041c-0.036-1.322,0.648-1.815,1.799-1.809
			c1.182,0.007,1.565,0.711,1.531,1.858c-0.065,2.093-0.066,4.192,0.018,6.284c0.019,0.464,0.414,1.217,0.773,1.312
			c1.409,0.372,2.874,0.534,4.496,0.803c0-1.972,0.035-3.782-0.014-5.59c-0.033-1.204,0.193-2.048,1.65-2.097
			c1.562-0.052,1.809,0.836,1.783,2.111c-0.043,2.132-0.012,4.265-0.012,6.33c2.972,0.87,5.728,1.676,8.629,2.525
			c0-1.769-0.227-3.35,0.043-4.843C115.556,81.134,113.393,78.748,109.969,77.025z"/>
		<path fill-rule="evenodd" clip-rule="evenodd" fill="#D1D1D1" d="M121.795,96.574c-1.557-0.814-3.066-1.74-4.679-2.423
			c-10.415-4.409-21.41-6.216-32.599-6.887c-1.946-0.117-3.888-0.167-5.825-0.158v4.895c8.147-0.065,16.249,0.82,24.288,2.518
			c7.443,1.572,14.779,3.492,21.059,8.455C124.881,100.263,124.523,98.001,121.795,96.574z"/>
		<path fill-rule="evenodd" clip-rule="evenodd" fill="#D1D1D1" d="M128.999,129.535c-2.778,0.096-5.569-0.182-8.417-0.299
			c-0.025-0.506-0.053-0.828-0.055-1.148c-0.053-7.662-0.124-15.324-0.127-22.988c0-1.131-0.279-1.904-1.346-2.357
			c-2.575-1.09-5.064-2.453-7.725-3.263c-10.828-3.301-21.711-4.869-32.637-4.78v3.836c0.109-0.008,0.222-0.011,0.34-0.003
			c1.343,0.086,2.095,0.813,2.091,2.237c-0.011,4.512-0.019,9.026,0.005,13.538c0.007,1.457-0.812,2.125-2.102,2.256
			c-0.116,0.012-0.226,0.012-0.334,0.004v1.363c0.565-0.049,1.162,0.02,1.625,0.209c10.985,4.488,21.984,8.947,32.878,13.654
			c4.281,1.85,8.538,3.002,13.224,2.617c2.464-0.199,4.957-0.027,7.438-0.043c0.395-0.002,0.789-0.098,1.372-0.178
			c-0.57-0.83-1.088-1.418-1.42-2.096C132.812,130.051,131.217,129.459,128.999,129.535z M92.029,115.328
			c-0.013,1.66-0.786,2.529-2.191,2.453c-1.5-0.084-2.074-0.963-2.065-2.416c0.028-4.627,0.002-9.254,0.015-13.881
			c0.004-1.631,0.807-2.516,2.18-2.482c1.304,0.032,2.049,0.886,2.062,2.443c0.021,2.314,0.006,4.627,0.006,6.941
			S92.049,113.014,92.029,115.328z M102.945,117.637c-0.01,1.639-0.779,2.582-2.086,2.607c-1.32,0.025-2.154-0.922-2.158-2.523
			c-0.012-4.617-0.012-9.234,0-13.85c0.004-1.689,0.725-2.486,2.159-2.461c1.436,0.023,2.075,0.785,2.085,2.541
			c0.014,2.309,0.004,4.617,0.004,6.926C102.949,113.131,102.959,115.383,102.945,117.637z M113.854,120.961
			c-0.008,1.518-0.842,2.363-2.209,2.256c-1.34-0.104-2.086-0.783-2.048-2.25c0.057-2.148,0.015-4.299,0.015-6.449
			c0-2.148,0.045-4.301-0.016-6.447c-0.041-1.473,0.717-2.143,2.045-2.26c1.33-0.117,2.206,0.775,2.214,2.254
			C113.877,112.363,113.879,116.662,113.854,120.961z"/>
		<path fill-rule="evenodd" clip-rule="evenodd" fill="#D1D1D1" d="M78.693,120.947v13.262c10.985,0,21.969,0,32.956,0
			c-9.92-4.33-19.88-8.393-29.786-12.582C80.743,121.152,79.73,120.914,78.693,120.947z"/>
		<path fill-rule="evenodd" clip-rule="evenodd" fill="#D1D1D1" d="M78.693,16.391c0.598,0,1.207,0,1.876,0
			c-0.113-5.576-0.337-10.955-1.876-16.202V16.391z"/>
		<path fill-rule="evenodd" clip-rule="evenodd" fill="#D1D1D1" d="M83.582,19.562c-1.59-0.918-3.217-1.465-4.889-1.435v13.781
			c1.812,0,3.622,0,5.499,0c0-3.633,0.016-7.474-0.026-11.314C84.161,20.239,83.883,19.735,83.582,19.562z"/>
		<path fill-rule="evenodd" clip-rule="evenodd" fill="#D1D1D1" d="M94.479,41.861c-3.981-4.26-8.789-7.159-14.774-7.576
			c-0.341-0.024-0.677-0.038-1.011-0.045v24.653c8.874,0.003,17.734,1.633,26.635,4.907c0-0.4,0.033-0.567-0.005-0.714
			C103.279,55.207,100.101,47.876,94.479,41.861z"/>
	</g>
</g>
</svg>
