<?xml version="1.0" encoding="utf-8"?>
<!-- Generator: Adobe Illustrator 16.0.4, SVG Export Plug-In . SVG Version: 6.00 Build 0)  -->
<!DOCTYPE svg PUBLIC "-//W3C//DTD SVG 1.1//EN" "http://www.w3.org/Graphics/SVG/1.1/DTD/svg11.dtd">
<svg version="1.1" id="Layer_1" xmlns="http://www.w3.org/2000/svg" xmlns:xlink="http://www.w3.org/1999/xlink" x="0px" y="0px"
	 width="1400px" height="307px" viewBox="0 0 1400 307" enable-background="new 0 0 1400 307" xml:space="preserve">
<g>
	<defs>
		<rect id="SVGID_1_" x="0" width="1400" height="307"/>
	</defs>
	<clipPath id="SVGID_2_">
		<use xlink:href="#SVGID_1_"  overflow="visible"/>
	</clipPath>
	<g clip-path="url(#SVGID_2_)">
		<linearGradient id="SVGID_3_" gradientUnits="userSpaceOnUse" x1="700.0005" y1="-4.882812e-04" x2="700.0005" y2="242.9155">
			<stop  offset="0" style="stop-color:#353635"/>
			<stop  offset="0.2704" style="stop-color:#262626"/>
			<stop  offset="0.5618" style="stop-color:#151616"/>
			<stop  offset="0.8151" style="stop-color:#070807"/>
			<stop  offset="1" style="stop-color:#010101"/>
		</linearGradient>
		<rect x="0" y="0" fill="url(#SVGID_3_)" width="1400" height="242.916"/>
		<linearGradient id="SVGID_4_" gradientUnits="userSpaceOnUse" x1="321.5845" y1="77.873" x2="321.5845" y2="389.7534">
			<stop  offset="0" style="stop-color:#E0E1E0"/>
			<stop  offset="0.4324" style="stop-color:#DBDBDA"/>
			<stop  offset="0.9812" style="stop-color:#CDCBCB"/>
			<stop  offset="1" style="stop-color:#CCCBCB"/>
		</linearGradient>
		<path fill="url(#SVGID_4_)" d="M596.77,215.16c-22.051-12.362-42.266-35.26-69.83-34.802
			c-27.564,0.458-40.719,37.215-88.497,32.637c-0.388-0.037-0.773-0.087-1.161-0.131c-0.73,3.389-3.756,5.937-7.37,5.937
			c-4.157,0-7.54-3.372-7.54-7.517c0-0.575,0.071-1.134,0.195-1.674c-40.429-13.188-74.315-57.953-117.061-70.464
			c-23.528-6.887-39.618-8.931-53.699-8.317c0.032,0.281,0.052,0.565,0.052,0.854c0,4.145-3.383,7.517-7.541,7.517
			c-3.889,0-7.098-2.949-7.497-6.723c-14.575,2.483-29.134,7.182-50.761,11.249c-60.67,11.409-94.179-31.14-130.932-50.372
			C18.376,74.123,0,78.244,0,78.244v311.509h643.168V230.729C643.169,230.729,618.82,227.523,596.77,215.16z"/>
		<ellipse fill="#E0E1E0" cx="429.913" cy="211.284" rx="5.54" ry="5.522"/>
		<ellipse fill="#E0E1E0" cx="244.319" cy="131.684" rx="5.54" ry="5.522"/>
		<g>
			<ellipse fill="#F2F2F2" cx="1071.502" cy="125.08" rx="5.54" ry="5.522"/>
			<ellipse fill="#F2F2F2" cx="700.193" cy="131.727" rx="5.54" ry="5.522"/>
			<ellipse fill="#F2F2F2" cx="431.913" cy="274.023" rx="5.54" ry="5.522"/>
			<ellipse fill="#F2F2F2" cx="126.573" cy="281.539" rx="5.54" ry="5.522"/>
			<path fill="#F4F4F4" d="M1232.622,29.987c-48.453,25.355-94.143,70.61-153.872,93.045c0.186,0.651,0.292,1.337,0.292,2.048
				c0,4.146-3.382,7.518-7.541,7.518c-3.177,0-5.895-1.972-7.004-4.749c-28.893,8.669-61.112,11.67-98.371,4.663
				c-99.118-18.642-125.3-43.807-243.119-9.321c-5.381,1.575-10.689,3.415-15.939,5.461c0.425,0.94,0.667,1.979,0.667,3.075
				c0,4.145-3.383,7.517-7.541,7.517c-3.138,0-5.832-1.922-6.966-4.646c-84.157,39.463-153.617,130.548-240.8,138.903
				c-4.476,0.429-8.799,0.676-12.986,0.764c-0.13,4.033-3.453,7.275-7.529,7.275c-4.157,0-7.54-3.372-7.54-7.517
				c0-0.058,0.007-0.113,0.009-0.17c-75.052-5.747-101.786-65.943-152.08-66.779c-55.231-0.918-102.208,35.505-140.324,69.234
				c1.32,1.355,2.136,3.198,2.136,5.23c0,4.145-3.383,7.517-7.541,7.517c-2.804,0-5.25-1.536-6.549-3.805
				C77.867,310.312,0,302.173,0,302.173v87.58h1400V1.256C1400.001,1.256,1307.429-9.159,1232.622,29.987z"/>
		</g>
	</g>
</g>
</svg>
