<?xml version="1.0" encoding="utf-8"?>
<!-- Generator: Adobe Illustrator 16.0.4, SVG Export Plug-In . SVG Version: 6.00 Build 0)  -->
<!DOCTYPE svg PUBLIC "-//W3C//DTD SVG 1.1//EN" "http://www.w3.org/Graphics/SVG/1.1/DTD/svg11.dtd">
<svg version="1.1" id="Layer_1" xmlns="http://www.w3.org/2000/svg" xmlns:xlink="http://www.w3.org/1999/xlink" x="0px" y="0px"
	 width="475px" height="306px" viewBox="0 0 475 306" enable-background="new 0 0 475 306" xml:space="preserve">
<g>
	<g>
		<path fill="#FFFFFF" d="M99.254,286.975h61.688v-24.998h-63.63L99.254,286.975z M103.8,267.96h51.136v13.03h-50.123L103.8,267.96z
			"/>
		<path fill="#FFFFFF" d="M258.479,79.659c-2.435-7.685-6.369-11.581-11.691-11.581c-3.031,0-6.414,1.295-10.343,3.96
			c-18.87,12.8-37.743,25.595-56.616,38.389l-6.33,4.291c-15.366,10.417-30.732,20.834-46.096,31.254
			c-40.2,27.264-80.397,54.535-120.586,81.818c-6.628,4.499-8.134,8.813-5.754,16.487c1.001,3.229,2.031,6.447,3.061,9.664
			l1.004,3.144c2.802,8.79,5.273,10.567,14.687,10.575c7.837,0.005,15.674,0.007,23.512,0.007l35.664-0.003
			c0.121,1.966,0.243,3.917,0.365,5.874c0.407,6.538,0.792,12.715,1.131,18.985c0.472,8.728,5.321,13.353,14.022,13.375
			c23.484,0.061,46.717,0.095,69.053,0.102h0.014c10.304,0,14.554-3.98,15.159-14.199c0.366-6.158,0.77-12.156,1.198-18.507
			l0.377-5.63l67.669,0.003c16.914,0,33.832-0.002,50.746-0.009c6.332-0.004,10.545-1.553,12.887-4.736
			c2.344-3.191,2.551-7.68,0.633-13.723C294.307,192.689,276.384,136.177,258.479,79.659z M174.685,261.682l-0.185,2.795
			c-0.172,2.621-0.347,5.215-0.521,7.791l-0.042,0.625c-0.409,6.061-0.831,12.326-1.2,18.557c-0.418,7.047-2.045,8.568-9.165,8.568
			h-0.013c-22.331-0.008-45.559-0.041-69.039-0.103c-5.63-0.015-7.734-2.033-8.041-7.713c-0.337-6.229-0.718-12.349-1.122-18.828
			l-0.015-0.242c-0.177-2.843-0.356-5.718-0.534-8.64l-0.17-2.812l-41.316,0.004c-7.836,0-15.671-0.002-23.508-0.008
			c-6.798-0.005-6.965-0.125-8.967-6.404l-1.006-3.146c-1.024-3.201-2.049-6.403-3.044-9.615c-1.61-5.19-1.07-6.745,3.397-9.776
			c40.189-27.282,80.386-54.553,120.585-81.816c15.433-10.467,30.869-20.932,46.304-31.395l6.746-4.573
			c18.666-12.653,37.331-25.307,55.991-37.965c2.859-1.939,5.203-2.923,6.965-2.923c0.99,0,3.621,0,5.967,7.399
			c17.905,56.519,35.827,113.033,53.764,169.543c1.282,4.039,1.365,6.859,0.248,8.383c-1.115,1.518-3.822,2.286-8.043,2.288
			c-16.914,0.007-33.83,0.009-50.744,0.009L174.685,261.682z"/>
		<path fill="#FFFFFF" d="M356.125,245.727c-15.977-50.598-32.296-102.024-48.079-151.76l-3.685-11.608
			c-0.516-1.626-1.027-3.255-1.541-4.883l-0.256-0.818c-2.008-6.389-4.084-12.995-6.356-19.438
			c-2.287-6.483-8.812-11.372-15.175-11.372c-0.702,0-1.396,0.06-2.068,0.178c-7.628,1.342-12.658,7.973-12.822,16.901l-0.006,0.386
			l0.096,0.386c0.107,0.429,0.223,0.929,0.349,1.479l0.036,0.158c0.369,1.626,0.831,3.651,1.471,5.677
			c17.932,56.685,35.395,111.801,51.901,163.815l1.382,4.375c2.295,7.283,4.666,14.814,7.407,22.156
			c2.309,6.18,8.517,10.664,14.762,10.664c0.608,0,1.216-0.045,1.804-0.133c7.307-1.098,12.633-7.072,12.949-14.527
			C358.458,253.48,357.361,249.645,356.125,245.727z M343.539,266.041c-3.704,0-7.716-2.973-9.133-6.768
			c-2.674-7.156-5.022-14.613-7.307-21.862l-1.386-4.384c-16.762-52.815-34.223-107.93-51.899-163.812
			c-0.562-1.776-0.991-3.662-1.353-5.246c-0.108-0.473-0.209-0.915-0.304-1.312c0.227-5.734,3.287-9.936,7.851-10.739
			c0.326-0.057,0.673-0.086,1.023-0.086c3.874,0,8.051,3.238,9.509,7.372c2.238,6.349,4.3,12.908,6.32,19.336
			c0.59,1.875,1.18,3.75,1.773,5.623l3.854,12.146c15.727,49.558,31.988,100.802,47.904,151.212c1.071,3.392,2.021,6.676,1.896,9.59
			c-0.197,4.627-3.352,8.188-7.85,8.865C344.156,266.02,343.854,266.041,343.539,266.041z"/>
	</g>
	<g>
		<path fill="#FFFFFF" d="M398.577,143.321c1.375-0.074,2.729-0.366,4.026-0.867l50.768-19.677c3.237-1.255,5.793-3.695,7.195-6.873
			c1.4-3.177,1.479-6.703,0.221-9.929l-1.33-3.406c-2.046-5.241-7.205-8.56-12.839-8.258c-1.38,0.073-2.734,0.366-4.027,0.867
			l-50.765,19.676c-3.243,1.257-5.803,3.697-7.203,6.871c-1.4,3.174-1.479,6.701-0.216,9.932l1.327,3.406
			C387.784,140.304,392.945,143.622,398.577,143.321z M446.927,100.016c3.152-0.169,6.041,1.69,7.187,4.624l1.329,3.407
			c0.706,1.805,0.661,3.779-0.123,5.558c-0.785,1.779-2.216,3.146-4.028,3.848l-50.766,19.676c-0.729,0.282-1.49,0.446-2.256,0.487
			c-3.152,0.169-6.041-1.689-7.188-4.624l-1.328-3.407c-0.709-1.809-0.666-3.783,0.12-5.56c0.783-1.776,2.215-3.142,4.031-3.845
			l50.766-19.676C445.398,100.221,446.157,100.057,446.927,100.016z"/>
		<path fill="#FFFFFF" d="M402.397,13.188c-0.57-3.466-2.463-6.504-5.323-8.554l-3.021-2.162c-2.236-1.603-4.873-2.457-7.621-2.472
			c-4.271-0.023-8.31,2.025-10.8,5.475l-32.229,44.68c-4.244,5.889-2.894,14.122,3.017,18.354l3.021,2.162
			c2.24,1.603,4.875,2.457,7.623,2.472c4.271,0.022,8.31-2.025,10.799-5.476l32.229-44.681
			C402.146,20.132,402.966,16.653,402.397,13.188z M357.092,67.371c-1.537-0.008-3.016-0.488-4.273-1.387l-3.019-2.162
			c-3.315-2.375-4.075-6.993-1.692-10.297l32.23-44.68c1.396-1.937,3.663-3.086,6.062-3.073c1.535,0.008,3.016,0.488,4.272,1.387
			l3.021,2.163c1.604,1.15,2.664,2.854,2.985,4.799c0.318,1.946-0.142,3.899-1.296,5.498l-32.229,44.68
			C361.757,66.234,359.489,67.384,357.092,67.371z"/>
		<path fill="#FFFFFF" d="M472.693,215.475c-2.052-3.099-5.19-5.216-8.84-5.961l-57.344-11.734c-1.174-0.239-2.371-0.329-3.56-0.268
			c-6.321,0.34-11.63,4.896-12.904,11.08l-0.795,3.852c-0.747,3.636-0.03,7.345,2.019,10.439c2.051,3.1,5.188,5.217,8.839,5.963
			l57.344,11.732c1.175,0.238,2.373,0.329,3.562,0.265c6.322-0.339,11.629-4.896,12.904-11.079l0.794-3.85
			C475.459,222.279,474.742,218.57,472.693,215.475z M460.688,234.824c-0.673,0.035-1.353-0.016-2.021-0.152l-57.344-11.73
			c-2.066-0.422-3.843-1.621-5.003-3.375s-1.565-3.853-1.144-5.908l0.796-3.852c0.722-3.502,3.725-6.08,7.301-6.271
			c0.67-0.037,1.35,0.014,2.02,0.15l57.345,11.732c2.065,0.422,3.844,1.62,5.002,3.375c1.161,1.753,1.565,3.854,1.142,5.91
			l-0.792,3.847C467.268,232.052,464.265,234.634,460.688,234.824z"/>
	</g>
</g>
</svg>
