<?xml version="1.0" encoding="utf-8"?>
<!-- Generator: Adobe Illustrator 16.0.4, SVG Export Plug-In . SVG Version: 6.00 Build 0)  -->
<!DOCTYPE svg PUBLIC "-//W3C//DTD SVG 1.1//EN" "http://www.w3.org/Graphics/SVG/1.1/DTD/svg11.dtd">
<svg version="1.1" id="Layer_1" xmlns="http://www.w3.org/2000/svg" xmlns:xlink="http://www.w3.org/1999/xlink" x="0px" y="0px"
	 width="424px" height="302px" viewBox="0 0 424 302" enable-background="new 0 0 424 302" xml:space="preserve">
<g>
	<path fill="#FFFFFF" d="M415.854,33.228c-6.209-6.845-13.782-10.316-22.512-10.316c-5.701,0-11.777,1.533-18.064,4.558
		c-16.965,8.165-35.678,12.305-55.619,12.305c-2.012,0-4.081-0.042-6.146-0.125c-26.684-1.081-51.742-7.534-79.391-15.224
		c-3.904-1.086-7.807-2.184-11.715-3.285c-29.665-8.346-60.338-16.976-91.902-20.029C122.873,0.374,115.283,0,107.947,0
		C76.984,0,47.89,6.707,21.471,19.933C9.78,25.787,3.64,35.366,3.223,48.406c-0.099,3.098-0.137,6.25-0.174,9.35
		c-0.017,1.401-0.033,2.804-0.056,4.206l-0.716,44.901c-0.722,45.345-1.469,92.231-2.269,138.601
		c-0.163,9.433,2.439,16.99,7.956,23.111c6.28,6.969,13.904,10.502,22.658,10.502c5.746,0,11.908-1.57,18.315-4.666
		c16.766-8.101,35.397-12.207,55.375-12.207c1.814,0,3.643,0.032,5.435,0.096c26.316,0.931,51.987,7.503,76.025,14.154
		c4.984,1.379,9.963,2.782,14.944,4.188c30.017,8.463,61.054,17.215,92.997,20.262c7.619,0.729,15.188,1.098,22.496,1.098
		c27.777,0,53.952-5.383,77.795-16c4.222-1.881,8.26-4.061,11.509-5.816c1.24-0.67,2.366-1.274,3.339-1.778l0.528-0.271l0.408-0.432
		c7.464-7.877,10.743-14.863,10.966-23.358c0.132-5.113,0.204-10.271,0.274-15.306l0.013-0.879c0.024-1.783,0.05-3.568,0.079-5.354
		l0.676-42.354c0.692-43.625,1.41-88.736,2.195-133.649C424.16,47.158,421.498,39.447,415.854,33.228z M414.833,188.398
		l-0.706,44.293c-0.033,2.084-0.062,4.166-0.092,6.248l-0.014,1c-0.065,4.676-0.137,9.49-0.261,14.217
		c-0.169,6.488-2.757,11.969-8.648,18.305c-0.837,0.438-1.765,0.938-2.767,1.477l-0.188,0.104c-3.133,1.69-7.03,3.795-10.995,5.562
		c-23.268,10.359-47.783,15.396-74.952,15.396c-7.08,0-14.426-0.358-21.833-1.063c-31.324-2.99-62.052-11.654-91.767-20.035
		l-0.524-0.146c-4.814-1.357-9.629-2.715-14.45-4.047c-24.437-6.764-50.562-13.445-77.644-14.402
		c-1.899-0.066-3.81-0.102-5.681-0.102c-21.042,0-40.696,4.342-58.415,12.904c-13.198,6.377-24.463,4.963-32.74-4.224
		c-4.274-4.739-6.287-10.727-6.155-18.297c0.794-46.053,1.54-92.885,2.262-138.175l0.724-45.338
		c0.021-1.291,0.036-2.583,0.052-3.874l0.005-0.399c0.035-3.005,0.072-6.113,0.169-9.171c0.329-10.272,5.169-17.82,14.386-22.433
		C50.038,13.46,78.08,7.002,107.947,7.002c7.114,0,14.477,0.363,21.885,1.08c30.94,2.992,61.312,11.537,90.689,19.802l0.242,0.068
		c3.827,1.077,7.654,2.155,11.485,3.219c27.043,7.521,53.586,14.364,80.979,15.473c2.162,0.087,4.326,0.131,6.43,0.131
		c21,0,40.732-4.372,58.652-12.995c5.33-2.566,10.387-3.867,15.031-3.867c6.672,0,12.505,2.699,17.334,8.021
		c4.39,4.835,6.455,10.966,6.32,18.742C416.23,100.595,415.521,145.231,414.833,188.398z"/>
	<path fill="#FFFFFF" d="M395.799,56.65c-0.014-0.528-0.027-1.075-0.037-1.648l-0.074-4.054l-3.994,0.663
		c-0.307,0.051-0.541,0.081-0.762,0.11c-0.494,0.064-1.055,0.137-1.693,0.416c-1.286,0.562-2.565,1.14-3.858,1.726l-1.626,0.733
		c-22.195,9.98-46.834,14.384-73.27,13.128c-27.256-1.294-54.029-8.22-77.651-14.331c-6.194-1.603-12.385-3.233-18.649-4.884
		c-23.186-6.108-47.161-12.424-71.099-17.111c-12.108-2.37-24.146-3.572-35.782-3.572c-24.543,0-48.159,5.327-70.19,15.833
		c-4.198,2.002-5.94,4.746-6.01,9.471c-0.686,47.019-1.444,94.462-2.177,140.347l-0.784,49.178
		c-0.017,1.084,0.062,2.113,0.146,3.205c0.039,0.5,0.079,1.031,0.112,1.604l0.295,5.019l7.446-3.26
		c1.625-0.707,3.098-1.349,4.563-2.011c19.712-8.862,40.609-13.172,63.887-13.172c2.76,0,5.6,0.063,8.442,0.188
		c27.456,1.224,53.945,8.097,79.579,14.746c5.589,1.449,11.176,2.922,16.764,4.396l0.381,0.101
		c23.037,6.073,46.857,12.354,70.675,17.026c12.31,2.416,24.521,3.642,36.299,3.642c24.402,0,47.859-5.244,69.719-15.589
		c5.257-2.491,6.378-5.883,6.443-10.209c0.731-49.563,1.564-101.407,2.233-143.064l0.72-44.961c0.019-1.156-0.013-2.311-0.045-3.551
		L395.799,56.65z M107.302,34.829c11.185,0,22.772,1.158,34.439,3.442c23.731,4.646,47.603,10.936,70.689,17.019l0.331,0.087
		c6.106,1.608,12.212,3.217,18.325,4.798c23.948,6.195,51.09,13.216,79.066,14.545c3.103,0.146,6.214,0.221,9.246,0.221
		c24.009,0,46.625-4.697,67.224-13.959l2.231-1.008c0,0.077-0.002,0.154-0.002,0.231l-0.754,47.138
		c-0.74,46.185-1.506,93.94-2.201,140.896c-0.035,2.379-0.233,2.936-2.439,3.979c-20.913,9.9-43.363,14.919-66.729,14.919
		c-11.326,0-23.086-1.181-34.949-3.511c-23.553-4.623-47.275-10.873-70.252-16.931c-5.72-1.508-11.439-3.016-17.159-4.497
		c-25.968-6.738-52.82-13.707-81.024-14.964c-2.935-0.131-5.88-0.196-8.752-0.196c-23.948,0-46.407,4.639-66.754,13.789
		c-0.883,0.396-1.769,0.787-2.69,1.19l0.761-47.809c0.735-46.028,1.497-93.623,2.188-140.978c0.029-2.045,0.256-2.41,2.023-3.252
		C61.205,39.927,83.808,34.829,107.302,34.829z"/>
	<path fill="#FFFFFF" d="M214.407,99.335l-3.182-0.003c-12.124,0-21.36,6.687-21.962,15.901
		c-0.657,10.062,7.797,18.548,20.101,20.176l3.225,0.428L214.407,99.335z M208.097,105.52l-1.161,23.297
		c-7.426-2.018-12.081-7.211-11.689-13.192C195.588,110.383,200.699,106.41,208.097,105.52z"/>
	<path fill="#FFFFFF" d="M211.521,196.973l2.967,0.199c0.607,0.039,1.214,0.059,1.812,0.059c11.172,0,20.738-6.854,22.252-15.944
		c1.823-10.937-6.299-20.009-21.197-23.681l-3.498-0.858L211.521,196.973z M217.861,191.174l1.555-26.725
		c9.432,3.205,14.355,9.07,13.225,15.848C231.691,185.988,225.307,190.619,217.861,191.174z"/>
	<path fill="#FFFFFF" d="M201.942,190.779c-6.889-1.254-9.642-4.197-11.51-11.969c-0.136-0.568-0.255-1.152-0.383-1.785
		c-0.464-2.283-0.944-4.646-2.323-6.74c-1.074-1.633-4-5.562-7.943-6.811c-1.436-0.453-2.875-0.685-4.277-0.685
		c-3.272,0-6.176,1.213-8.399,3.508c-2.751,2.845-4.183,7.103-4.029,11.992c0.324,10.33,4.663,19.265,12.896,26.558
		c6.552,5.803,14.638,8.961,25.389,9.905l0.021,0.481c0.088,2.084,0.174,4.088,0.269,6.093c0.25,5.239,3.427,8.498,8.291,8.498
		c0.131,0,0.264-0.003,0.39-0.009c2.579-0.088,4.627-0.946,6.089-2.555c1.56-1.709,2.265-4.062,2.097-6.988
		c-0.102-1.799-0.209-3.598-0.303-5.16c2.167-0.672,4.297-1.297,6.209-1.854c6.055-1.778,11.774-3.457,17.256-5.979
		c15.715-7.23,21.777-19.248,18.536-36.74c-2.026-10.928-7.215-19.222-15.419-24.653c-4.178-2.765-8.684-4.997-13.045-7.157
		c-2.54-1.257-5.166-2.558-7.688-3.952c-0.891-0.491-1.557-1.176-1.824-1.509c0.355-7.639,0.951-15.389,1.582-23.587l0.295-3.867
		c2.254,1.001,4.197,1.881,5.47,3.123c3.156,3.086,5.735,7.296,8.011,11.012c2.037,3.323,5.062,7.137,10.422,7.137
		c0.914,0,1.875-0.118,2.856-0.35c5.97-1.416,9.479-5.7,10.151-12.389c0.832-8.28-2.432-15.36-9.979-21.647
		c-7.029-5.856-15.492-9.25-26.58-10.649c-0.271-3.403-1.145-8.644-7.709-8.95c-0.21-0.009-0.414-0.014-0.613-0.014
		c-7.178,0-8.134,5.634-8.405,8.69c-1.927,0.609-3.843,1.175-5.708,1.726c-5.475,1.615-10.647,3.141-15.572,5.557
		c-10.761,5.282-17.661,13.825-19.428,24.055c-1.773,10.268,2.063,21.143,10.526,29.836c6.333,6.505,14.42,11.52,25.451,15.781
		c0.377,0.146,0.83,0.484,1.129,0.754c-0.509,9.046-1.21,18.267-1.888,27.189L201.942,190.779z M207.45,197.492l0.782-10.377
		c0.697-9.16,1.418-18.631,1.938-28.041c0.159-2.965-3.299-5.281-4.999-5.939c-10.199-3.942-17.607-8.508-23.316-14.372
		c-7.211-7.408-10.376-16.153-8.913-24.625c1.431-8.284,7.17-15.276,16.161-19.689c4.461-2.19,9.399-3.647,14.649-5.197
		c2.505-0.739,5.096-1.504,7.744-2.383l1.779-0.59l0.248-1.86c0.061-0.45,0.103-0.955,0.142-1.486c0.28-3.687,0.75-3.85,2.337-3.85
		c0.15,0,0.311,0.004,0.484,0.014c1.441,0.067,1.783,0.083,2.066,4.271c0.039,0.564,0.079,1.13,0.135,1.688l0.242,2.456l2.453,0.236
		c11.065,1.062,19.274,4.103,25.833,9.566c5.897,4.914,8.466,10.289,7.849,16.434c-0.409,4.075-2.18,6.346-5.568,7.149
		c-0.527,0.125-1.023,0.188-1.477,0.188c-1.36,0-2.893-0.331-5.321-4.295c-2.456-4.007-5.24-8.548-8.923-12.146
		c-2.075-2.029-4.664-3.178-7.442-4.411c-1.146-0.509-2.329-1.034-3.494-1.64l-0.646-0.336l-3.297,0.741l-0.397,1.826l-0.028,0.21
		c-0.188,2.521-0.375,4.974-0.561,7.373l-0.062,0.816c-0.645,8.378-1.254,16.292-1.615,24.22c-0.135,2.974,3.041,5.542,4.938,6.59
		c2.592,1.433,5.297,2.774,7.932,4.08c4.192,2.077,8.529,4.225,12.393,6.781c6.796,4.499,11.111,11.478,12.83,20.745
		c2.669,14.398-2.285,24.273-15.146,30.191c-5.09,2.344-10.606,3.961-16.449,5.674c-2.754,0.809-5.604,1.645-8.565,2.605
		l-2.207,0.715l0.302,5.033c0.088,1.465,0.188,3.11,0.281,4.76c0.068,1.238-0.117,2.139-0.539,2.602
		c-0.332,0.365-0.972,0.574-1.832,0.604l-0.221,0.004c-1.143,0-2.18-0.213-2.301-2.783c-0.095-1.991-0.181-3.985-0.269-6.062
		l-0.254-5.891l-2.722-0.141c-10.683-0.553-18.452-3.283-24.451-8.596c-6.946-6.152-10.606-13.64-10.876-22.25
		c-0.102-3.254,0.73-5.963,2.343-7.629c1.071-1.105,2.478-1.691,4.067-1.691c0.79,0,1.629,0.141,2.497,0.414
		c1.422,0.451,3.284,2.174,4.744,4.391c0.74,1.123,1.103,2.908,1.454,4.635c0.136,0.67,0.273,1.34,0.43,1.99
		c2.711,11.287,7.887,15.727,19.779,16.965L207.45,197.492z"/>
	<path fill="#FFFFFF" d="M276.574,103.119l0.058,2.156l2.06,0.633c1.002,0.308,1.867,0.62,2.703,0.922
		c1.775,0.641,3.311,1.194,5.063,1.316c3.694,0.256,7.39,0.55,11.104,0.845l0.193,0.016c10.295,0.82,20.939,1.668,31.463,1.668
		c0.584,0,1.166-0.002,1.749-0.008c10.987-0.1,22.015-1.866,32.677-3.574l2.91-0.465c3.797-0.603,7.625-4.577,8.685-7.767
		c1.151-3.469-1.685-8.011-4.066-10.129c-1.309-1.162-3.269-1.751-5.823-1.751c-1.254,0-2.418,0.142-3.177,0.26
		c-16.259,2.552-28.729,3.69-40.431,3.69c-4.631,0-9.186-0.19-13.535-0.564c-4.148-0.357-8.364-0.888-12.51-1.409
		c-2.688-0.337-5.465-0.687-8.238-0.989c-5.468-0.595-9.635,1.827-10.854,6.263c-0.6,2.175-0.397,4.349-0.197,6.511
		C276.479,101.534,276.555,102.352,276.574,103.119z M365.35,92.984c1.174,0,1.771,0.2,1.844,0.239
		c1.425,1.265,2.271,3.302,2.326,3.833c-0.568,1.539-2.775,3.467-3.904,3.646l-2.916,0.465c-10.446,1.673-21.25,3.402-31.785,3.498
		c-0.562,0.005-1.126,0.008-1.695,0.008c-10.285,0-20.811-0.838-31.002-1.651L297.932,103c-3.688-0.293-7.375-0.586-11.062-0.842
		c-0.914-0.063-2.028-0.464-3.44-0.974c-0.316-0.114-0.647-0.233-0.994-0.356c-0.021-0.223-0.041-0.457-0.064-0.712
		c-0.15-1.629-0.293-3.167,0.016-4.289c0.174-0.633,0.536-1.951,3.354-1.951c0.341,0,0.701,0.021,1.072,0.061
		c2.717,0.295,5.461,0.64,8.17,0.981c4.148,0.521,8.438,1.061,12.711,1.429c4.521,0.39,9.246,0.587,14.051,0.587
		c12.025,0,24.781-1.161,41.359-3.762C363.648,93.086,364.484,92.984,365.35,92.984z"/>
	<path fill="#FFFFFF" d="M58.157,216.385c0.844,0,1.715-0.074,2.591-0.221c14.194-2.365,27.451-3.516,40.528-3.516
		c11.034,0,21.946,0.86,32.433,2.561c0.611,0.098,1.291,0.15,1.966,0.15c1.308,0,4.541-0.217,6.303-2.23
		c1.987-2.268,4.042-5.9,3.854-9.295c-0.39-7.068-7.406-8.191-10.048-8.615c-11.221-1.791-22.858-2.701-34.587-2.701
		c-13.88,0-28.446,1.277-43.292,3.793c-1.578,0.271-3.01,0.787-4.398,1.291c-0.503,0.185-1,0.363-1.488,0.521l-1.157,0.367
		l-0.575,1.069c-0.243,0.453-0.488,0.863-0.731,1.269c-0.569,0.95-1.157,1.937-1.509,3.112c-0.924,3.086-0.468,6.084,1.285,8.441
		C51.223,214.926,54.44,216.385,58.157,216.385z M101.196,198.52c11.416,0,22.735,0.885,33.643,2.627
		c4.884,0.781,4.953,2.021,5.008,3.019c0.076,1.379-1.126,3.556-2.282,4.901c-0.218,0.099-0.858,0.291-1.89,0.291
		c-0.357,0-0.707-0.024-1.007-0.071c-10.8-1.75-22.035-2.638-33.392-2.638c-13.417,0-26.997,1.177-41.513,3.597
		c-2.483,0.412-4.673-0.168-5.622-1.447c-0.761-1.022-0.611-2.269-0.351-3.135c0.139-0.465,0.498-1.063,0.913-1.761
		c0.088-0.146,0.178-0.297,0.269-0.448c0.214-0.076,0.433-0.156,0.662-0.238c1.099-0.399,2.235-0.812,3.273-0.985
		C73.424,199.768,87.653,198.52,101.196,198.52z"/>
</g>
</svg>
