<?xml version="1.0" encoding="utf-8"?>
<!-- Generator: Adobe Illustrator 16.0.4, SVG Export Plug-In . SVG Version: 6.00 Build 0)  -->
<!DOCTYPE svg PUBLIC "-//W3C//DTD SVG 1.1//EN" "http://www.w3.org/Graphics/SVG/1.1/DTD/svg11.dtd">
<svg version="1.1" id="Layer_1" xmlns="http://www.w3.org/2000/svg" xmlns:xlink="http://www.w3.org/1999/xlink" x="0px" y="0px"
	 width="323px" height="526px" viewBox="0 0 323 526" enable-background="new 0 0 323 526" xml:space="preserve">
<g>
	<path fill="#FFFFFF" stroke="#FFFFFF" d="M303.469,231.457c-10.404-66.36-68.947-116.402-136.177-116.402
		c-6.531,0-13.132,0.481-19.619,1.43c-56.895,8.323-95.569,40.721-114.949,96.295c-6.241,17.894-6.586,36.281-6.392,56.736
		c0.025,2.633-0.676,5.569-1.924,8.065c-3.812,7.619-7.804,15.28-11.675,22.715c-3.373,6.476-6.86,13.17-10.211,19.806
		c-5.32,10.526-2.087,20.612,8.438,26.317l1.14,0.619c3.988,2.166,8.113,4.405,12.376,6.313c1.717,0.769,2.059,1.322,2.037,3.303
		c-0.122,10.785-0.102,21.746-0.083,32.412c0.006,3.359,0.012,6.72,0.014,10.076c0.012,21.875,14.827,36.599,36.864,36.634
		c4.84,0.008,9.68,0.01,14.521,0.01l26.191-0.004V526h3.003c25.593,0,50.688-25.768,74.961-50.689
		c23.576-24.207,47.955-49.237,71.371-49.237h3.002l0.002-4.133c0.006-3.271,0.021-13.229-0.07-57.55
		c-0.006-2.771,0.705-4.371,2.82-6.346C296.277,323.373,311.203,280.783,303.469,231.457z M250.354,420.191
		c-24.902,1.889-49.18,26.812-72.685,50.946c-22.382,22.98-45.499,46.716-67.645,48.729v-90.08h-8.69l-23.508,0.006
		c-4.837,0-9.673-0.002-14.51-0.01c-18.741-0.031-30.857-12.06-30.868-30.642c-0.002-3.362-0.008-6.725-0.014-10.149
		c-0.019-10.582-0.039-21.521,0.083-32.27c0.049-4.363-1.673-7.091-5.587-8.843c-4.046-1.812-8.069-3.993-11.962-6.106l-1.143-0.621
		c-7.59-4.115-9.757-10.805-5.943-18.353c3.341-6.61,6.823-13.295,10.19-19.762l0.064-0.121c3.854-7.401,7.841-15.058,11.643-22.655
		c1.659-3.314,2.591-7.255,2.558-10.804c-0.19-19.884,0.135-37.725,6.057-54.708c18.586-53.295,55.645-84.362,110.148-92.334
		c6.2-0.907,12.507-1.367,18.749-1.367c64.3,0,120.292,47.863,130.243,111.333c7.407,47.244-6.901,88.048-42.528,121.281
		c-3.365,3.142-4.734,6.254-4.725,10.739C250.359,402.695,250.359,415.326,250.354,420.191z"/>
	<path fill="#FFFFFF" stroke="#FFFFFF" d="M266.198,209.08c0.118-0.758,0.256-1.512,0.397-2.293c0.516-2.809,1-5.461,0.555-8.228
		c-1.096-6.816-6.19-10.94-9.926-13.45c-0.258-0.171-0.565-0.654-0.604-0.757c-0.619-7.725-5.615-13.056-13.362-14.261
		c-0.474-0.073-1.138-0.501-1.271-0.679c-4.834-7.825-10.243-11.314-17.539-11.314c-1.873,0-3.838,0.237-5.984,0.724
		c-4.156-6.598-9.914-9.942-17.123-9.942c-2.398,0-4.977,0.385-7.667,1.146c-0.045-0.012-0.088-0.026-0.098-0.029
		c-4.798-3.411-9.996-5.14-15.447-5.14c-4.946,0-10.08,1.372-15.696,4.192c-0.802,0.403-1.244,0.56-1.574,0.56
		c-0.236,0-0.513-0.075-0.981-0.269c-3.32-1.368-6.681-2.062-9.991-2.062c-7.284,0-13.887,3.378-18.593,9.511
		c-0.093,0.121-0.164,0.206-0.215,0.262c-0.132-0.02-0.339-0.058-0.658-0.137c-1.948-0.486-3.986-0.731-6.058-0.731
		c-9.673,0-19.444,5.428-24.358,13.518c-0.173,0.124-0.656,0.374-1.161,0.451c-10.948,1.663-14.771,8.882-14.767,14.811
		c-9.273,5.956-14.158,12.644-16.296,22.27c-1.778,8.002-0.964,14.801,2.352,19.661c2.167,3.174,5.357,5.441,9.259,6.588
		c0.399,10.022,4.345,14.396,15.301,17.169c6.465,1.637,13.314,2.686,18.837,3.532c3.215,0.492,6.358,0.751,9.693,1.026l0.158,0.013
		c-2.801,8.069-0.46,14.813,6.97,20.063c4.814,3.402,10.583,5.572,18.156,6.83c10.31,1.715,16.038,5.895,18.569,13.551
		c1.194,3.619,2.481,7.258,3.733,10.809l0.037,0.103c1.34,3.793,2.725,7.717,3.986,11.588l0.096,0.293
		c2.277,6.985,3.495,7.885,10.86,8.026l0.526,0.009c5.729,0,6.516-4.438,6.772-5.896c0.683-3.843,1.547-7.74,2.479-11.925
		c5.334,5.037,11.42,7.695,17.636,7.693c9.459,0,17.534-6.21,21.604-16.609c0.896-2.293,1.541-4.668,2.166-6.978l0.064-0.235
		c0.08,0.021,0.163,0.039,0.242,0.06c8.646,2.069,16.615-0.023,21.455-5.545c3.922-4.476,5.582-10.867,4.681-18.017
		c0.026-0.065,0.065-0.147,0.094-0.201c6.078-3.618,10.005-8.752,11.671-15.263C279.459,236.875,276.438,221.907,266.198,209.08z
		 M257.148,269.619c0.729,5.426-0.389,10.152-3.146,13.301c-2.408,2.75-5.932,4.203-10.186,4.203c-1.606,0-3.312-0.213-5.063-0.631
		c-0.653-0.158-1.306-0.338-1.994-0.525l-4.061-1.088l-0.866,2.938c-0.311,1.052-0.594,2.095-0.876,3.127l-0.054,0.189
		c-0.573,2.127-1.168,4.324-1.954,6.338c-3.089,7.896-8.974,12.611-15.748,12.611c-4.701,0-9.425-2.184-13.661-6.318
		c-0.573-0.557-1.132-1.26-1.844-2.154l-0.125-0.157c-0.391-0.484-0.812-1.015-1.299-1.599l-4.129-4.955l-1.365,6.304
		c-0.405,1.881-0.81,3.682-1.197,5.426l-0.082,0.371c-0.966,4.321-1.879,8.403-2.604,12.5c-0.059,0.324-0.106,0.562-0.147,0.707
		c-0.117,0.004-0.272,0.004-0.413,0.004l-0.445-0.006c-1.421-0.027-3.171-0.062-3.688-0.218c-0.301-0.45-0.846-2.12-1.286-3.477
		l-0.097-0.291c-1.312-4.025-2.777-8.176-4.071-11.838c-1.235-3.494-2.515-7.107-3.697-10.684
		c-4.346-13.156-15.498-16.447-23.509-17.779c-6.693-1.111-11.49-2.889-15.554-5.762c-5.637-3.982-6.805-8.172-4.033-14.46
		c0.139-0.317,0.274-0.635,0.441-1.029l2.099-4.92l-4.279-0.411c-1.51-0.145-3-0.268-4.476-0.389
		c-3.212-0.265-6.247-0.515-9.254-0.976c-6.833-1.046-12.515-1.961-18.245-3.411c-9.025-2.284-10.708-4.438-10.584-13.555
		l0.035-2.72L83,227.86c-3.365-0.53-6.016-2.088-7.666-4.505c-2.313-3.39-2.801-8.495-1.409-14.765
		c1.864-8.394,6.224-13.977,15.047-19.271l1.803-1.082l-0.312-2.076c-0.909-6.051,4.457-9.062,9.328-9.801
		c1.803-0.273,4.335-1.305,5.538-3.31c3.8-6.333,11.45-10.587,19.035-10.587c1.559,0,3.085,0.183,4.535,0.544
		c0.64,0.16,1.488,0.343,2.369,0.343c2.617,0,4.12-1.565,5.023-2.742c3.489-4.546,8.318-7.049,13.597-7.049
		c2.479,0,5.033,0.534,7.59,1.586c1.185,0.488,2.291,0.725,3.384,0.725c1.75,0,3.207-0.612,4.4-1.21
		c9.723-4.882,17.353-4.746,24.668,0.452c1.459,1.039,3.672,1.479,5.244,1.018c8.788-2.554,14.844-0.093,18.971,7.79l1.196,2.286
		l2.478-0.727c2.525-0.74,4.695-1.101,6.632-1.101c4.933,0,8.575,2.491,12.184,8.33c1.278,2.071,3.765,3.295,5.658,3.59
		c4.882,0.758,7.667,3.716,8.058,8.555c0.186,2.33,1.875,4.468,3.361,5.468c4.393,2.949,6.688,5.882,7.229,9.231
		c0.271,1.704-0.101,3.742-0.539,6.146c-0.228,1.248-0.465,2.538-0.633,3.928l-0.164,1.351l0.877,1.043
		c9.58,11.428,12.475,24.886,8.607,40c-1.256,4.903-4.271,8.78-8.966,11.524C258.218,264.656,256.855,267.439,257.148,269.619z"/>
	<path fill="#FFFFFF" stroke="#FFFFFF" d="M171.964,82.606c-9.198,0-16.684-7.471-16.684-16.655V16.654
		C155.28,7.471,162.766,0,171.964,0c9.199,0,16.685,7.471,16.685,16.654v49.297C188.646,75.135,181.163,82.606,171.964,82.606z
		 M171.964,5.996c-5.888,0-10.678,4.782-10.678,10.659v49.297c0,5.877,4.79,10.659,10.678,10.659s10.679-4.782,10.679-10.659V16.654
		C182.643,10.777,177.852,5.996,171.964,5.996z"/>
	<path fill="#FFFFFF" stroke="#FFFFFF" d="M275.107,117.514c-3.824,0-7.566-1.331-10.537-3.749
		c-7.129-5.803-8.198-16.314-2.385-23.432l31.207-38.205c3.183-3.896,7.897-6.13,12.938-6.13c3.826,0,7.567,1.332,10.537,3.749
		c7.129,5.804,8.199,16.316,2.386,23.432l-31.208,38.205C284.861,115.28,280.148,117.514,275.107,117.514z M306.33,51.995
		c-3.227,0-6.245,1.43-8.281,3.923L266.84,94.123c-3.72,4.555-3.035,11.283,1.527,14.996c1.929,1.57,4.259,2.4,6.74,2.4
		c3.228,0,6.246-1.43,8.281-3.923l31.208-38.205c3.722-4.554,3.035-11.282-1.526-14.997
		C311.143,52.825,308.812,51.995,306.33,51.995z"/>
	<path fill="#FFFFFF" stroke="#FFFFFF" d="M66.935,109.977c-4.971,0-9.646-2.186-12.826-5.996L22.503,66.103
		c-5.887-7.057-4.926-17.579,2.143-23.457c2.992-2.488,6.781-3.858,10.67-3.858c4.972,0,9.646,2.186,12.826,5.996l31.604,37.878
		c2.853,3.418,4.201,7.74,3.796,12.171c-0.405,4.43-2.513,8.438-5.938,11.285C74.613,108.606,70.823,109.977,66.935,109.977z
		 M35.316,44.784c-2.487,0-4.912,0.877-6.827,2.469c-4.523,3.762-5.139,10.496-1.371,15.013l31.605,37.878
		c2.035,2.438,5.027,3.837,8.211,3.837c2.487,0,4.911-0.877,6.826-2.469c2.192-1.823,3.542-4.388,3.801-7.223
		c0.258-2.835-0.604-5.602-2.43-7.79L43.527,48.621C41.493,46.183,38.5,44.784,35.316,44.784z"/>
</g>
</svg>
