<?xml version="1.0" encoding="utf-8"?>
<!-- Generator: Adobe Illustrator 16.0.4, SVG Export Plug-In . SVG Version: 6.00 Build 0)  -->
<!DOCTYPE svg PUBLIC "-//W3C//DTD SVG 1.1//EN" "http://www.w3.org/Graphics/SVG/1.1/DTD/svg11.dtd">
<svg version="1.1" id="Layer_1" xmlns="http://www.w3.org/2000/svg" xmlns:xlink="http://www.w3.org/1999/xlink" x="0px" y="0px"
	 width="397px" height="423px" viewBox="0 0 397 423" enable-background="new 0 0 397 423" xml:space="preserve">
<ellipse fill="#C33C2E" cx="198.5" cy="224.457" rx="198.5" ry="198.543"/>
<path fill-rule="evenodd" clip-rule="evenodd" fill="#BC2A2A" d="M246.508,31.773l-83.472,73.471L62.132,298.366L215.471,422.27
	c4.051-0.342,8.068-0.805,12.046-1.387c17.546-3.34,33.543-7.891,48.127-13.436C346.953,377.334,397,306.743,397,224.457
	C397,131.364,332.939,53.248,246.508,31.773z"/>
<path fill-rule="evenodd" clip-rule="evenodd" fill="#5E5E5E" d="M377.079,205.806c-19.798-14.048-38.948-27.638-58.376-41.424
	c14.753-19.658,29.208-38.914,44.163-58.837c-24.731-1.123-48.466-2.2-72.607-3.296c1.891-24.691,3.743-48.896,5.655-73.841
	c-21.374,12.315-42.221,24.325-63.309,36.474C221.241,43.268,210.063,22.009,198.492,0c-11.603,22.215-22.741,43.538-34.096,65.281
	c-21.153-12.18-41.935-24.146-63.318-36.459c2.062,25.021,4.043,49.06,6.051,73.438c-24.113,0.953-47.877,1.891-72.603,2.869
	c14.92,20.208,29.232,39.593,43.759,59.268c-19.492,13.83-38.655,27.428-58.364,41.413c23.109,8.831,45.513,17.392,68.108,26.029
	c-8.726,22.417-17.202,44.189-25.897,66.528c24.017-5.088,47.103-9.978,70.568-14.949c4.927,23.435,9.718,46.21,14.68,69.806
	c17.437-17.188,34.254-33.76,51.802-51.058c16.948,16.992,33.457,33.542,50.271,50.398c4.829-23.023,9.589-45.714,14.42-68.754
	c23.697,4.855,47.067,9.645,70.992,14.55c-8.786-22.568-17.287-44.406-25.907-66.544
	C331.822,223.084,354.108,214.576,377.079,205.806z"/>
<path fill-rule="evenodd" clip-rule="evenodd" fill="#494848" d="M334.864,298.268c-8.786-22.568-17.287-44.406-25.907-66.544
	c22.865-8.729,45.151-17.238,68.122-26.008c-19.798-14.048-38.948-27.638-58.376-41.424c14.753-19.658,29.208-38.913,44.163-58.837
	c-24.731-1.123-48.466-2.2-72.607-3.296c0.619-8.092,0.229-3.007,0.845-11.038l-48.036-27.004L154.19,306.008l24.118,16.73
	l17.204-17.047c1.223-1.205,2.44-2.405,3.669-3.616c16.948,16.992,33.457,33.542,50.271,50.398
	c4.829-23.023,9.589-45.714,14.42-68.754C287.569,288.574,310.939,293.363,334.864,298.268z"/>
<polygon fill-rule="evenodd" clip-rule="evenodd" fill="#494848" points="107.655,235.532 151.961,267.009 165.207,271.007 
	180.027,229.701 129.072,236.196 "/>
<g>
	<path fill="#E5E5E4" d="M300.186,86.677c-5.905-37.747-32.69-68.405-67.282-80.776C222.214,2.077,210.777,0,198.981,0
		c-4.854,0-9.76,0.358-14.58,1.064c-42.286,6.197-71.029,30.322-85.432,71.705c-4.638,13.324-4.894,27.016-4.75,42.247
		c0.019,1.961-0.502,4.148-1.431,6.006c-2.833,5.675-5.802,11.38-8.677,16.914c-2.507,4.822-5.098,9.808-7.589,14.75
		c-3.953,7.837-1.55,15.349,6.273,19.599l0.847,0.458c2.964,1.613,6.029,3.283,9.199,4.703c0.764,0.341,1.157,0.632,1.35,1.122
		h62.09c5.013,0,9.092,4.417,9.092,9.847v33.256c0,5.43-4.079,9.847-9.092,9.847H97.096c4.255,8.865,13.104,14.283,24.606,14.302
		c3.598,0.006,7.194,0.007,10.793,0.007l19.466-0.003v60.184h2.229c19.021,0,37.674-19.188,55.713-37.748
		c17.521-18.024,35.644-36.662,53.044-36.662h2.23l0.003-3.079c0.002-2.436,0.013-9.849-0.055-42.854
		c-0.003-2.064,0.525-3.255,2.097-4.724C294.844,155.125,305.936,123.408,300.186,86.677z"/>
	<path fill="#939292" d="M94.294,204.044c0.006,2.5,0.011,11.995,0.012,14.497c0.001,2.086,0.185,4.083,0.535,5.982h61.44
		c1.137,0,2.098-1.306,2.098-2.852v-33.256c0-1.545-0.961-2.852-2.098-2.852H94.309C94.273,191.749,94.283,197.96,94.294,204.044z"
		/>
</g>
</svg>
