<?xml version="1.0" encoding="utf-8"?>
<!-- Generator: Adobe Illustrator 16.0.4, SVG Export Plug-In . SVG Version: 6.00 Build 0)  -->
<!DOCTYPE svg PUBLIC "-//W3C//DTD SVG 1.1//EN" "http://www.w3.org/Graphics/SVG/1.1/DTD/svg11.dtd">
<svg version="1.1" id="Layer_1" xmlns="http://www.w3.org/2000/svg" xmlns:xlink="http://www.w3.org/1999/xlink" x="0px" y="0px"
	 width="397px" height="431px" viewBox="0 0 397 431" enable-background="new 0 0 397 431" xml:space="preserve">
<ellipse fill="#C33C2E" cx="198.5" cy="232.365" rx="198.5" ry="198.635"/>
<path fill="#BC2B2A" d="M397,232.795c0-109.702-88.871-198.634-198.501-198.634c-6.102,0-12.137,0.291-18.099,0.831L62.132,298.933
	l154.774,131.64C317.904,421.277,397,336.285,397,232.795z"/>
<path fill="#5D5E5E" d="M377.08,205.901c-19.797-14.055-38.947-27.651-58.377-41.443c14.756-19.667,29.207-38.931,44.164-58.864
	c-24.732-1.124-48.467-2.201-72.609-3.299c1.891-24.703,3.744-48.917,5.656-73.875c-21.375,12.32-42.221,24.336-63.309,36.491
	C221.24,43.288,210.064,22.019,198.491,0c-11.601,22.225-22.74,43.558-34.095,65.312c-21.153-12.186-41.936-24.158-63.319-36.477
	c2.062,25.032,4.042,49.083,6.052,73.472c-24.114,0.954-47.877,1.893-72.603,2.871c14.919,20.217,29.232,39.612,43.758,59.295
	c-19.49,13.836-38.654,27.44-58.364,41.433c23.109,8.835,45.514,17.4,68.108,26.04c-8.726,22.428-17.201,44.21-25.896,66.56
	c24.017-5.091,47.102-9.982,70.567-14.956c4.928,23.444,9.718,46.23,14.68,69.838c17.438-17.194,34.254-33.775,51.802-51.081
	c16.949,16.999,33.457,33.557,50.27,50.422c4.83-23.034,9.59-45.736,14.42-68.787c23.697,4.857,47.068,9.649,70.992,14.557
	c-8.785-22.577-17.287-44.426-25.906-66.574C331.822,223.188,354.109,214.674,377.08,205.901z"/>
<path fill="#4A4849" d="M326.531,224.942c16.816-6.424,33.494-12.793,50.549-19.308c-19.795-14.053-38.945-27.647-58.371-41.438
	c14.756-19.667,29.209-38.931,44.164-58.864c-24.732-1.124-48.465-2.2-72.607-3.298c1.891-24.703,3.744-48.917,5.656-73.875
	c-21.377,12.32-42.223,24.336-63.309,36.491c-9.676-18.407-19.217-36.56-28.977-55.135l-35.884,169.102l27.76,20.337l-22.39,52.144
	l83.639,66.753c1.004-4.788,6.107-29.362,7.117-34.175c23.697,4.857,47.066,9.647,70.994,14.556
	c-8.787-22.577-17.289-44.427-25.908-66.574c5.891-2.249,11.738-4.484,17.572-6.712
	C326.535,224.945,326.533,224.943,326.531,224.942z"/>
<path fill="#E5E5E5" d="M231.842,174.778c0,2.286-1.854,4.138-4.137,4.138h-58.412c-2.284,0-4.136-1.853-4.136-4.138L159.412,4.459
	c0-2.287,1.852-4.139,4.136-4.139h69.901c2.285,0,4.137,1.852,4.137,4.139L231.842,174.778z"/>
<ellipse fill="#E5E5E5" cx="198.5" cy="228.81" rx="33.775" ry="33.798"/>
</svg>
