<?xml version="1.0" encoding="utf-8"?>
<!-- Generator: Adobe Illustrator 16.0.4, SVG Export Plug-In . SVG Version: 6.00 Build 0)  -->
<!DOCTYPE svg PUBLIC "-//W3C//DTD SVG 1.1//EN" "http://www.w3.org/Graphics/SVG/1.1/DTD/svg11.dtd">
<svg version="1.1" id="Layer_1" xmlns="http://www.w3.org/2000/svg" xmlns:xlink="http://www.w3.org/1999/xlink" x="0px" y="0px"
	 width="202px" height="34px" viewBox="0 0 202 34" enable-background="new 0 0 202 34" xml:space="preserve">
<g>
	<g>
		<g>
			<g>
				<path fill="#FFFFFF" d="M40.884,21.969h5.581c0.151,0,0.227,0.057,0.227,0.223v0.41c0,0.169-0.075,0.225-0.227,0.225h-6.391
					c-0.113,0-0.188-0.075-0.188-0.225V10.374c0-0.15,0.075-0.225,0.226-0.225h0.565c0.151,0,0.208,0.075,0.208,0.225V21.969z"/>
				<path fill="#FFFFFF" d="M50.445,17.569v5.033c0,0.149-0.056,0.225-0.208,0.225h-0.565c-0.151,0-0.226-0.075-0.226-0.225V10.374
					c0-0.15,0.075-0.225,0.208-0.225h3.676c3.036,0,3.94,1.175,3.94,2.629v2.163c0,1.193-0.584,2.181-2.414,2.516l2.583,5.145
					c0.057,0.132-0.038,0.225-0.208,0.225h-0.565c-0.188,0-0.226-0.093-0.282-0.225l-2.489-5.051
					c-0.188,0.018-0.377,0.018-0.565,0.018H50.445z M50.445,11.008v5.722h2.885c2.206,0,2.941-0.783,2.941-1.919v-1.883
					c0-1.137-0.735-1.919-2.941-1.919H50.445z"/>
				<path fill="#FFFFFF" d="M64.538,10.149c0.15,0,0.245,0.075,0.283,0.225l3.827,12.228c0.057,0.149-0.019,0.225-0.169,0.225
					h-0.584c-0.151,0-0.227-0.075-0.264-0.225l-1.15-3.616h-4.543l-1.113,3.616c-0.038,0.149-0.113,0.225-0.264,0.225h-0.547
					c-0.151,0-0.227-0.075-0.169-0.225l3.827-12.228c0.038-0.15,0.132-0.225,0.283-0.225H64.538z M64.688,13.189
					c-0.188-0.616-0.433-1.79-0.471-1.976c-0.019,0.13-0.245,1.323-0.434,1.938l-1.602,5.033h4.072L64.688,13.189z"/>
				<path fill="#FFFFFF" d="M83.11,20.104c0,1.529-0.924,2.872-4.167,2.872c-3.242,0-4.166-1.343-4.166-2.872v-7.232
					c0-1.529,0.924-2.871,4.166-2.871c3.243,0,4.167,1.342,4.167,2.871v0.913c0,0.261-0.094,0.373-0.339,0.373h-1.094
					c-0.264,0-0.358-0.111-0.358-0.373v-0.615c0-1.006-0.66-1.622-2.356-1.622c-1.697,0-2.338,0.615-2.338,1.622v6.636
					c0,1.006,0.641,1.622,2.338,1.622c1.696,0,2.356-0.616,2.356-1.622v-0.877c0-0.241,0.094-0.354,0.358-0.354h1.094
					c0.245,0,0.339,0.112,0.339,0.354V20.104z"/>
				<path fill="#FFFFFF" d="M87.396,17.812v4.641c0,0.261-0.076,0.373-0.339,0.373h-1.15c-0.245,0-0.339-0.112-0.339-0.373v-11.93
					c0-0.261,0.094-0.374,0.339-0.374h3.828c3.243,0,4.28,1.343,4.28,2.871v1.939c0,1.137-0.584,2.163-2.206,2.609l2.262,4.884
					c0.095,0.225-0.075,0.373-0.339,0.373h-1.15c-0.245,0-0.283-0.148-0.396-0.373l-2.13-4.641h-0.32H87.396z M87.396,11.697v4.568
					h2.338c1.697,0,2.451-0.597,2.451-1.623v-1.323c0-1.007-0.754-1.623-2.451-1.623H87.396z"/>
				<path fill="#FFFFFF" d="M98.515,22.453c0,0.261-0.075,0.373-0.339,0.373h-1.15c-0.245,0-0.339-0.112-0.339-0.373v-11.93
					c0-0.261,0.094-0.374,0.339-0.374h1.15c0.264,0,0.339,0.112,0.339,0.374V22.453z"/>
				<path fill="#FFFFFF" d="M105.383,11.529c-1.66,0-2.282,0.578-2.282,1.585v0.373c0,0.857,0.565,1.1,0.962,1.249l3.431,1.286
					c1.133,0.429,2.074,1.156,2.074,2.535v1.547c0,1.529-1.074,2.872-4.224,2.872c-3.148,0-4.242-1.343-4.242-2.872v-1.08
					c0-0.262,0.113-0.373,0.358-0.373h1.112c0.245,0,0.339,0.111,0.339,0.373v0.838c0,1.007,0.716,1.585,2.414,1.585
					c1.696,0,2.431-0.578,2.431-1.585v-0.876c0-0.932-0.848-1.249-1.583-1.529l-3.186-1.211c-0.83-0.316-1.678-1.155-1.678-2.312
					v-1.062c0-1.529,0.98-2.871,4.054-2.871c3.072,0,4.091,1.342,4.091,2.871v0.82c0,0.242-0.095,0.354-0.339,0.354h-1.112
					c-0.264,0-0.34-0.112-0.34-0.354v-0.578C107.663,12.107,107.04,11.529,105.383,11.529z"/>
				<path fill="#FFFFFF" d="M113.955,22.453c0,0.261-0.074,0.373-0.338,0.373h-1.151c-0.244,0-0.339-0.112-0.339-0.373v-11.93
					c0-0.261,0.095-0.374,0.339-0.374h1.151c0.264,0,0.338,0.112,0.338,0.374V22.453z"/>
				<path fill="#FFFFFF" d="M120.823,11.529c-1.66,0-2.282,0.578-2.282,1.585v0.373c0,0.857,0.565,1.1,0.961,1.249l3.434,1.286
					c1.131,0.429,2.072,1.156,2.072,2.535v1.547c0,1.529-1.074,2.872-4.224,2.872c-3.147,0-4.241-1.343-4.241-2.872v-1.08
					c0-0.262,0.113-0.373,0.358-0.373h1.111c0.247,0,0.341,0.111,0.341,0.373v0.838c0,1.007,0.716,1.585,2.413,1.585
					s2.431-0.578,2.431-1.585v-0.876c0-0.932-0.848-1.249-1.583-1.529l-3.187-1.211c-0.828-0.316-1.678-1.155-1.678-2.312v-1.062
					c0-1.529,0.98-2.871,4.054-2.871s4.091,1.342,4.091,2.871v0.82c0,0.242-0.094,0.354-0.339,0.354h-1.111
					c-0.265,0-0.341-0.112-0.341-0.354v-0.578C123.104,12.107,122.481,11.529,120.823,11.529z"/>
				<path fill="#FFFFFF" d="M138.435,10.149c0.15,0,0.225,0.056,0.225,0.225v0.409c0,0.168-0.074,0.225-0.225,0.225h-3.434v11.594
					c0,0.149-0.055,0.225-0.207,0.225h-0.563c-0.171,0-0.228-0.075-0.228-0.225V11.008h-3.413c-0.168,0-0.226-0.056-0.226-0.225
					v-0.409c0-0.168,0.058-0.225,0.226-0.225H138.435z"/>
				<path fill="#FFFFFF" d="M142.257,17.569v5.033c0,0.149-0.057,0.225-0.207,0.225h-0.566c-0.15,0-0.227-0.075-0.227-0.225V10.374
					c0-0.15,0.076-0.225,0.207-0.225h3.676c3.036,0,3.942,1.175,3.942,2.629v2.163c0,1.193-0.586,2.181-2.414,2.516l2.582,5.145
					c0.057,0.132-0.037,0.225-0.207,0.225h-0.566c-0.188,0-0.225-0.093-0.281-0.225l-2.49-5.051
					c-0.188,0.018-0.375,0.018-0.565,0.018H142.257z M142.257,11.008v5.722h2.883c2.208,0,2.941-0.783,2.941-1.919v-1.883
					c0-1.137-0.733-1.919-2.941-1.919H142.257z"/>
				<path fill="#FFFFFF" d="M156.349,10.149c0.151,0,0.245,0.075,0.282,0.225l3.828,12.228c0.057,0.149-0.02,0.225-0.17,0.225
					h-0.584c-0.152,0-0.227-0.075-0.264-0.225l-1.151-3.616h-4.542l-1.114,3.616c-0.037,0.149-0.113,0.225-0.264,0.225h-0.547
					c-0.15,0-0.227-0.075-0.17-0.225l3.828-12.228c0.037-0.15,0.132-0.225,0.282-0.225H156.349z M156.5,13.189
					c-0.188-0.616-0.435-1.79-0.473-1.976c-0.018,0.13-0.244,1.323-0.432,1.938l-1.604,5.033h4.071L156.5,13.189z"/>
				<path fill="#FFFFFF" d="M170.472,20.348c0,1.453-0.81,2.628-3.846,2.628c-3.035,0-3.846-1.175-3.846-2.628v-7.718
					c0-1.454,0.811-2.629,3.846-2.629c3.036,0,3.846,1.175,3.846,2.629v0.97c0,0.167-0.057,0.242-0.207,0.242h-0.546
					c-0.15,0-0.228-0.074-0.228-0.242v-0.821c0-1.137-0.659-1.92-2.865-1.92s-2.846,0.784-2.846,1.92v7.42
					c0,1.136,0.64,1.92,2.846,1.92s2.865-0.784,2.865-1.92v-1.064c0-0.148,0.077-0.205,0.228-0.205h0.546
					c0.15,0,0.207,0.057,0.207,0.205V20.348z"/>
				<path fill="#FFFFFF" d="M181.343,22.602c0.096,0.093,0.02,0.225-0.111,0.225h-0.756c-0.168,0-0.245-0.112-0.358-0.225
					l-5.071-5.741h-0.659v5.741c0,0.149-0.057,0.225-0.208,0.225h-0.565c-0.15,0-0.227-0.075-0.227-0.225V10.374
					c0-0.15,0.076-0.225,0.227-0.225h0.565c0.151,0,0.208,0.075,0.208,0.225v5.722h0.64l4.658-5.742
					c0.094-0.111,0.226-0.205,0.376-0.205h0.622c0.171,0,0.208,0.094,0.114,0.225l-4.901,6.021L181.343,22.602z"/>
				<path fill="#FFFFFF" d="M184.177,22.826c-0.133,0-0.208-0.075-0.208-0.225V10.374c0-0.15,0.075-0.225,0.226-0.225h6.43
					c0.15,0,0.227,0.056,0.227,0.225v0.409c0,0.168-0.076,0.225-0.227,0.225h-5.656v4.734h5.317c0.15,0,0.225,0.056,0.225,0.224
					v0.392c0,0.149-0.074,0.224-0.225,0.224h-5.317v5.388h5.883c0.15,0,0.226,0.057,0.226,0.223v0.41
					c0,0.169-0.075,0.225-0.226,0.225H184.177z"/>
				<path fill="#FFFFFF" d="M194.988,17.569v5.033c0,0.149-0.055,0.225-0.207,0.225h-0.566c-0.15,0-0.225-0.075-0.225-0.225V10.374
					c0-0.15,0.074-0.225,0.207-0.225h3.676c3.036,0,3.94,1.175,3.94,2.629v2.163c0,1.193-0.584,2.181-2.414,2.516l2.584,5.145
					c0.057,0.132-0.037,0.225-0.207,0.225h-0.566c-0.188,0-0.225-0.093-0.281-0.225l-2.49-5.051
					c-0.188,0.018-0.375,0.018-0.565,0.018H194.988z M194.988,11.008v5.722h2.885c2.206,0,2.942-0.783,2.942-1.919v-1.883
					c0-1.137-0.736-1.919-2.942-1.919H194.988z"/>
			</g>
		</g>
	</g>
	<g>
		<path fill="#FFFFFF" d="M30.728,12.514c-0.157-0.042-0.197-0.197-0.44-0.153c-0.301,0.427-1.373,0.246-1.752,0.495
			c-0.144-0.002-0.306,0.014-0.406-0.031c-0.156,0.104-0.28,0.24-0.596,0.185c-0.188-0.11-0.279-0.321-0.469-0.433
			c0.053-0.059,0.141-0.087,0.187-0.155c-0.005-0.2-0.238-0.177-0.187-0.433c-0.351-0.129-0.514-0.445-0.762-0.675
			c-1.003,1.525-2.515,2.706-4.325,3.28l0.182-1.354c1.344-0.559,2.462-1.523,3.211-2.727c-0.012-0.097,0.007-0.202-0.026-0.318
			c-0.046-0.159-0.182-0.428-0.282-0.556c-0.115-0.147-0.304-0.215-0.428-0.345c-0.487,1.041-1.277,1.923-2.281,2.503l0.223-1.672
			c0.726-0.692,1.208-1.621,1.336-2.643c-0.015-0.002-0.025-0.009-0.04-0.011c-0.069-0.097-0.13-0.201-0.156-0.34
			c-0.027-0.119,0.137-0.05,0.093-0.186c-0.45-0.452-0.676-1.125-0.938-1.763c0.098,0.079,0.137,0.076,0.25,0.094
			c0.11-0.146,0.161-0.351,0.21-0.558c-0.401-0.674-0.973-1.232-1.657-1.615c-0.37,0.01-0.67,0.08-0.9,0.286
			c-0.571-0.094-1.107-0.362-1.722-0.312c-0.161-0.232-0.553-0.236-0.875-0.309c-0.001-0.014-0.01-0.023-0.012-0.036
			c-1.959,0.599-3.308,2.485-3.127,4.588c0.119,1.377,0.87,2.553,1.945,3.276l0.509,1.611c-1.989-0.74-3.479-2.557-3.671-4.783
			c-0.136-1.583,0.41-3.067,1.392-4.178c-0.179-0.046-0.343-0.11-0.447-0.231c-0.019-0.074-0.045-0.143-0.031-0.248
			c-0.131-0.147-0.313-0.206-0.511-0.24c-1.15,1.338-1.784,3.112-1.62,4.998c0.262,3.023,2.487,5.419,5.326,6.071l0.411,1.303
			c-3.667-0.513-6.626-3.467-6.954-7.271c-0.173-1.996,0.415-3.882,1.516-5.388c-0.17-0.106-0.325-0.224-0.482-0.275
			c0.125-0.167,0.297-0.286,0.468-0.404c0.04-0.371-0.042-0.618-0.188-0.804c0.25-0.209,0.294-0.719-0.155-0.495
			c-0.044-0.159-0.231-0.318-0.408-0.249c-0.119,0.048-0.263,0.063-0.343,0.092c-0.065,0.025-0.115,0.113-0.187,0.125
			c-0.354,0.054-0.626-0.088-0.909-0.093c-0.36,0.33-0.937-0.008-1.533,0.155c-0.347,0.287-1.15,0.12-1.376,0.524
			c-0.172-0.036-0.171,0.1-0.345,0.065C7.338,1.064,7.171,1.188,6.915,1.223C6.563,0.983,6.122,1.271,5.819,1.07
			C5.697,0.986,5.741,0.868,5.632,0.82c-0.479-0.21-0.586,0.454-0.72,0.836c-0.42,0.4-1.129,0.513-1.22,1.238
			c-0.13,0.067-0.154,0.238-0.251,0.339c0.167,0.765-0.062,0.92-0.469,1.271C2.671,4.762,2.531,4.951,2.096,4.936
			C1.934,5.334,1.764,5.58,1.408,5.741C1.392,5.87,1.362,5.984,1.346,6.112c-0.11,0.105-0.25,0.186-0.219,0.434
			c-0.289,0.117-0.311,0.45-0.438,0.742c-0.137,0.313-0.434,0.58-0.375,1.052C0.425,8.477,0.54,8.612,0.627,8.772
			c-0.19,0.206-0.028,0.414,0,0.619c0.034,0.266-0.091,0.473-0.095,0.743c-0.029,0.083-0.107,0.12-0.123,0.215
			C0.4,10.809,0.016,10.893,0,11.342c0.151,0.076,0.302,0.155,0.377,0.309c-0.207,0.199,0.071,0.485,0.032,0.804
			c0.517,0.406,0.977,0.867,1.439,1.329c0.003,0.643,0.527,0.754,0.937,1.024c0.057,0.034,0.101,0.147,0.156,0.184
			c0.088,0.058,0.193,0.044,0.252,0.094c0.154,0.129,0.25,0.381,0.405,0.463c0.055,0.029,0.153-0.007,0.25,0.03
			c0.093,0.036,0.153,0.139,0.25,0.187c0.138,0.066,0.342,0.133,0.471,0.155c0.352,0.055,0.536-0.22,0.813-0.279
			c0.21-0.045,0.488-0.087,0.688-0.093c0.373-0.01,0.703,0.229,1.065,0.186c0.426-0.054,0.648-0.287,1-0.434
			c0.515-0.104,1.214-0.365,1.785-0.124c0.147,0.405,0.292,0.801,0.72,0.805c0.133,0,0.242-0.11,0.375-0.125
			c0.169-0.018,0.431,0.112,0.626,0c0.273,0.251,0.506,0.411,0.468,0.774c-0.013,0.132-0.147,0.264-0.156,0.433
			c-0.003,0.06,0.04,0.16,0.031,0.217c-0.041,0.268-0.26,0.502-0.28,0.709c-0.018,0.178,0.052,0.416,0.094,0.528
			c0.126,0.346,0.388,0.464,0.656,0.711c0.405,0.372,0.685,0.735,0.751,1.394c0.553,0.279,0.199,1.451,0.627,1.856
			c-0.017,0.336-0.192,0.513-0.284,0.771c-0.1-0.025-0.096,0.051-0.156,0.062c-0.006,0.139-0.081,0.211-0.156,0.278
			c-0.153,0.688-0.437,1.285-0.346,2.074c0.055,0.467,0.323,0.611,0.533,0.958c0.208,0.347,0.232,0.776,0.5,0.931
			c0.199,0.277,0.134,0.591,0.187,1.019c0.076,0.605,0.319,1.209,0.345,1.857c0.782,0.424,0.986,1.417,1.375,2.226
			c-0.375,0.286,0.091,0.785,0.127,1.146c0.268-0.142,0.393,0.272,0.875,0.188c0.248-0.189,0.743-0.133,0.97-0.344
			c0.235,0.079,0.33,0.038,0.533-0.027c0.168,0.05,0.405,0.029,0.531,0.122c0.122-0.057,0.256-0.19,0.439-0.095
			c0.073-0.171,0.356-0.14,0.561-0.185c0.378-0.213,0.621-0.562,1.002-0.773c0.095-0.327,0.361-0.486,0.563-0.711
			c0.099-0.42,0.397-0.639,0.562-0.99c0.497-0.201,0.484-0.904,0.565-1.516c0.009-0.081-0.176,0.031-0.125-0.093
			c0.423-0.304,1.438-0.317,1.189-1.084c0.073-0.174,0.071-0.422,0.125-0.619c-0.204-0.221-0.197-0.65-0.344-0.927
			c0.151-0.272,0.336-0.511,0.656-0.619c0.226-0.391,0.649-0.733,1.157-0.741c0.317-0.323,0.785-0.639,0.815-1.238
			c0.017-0.36-0.182-0.91-0.125-1.301c0.025-0.18,0.176-0.317,0.157-0.465c-0.025-0.174-0.272-0.302-0.376-0.462
			c-0.23-0.358-0.157-0.79-0.25-1.236c0.066,0.024,0.106,0.079,0.219,0.062c0.022-0.262-0.034-0.441-0.25-0.465
			c-0.101,0.033-0.022,0.246-0.093,0.31c-0.269-0.744,0.497-0.907,0.531-1.609c0.166-0.006,0.272-0.188,0.376-0.341
			c0.268-0.116,0.365-0.401,0.594-0.558c0.011-0.071,0.039-0.127,0.063-0.184c0.354-0.281,0.702-0.564,1.002-0.897
			c0.058-0.03,0.104,0.093,0.124,0c-0.107-0.054,0.079-0.063,0.063-0.125c0.495-0.2,0.737-0.652,1.158-0.926
			c0.062-0.248,0.177-0.445,0.375-0.558c0.233-0.781,0.856-1.174,0.97-2.074c0.023-0.078,0.156-0.05,0.158-0.154
			C30.671,13.008,30.684,12.675,30.728,12.514z M20.413,17.667l-2.611-8.279c-0.72-0.486-1.219-1.272-1.3-2.196
			c-0.141-1.628,1.084-3.064,2.73-3.204c1.646-0.137,3.1,1.072,3.239,2.701c0.081,0.921-0.28,1.78-0.905,2.38L20.413,17.667z"/>
		<path fill="#FFFFFF" d="M19.393,5.843c-0.612,0.052-1.067,0.584-1.015,1.192c0.052,0.604,0.592,1.053,1.205,1.001
			c0.612-0.051,1.067-0.585,1.015-1.188C20.545,6.24,20.004,5.79,19.393,5.843z"/>
		<path opacity="0.5" fill="#FFFFFF" d="M11.39,7.631c0.328,3.805,3.287,6.759,6.954,7.271l-0.411-1.303
			c-2.839-0.651-5.064-3.048-5.326-6.071c-0.164-1.886,0.47-3.659,1.62-4.998c-0.278-0.049-0.592-0.044-0.897-0.101
			c-0.159-0.03-0.295-0.104-0.424-0.187C11.804,3.749,11.216,5.635,11.39,7.631z"/>
		<path opacity="0.5" fill="#FFFFFF" d="M25.408,10.628c-0.021-0.037-0.03-0.075-0.036-0.114c-0.749,1.204-1.867,2.168-3.211,2.727
			l-0.182,1.354c1.81-0.575,3.322-1.755,4.325-3.28c-0.127-0.12-0.276-0.217-0.488-0.251C25.807,10.842,25.498,10.789,25.408,10.628
			z"/>
	</g>
</g>
</svg>
