<?xml version="1.0" encoding="utf-8"?>
<!-- Generator: Adobe Illustrator 16.0.4, SVG Export Plug-In . SVG Version: 6.00 Build 0)  -->
<!DOCTYPE svg PUBLIC "-//W3C//DTD SVG 1.1//EN" "http://www.w3.org/Graphics/SVG/1.1/DTD/svg11.dtd">
<svg version="1.1" id="Layer_1" xmlns="http://www.w3.org/2000/svg" xmlns:xlink="http://www.w3.org/1999/xlink" x="0px" y="0px"
	 width="397px" height="431px" viewBox="0 0 397 431" enable-background="new 0 0 397 431" xml:space="preserve">
<ellipse fill="#C33D2E" cx="198.5" cy="232.365" rx="198.5" ry="198.635"/>
<path fill-rule="evenodd" clip-rule="evenodd" fill="#BC2B2A" d="M397,232.795c0-109.703-88.872-198.634-198.5-198.634
	c-6.104,0-12.138,0.291-18.101,0.831L62.132,298.932l154.775,131.64C317.903,421.277,397,336.285,397,232.795z"/>
<path fill-rule="evenodd" clip-rule="evenodd" fill="#5D5E5E" d="M377.079,205.901c-19.798-14.055-38.948-27.651-58.376-41.443
	c14.753-19.667,29.208-38.931,44.163-58.864c-24.731-1.123-48.465-2.201-72.607-3.298c1.891-24.702,3.743-48.918,5.655-73.875
	c-21.374,12.321-42.221,24.337-63.309,36.491C221.241,43.288,210.063,22.019,198.492,0c-11.603,22.225-22.741,43.558-34.096,65.311
	c-21.153-12.186-41.936-24.157-63.318-36.476c2.062,25.032,4.043,49.083,6.051,73.471c-24.113,0.953-47.877,1.892-72.604,2.87
	c14.921,20.217,29.233,39.612,43.759,59.295c-19.491,13.836-38.654,27.44-58.363,41.433c23.109,8.835,45.513,17.4,68.108,26.041
	c-8.727,22.427-17.202,44.21-25.897,66.559c24.017-5.09,47.103-9.982,70.568-14.956c4.927,23.445,9.718,46.231,14.68,69.838
	c17.437-17.195,34.254-33.775,51.802-51.082c16.948,17,33.457,33.558,50.271,50.421c4.829-23.033,9.589-45.736,14.42-68.787
	c23.697,4.858,47.067,9.649,70.992,14.557c-8.786-22.578-17.287-44.427-25.907-66.574
	C331.822,223.187,354.108,214.674,377.079,205.901z"/>
<path fill-rule="evenodd" clip-rule="evenodd" fill="#4A4849" d="M334.864,298.405c-8.786-22.578-17.287-44.427-25.907-66.574
	c22.865-8.733,45.151-17.246,68.122-26.02c-19.798-14.055-38.948-27.651-58.376-41.443c14.753-19.667,29.208-38.931,44.163-58.864
	c-24.731-1.123-48.465-2.201-72.607-3.298c0.619-8.096,0.229-3.008,0.845-11.043l-48.036-27.016l-96.844,198.875l49.289,42.809l0,0
	c1.223-1.205,2.44-2.405,3.669-3.617c16.948,17,33.457,33.558,50.271,50.421c4.829-23.033,9.589-45.736,14.42-68.787
	C287.569,288.707,310.939,293.498,334.864,298.405z"/>
<path fill-rule="evenodd" clip-rule="evenodd" fill="#E5E5E5" d="M241.043,65.076l-45.53,45.561l-45.529-45.561
	c-1.118-1.119-2.932-1.12-4.051,0l-48.851,48.883c-1.119,1.12-1.119,2.936,0,4.055l45.529,45.56l-45.529,45.56
	c-1.119,1.12-1.119,2.935,0,4.056l48.851,48.883c1.119,1.12,2.933,1.118,4.051,0l45.528-45.56l45.531,45.561
	c1.118,1.12,2.933,1.118,4.052,0l48.85-48.883c1.119-1.12,1.119-2.935,0-4.055l-45.529-45.56l45.529-45.561
	c1.119-1.12,1.119-2.935,0-4.054l-48.85-48.883C243.976,63.956,242.162,63.956,241.043,65.076z"/>
</svg>
